<?xml version="1.0" standalone="no"?>
<!DOCTYPE svg PUBLIC "-//W3C//DTD SVG 1.1//EN" "http://www.w3.org/Graphics/SVG/1.1/DTD/svg11.dtd" >
<svg xmlns="http://www.w3.org/2000/svg">
<metadata></metadata>
<defs>
<font id="fira_monomedium" horiz-adv-x="1228" >
<font-face units-per-em="2048" ascent="1608" descent="-440" />
<missing-glyph horiz-adv-x="500" />
<glyph />
<glyph />
<glyph horiz-adv-x="682" />
<glyph unicode="&#xd;" />
<glyph unicode=" " />
<glyph unicode="!" d="M459 129q0 63 44.5 108.5t108.5 45.5q67 0 112.5 -45t45.5 -109q0 -65 -45.5 -110.5t-112.5 -45.5q-64 0 -108.5 45.5t-44.5 110.5zM485 1413h252l-26 -926h-197z" />
<glyph unicode="&#x22;" d="M307 1516h252l-35 -547h-182zM670 1516h252l-35 -547h-182z" />
<glyph unicode="#" d="M94 328v164h168l60 434h-152v166h174l41 321h195l-45 -321h260l43 321h192l-43 -321h148v-166h-170l-58 -434h152v-164h-174l-41 -328h-195l45 328h-260l-43 -328h-192l43 328h-148zM457 492h258l59 434h-260z" />
<glyph unicode="$" d="M119 168l125 139q144 -138 317 -151v512q-198 66 -293.5 162t-95.5 239t103 246t286 121v307h150v-305q223 -22 387 -164l-125 -129q-117 102 -262 117v-424q93 -31 162 -67t127 -87.5t88 -123t30 -161.5q0 -162 -106.5 -277t-300.5 -142v-299h-150v292 q-137 10 -249 63.5t-193 131.5zM397 1083q0 -66 34 -109.5t130 -84.5v371q-76 -14 -120 -60t-44 -117zM711 164q176 35 176 219q0 78 -39 132.5t-137 98.5v-450z" />
<glyph unicode="%" d="M27 1116q0 140 81 233t218 93q136 0 215.5 -92.5t79.5 -233.5t-79.5 -234.5t-215.5 -93.5q-137 0 -218 93.5t-81 234.5zM106 25l865 1429l135 -72l-866 -1429zM205 1116q0 -90 31.5 -140t89.5 -50q118 0 118 190q0 189 -118 189q-121 0 -121 -189zM608 315q0 140 81 233 t218 93t217 -92.5t80 -233.5t-80 -234t-217 -93t-218 93t-81 234zM786 315q0 -91 31.5 -141.5t89.5 -50.5q119 0 119 192q0 189 -119 189q-58 0 -89.5 -47.5t-31.5 -141.5z" />
<glyph unicode="&#x26;" d="M98 401q0 161 81.5 260.5t234.5 133.5v6q-125 31 -184.5 110t-59.5 189q0 143 111.5 241.5t289.5 98.5q111 0 197.5 -34.5t165.5 -121.5l-129 -117q-53 58 -103 83.5t-118 25.5q-92 0 -141.5 -52t-49.5 -139q0 -90 66 -152.5t164 -62.5h555v-163h-164v-549 q-158 -185 -445 -185q-116 0 -207.5 35t-148 95t-86 136t-29.5 162zM322 414q0 -115 65.5 -191t192.5 -76q147 0 223 89v471h-203q-70 0 -125 -26t-87.5 -69t-49 -93.5t-16.5 -104.5z" />
<glyph unicode="'" d="M489 1516h250l-34 -547h-181z" />
<glyph unicode="(" d="M317 717q0 80 8.5 155t20.5 137.5t36.5 128t44.5 113.5t56.5 108t61 97.5t70.5 96.5t72 90.5t77 91.5l149 -101q-72 -92 -120 -159.5t-97 -157t-77 -174t-46 -193.5t-18 -233q0 -123 18 -232t46 -194t77 -174.5t97 -158t120 -159.5l-149 -100q-51 60 -77 91.5t-72 90.5 t-70.5 96.5t-61 97.5t-56.5 108t-44.5 113.5t-36.5 128t-20.5 137.5t-8.5 155z" />
<glyph unicode=")" d="M315 -201q72 92 120 160t97.5 157.5t77.5 174.5t46 194t18 232q0 124 -18 233t-46 193.5t-77.5 174t-97 157t-120.5 159.5l150 101q65 -77 99 -118.5t89.5 -116.5t85.5 -128.5t68 -134t57 -154.5t33 -169t14 -197t-14 -197t-33 -169t-57 -154.5t-68 -134t-85.5 -128.5 t-89.5 -116.5t-99 -118.5z" />
<glyph unicode="*" d="M182 686l64 199l297 -129l-35 325h213l-37 -325l299 129l64 -199l-316 -65l223 -238l-172 -129l-168 283l-155 -287l-176 123l217 248z" />
<glyph unicode="+" d="M211 545v186h301v309h203v-309h303v-186h-303v-309h-203v309h-301z" />
<glyph unicode="," d="M408 -387l98 418q-78 53 -78 153q0 77 54 131t132 54q81 0 135 -54t54 -131q0 -45 -13.5 -90t-46.5 -119l-157 -362h-178z" />
<glyph unicode="-" d="M244 547v188h743v-188h-743z" />
<glyph unicode="." d="M416 172q0 82 56.5 139.5t139.5 57.5q84 0 142.5 -57.5t58.5 -139.5q0 -83 -58 -141t-143 -58q-83 0 -139.5 57.5t-56.5 141.5z" />
<glyph unicode="/" d="M88 -135l870 1798l183 -84l-869 -1796z" />
<glyph unicode="0" d="M133 709q0 353 122.5 543t358.5 190t359 -190t123 -543q0 -355 -123 -545.5t-359 -190.5t-358.5 190.5t-122.5 545.5zM365 709q0 -295 63 -428.5t186 -133.5q124 0 187 134t63 428q0 293 -63 425t-187 132q-123 0 -186 -133t-63 -424zM481 707q0 56 38 94.5t95 38.5 q58 0 97 -38.5t39 -94.5q0 -57 -39 -96.5t-97 -39.5q-57 0 -95 39.5t-38 96.5z" />
<glyph unicode="1" d="M166 1147l434 266h203v-1233h282v-180h-854v180h344v998l-311 -193z" />
<glyph unicode="2" d="M106 1225q85 108 193.5 162.5t257.5 54.5q210 0 330.5 -114t120.5 -286q0 -182 -131 -362t-480 -494h643l-26 -186h-879v174q200 193 314 311t190.5 219.5t102.5 172.5t26 151q0 106 -60 167.5t-167 61.5q-93 0 -157.5 -34t-129.5 -113z" />
<glyph unicode="3" d="M80 170l141 123q117 -137 305 -137q132 0 208.5 68t76.5 188q0 247 -272 247h-121l26 168h86q106 0 177 57.5t71 166.5q0 100 -68.5 156.5t-174.5 56.5q-87 0 -156 -31t-137 -96l-121 131q180 174 432 174q205 0 329 -103.5t124 -253.5q0 -128 -78.5 -216t-202.5 -117 q142 -15 234 -103t92 -246q0 -185 -142 -307.5t-370 -122.5q-137 0 -257.5 50t-201.5 147z" />
<glyph unicode="4" d="M127 326v159l405 957l195 -76l-360 -862h348l22 377h197v-377h168v-178h-168v-326h-221v326h-586z" />
<glyph unicode="5" d="M127 158l137 129q119 -131 287 -131q131 0 204.5 78.5t73.5 220.5q0 278 -231 278q-96 0 -201 -47h-170v727h793l-31 -172h-543v-393q107 55 232 55q173 0 282 -120t109 -328q0 -215 -139.5 -348.5t-368.5 -133.5q-259 0 -434 185z" />
<glyph unicode="6" d="M139 657q0 235 66 412t193.5 275t299.5 98q161 0 291 -86l-88 -148q-94 60 -203 60q-142 0 -228 -134t-95 -368q127 166 323 166q83 0 155 -29.5t127 -85t86.5 -143t31.5 -197.5q0 -224 -131.5 -364t-335.5 -140q-104 0 -187 33t-139.5 92.5t-94 145.5t-54.5 188.5 t-17 224.5zM377 596q5 -234 64 -341.5t192 -107.5q114 0 172.5 86.5t58.5 233.5q0 155 -55 223t-158 68q-82 0 -152.5 -43t-121.5 -119z" />
<glyph unicode="7" d="M176 1233v180h881v-164l-559 -1274l-215 68l540 1190h-647z" />
<glyph unicode="8" d="M117 375q0 240 274 364q-115 60 -167 135t-52 191q0 91 38 164.5t101.5 119t141.5 69.5t161 24q89 0 168 -23.5t141 -68t98 -115t36 -158.5q0 -100 -58 -174t-178 -141q141 -64 216 -160.5t75 -220.5q0 -176 -135.5 -292t-366.5 -116t-362 114.5t-131 287.5zM352 383 q0 -110 67 -173t193 -63t195.5 65.5t69.5 166.5q0 42 -9.5 76t-32 61.5t-47 47.5t-68.5 40.5t-80.5 34.5t-98.5 35q-189 -96 -189 -291zM395 1063q0 -41 12.5 -73.5t32.5 -55.5t57 -44t73.5 -36t95.5 -35q90 55 129 110.5t39 135.5q0 97 -58 153t-162 56q-103 0 -161 -55 t-58 -156z" />
<glyph unicode="9" d="M119 958q0 149 64 259.5t171.5 166.5t243.5 56q239 0 361 -147t122 -406q0 -174 -30 -307t-89 -233t-157 -174.5t-222 -126.5t-296 -95l-51 168q283 72 432.5 198t171.5 340q-131 -148 -320 -151q-175 0 -288 123t-113 329zM354 958q0 -280 226 -280q148 3 264 145 q4 239 -52.5 341t-193.5 102q-119 0 -181.5 -77.5t-62.5 -230.5z" />
<glyph unicode=":" d="M428 158q0 75 54 128.5t130 53.5q79 0 133 -53t54 -129q0 -77 -54 -131t-133 -54q-76 0 -130 54t-54 131zM428 885q0 75 54 129.5t130 54.5q79 0 133 -54t54 -130t-54 -130.5t-133 -54.5q-76 0 -130 55t-54 130z" />
<glyph unicode=";" d="M408 -383l98 412q-36 25 -57 65.5t-21 85.5q0 77 53 131t131 54q79 0 133 -54t54 -131q0 -71 -58 -205l-157 -358h-176zM428 885q0 75 54 129.5t130 54.5q79 0 133 -54t54 -130t-54 -130.5t-133 -54.5q-76 0 -130 55t-54 130z" />
<glyph unicode="&#x3c;" d="M166 543v198l792 490l107 -166l-700 -424l700 -422l-113 -166z" />
<glyph unicode="=" d="M190 340v188h848v-188h-848zM190 745v189h848v-189h-848z" />
<glyph unicode="&#x3e;" d="M166 217l700 424l-700 420l106 170l793 -490v-198l-786 -490z" />
<glyph unicode="?" d="M158 1233q178 209 452 209q197 0 313.5 -96.5t116.5 -231.5q0 -66 -20.5 -119.5t-53.5 -88.5t-72.5 -65.5t-79 -58.5t-72.5 -59t-53.5 -75.5t-20.5 -100.5v-60h-222v70q0 80 26.5 143.5t65.5 101.5t85.5 74.5t85.5 64t65.5 68.5t26.5 89q0 73 -59 115t-154 42 q-74 0 -146.5 -35t-130.5 -106zM408 129q0 63 44.5 108.5t108.5 45.5q66 0 112 -45.5t46 -108.5q0 -65 -46 -110.5t-112 -45.5q-64 0 -108.5 45.5t-44.5 110.5z" />
<glyph unicode="@" d="M10 1212q261 230 574 230q107 0 195.5 -23.5t152.5 -65t113 -103t80 -132.5t50.5 -159t27 -176t7.5 -191q0 -163 -8 -280.5t-28.5 -216t-55 -158.5t-88.5 -92.5t-129 -32.5q-59 0 -106.5 27.5t-76 71.5t-44 92.5t-17.5 96.5h-8q-36 -85 -104.5 -140.5t-177.5 -55.5 q-84 0 -146.5 35t-99.5 99.5t-54.5 147.5t-17.5 187q0 261 106.5 398.5t309.5 137.5q154 0 309 -82v-608q0 -138 31 -192t90 -54q74 0 92.5 136t18.5 475q0 108 -7 192.5t-24 165.5t-48.5 139t-77.5 102.5t-114 66.5t-155 22q-243 0 -459 -189zM264 373q0 -155 31 -233.5 t106 -78.5q35 0 64 12.5t46.5 28.5t32 42t21 42.5t13.5 40.5v500q-56 27 -111 27q-115 0 -159 -88t-44 -293z" />
<glyph unicode="A" d="M16 0l451 1413h295l450 -1413h-251l-99 340h-504l-98 -340h-244zM408 524h405l-203 705z" />
<glyph unicode="B" d="M166 0v1413h387q83 0 155.5 -10.5t140 -36.5t115.5 -65.5t76.5 -102.5t28.5 -143q0 -124 -74.5 -202t-187.5 -103q64 -11 116.5 -33t101.5 -60t77 -102t28 -147q0 -91 -31 -163t-82 -117t-123.5 -74.5t-149 -41.5t-164.5 -12h-414zM403 184h193q285 0 285 226 q0 68 -20.5 116t-60 74t-87 37.5t-109.5 11.5h-201v-465zM403 827h185q120 0 179.5 50t59.5 159q0 199 -254 199h-170v-408z" />
<glyph unicode="C" d="M106 709q0 139 32 258t89 205.5t135.5 148t172.5 91.5t198 30q138 0 236 -35.5t190 -108.5l-123 -147q-128 104 -293 104q-82 0 -150 -30t-123 -92.5t-85.5 -170.5t-30.5 -253q0 -143 29.5 -249.5t83 -169.5t123 -93.5t155.5 -30.5q101 0 174 32t146 89l115 -146 q-172 -168 -443 -168q-136 0 -250.5 48.5t-199.5 139.5t-133 231.5t-48 316.5z" />
<glyph unicode="D" d="M145 0v1413h324q79 0 146.5 -7.5t138.5 -28.5t127.5 -54t107.5 -87.5t85.5 -126t54.5 -171.5t20 -223t-20 -224.5t-54.5 -174.5t-84.5 -129t-106 -91t-123.5 -57t-132 -30.5t-136.5 -8.5h-347zM385 182h131q63 0 116 13.5t103.5 50t85.5 95t56.5 154t21.5 220.5 q0 130 -22.5 225.5t-58 150.5t-88.5 87.5t-103 42.5t-113 10h-129v-1049z" />
<glyph unicode="E" d="M231 0v1413h850l-26 -180h-586v-424h512v-180h-512v-449h625v-180h-863z" />
<glyph unicode="F" d="M260 0v1413h868l-24 -180h-606v-451h532v-180h-532v-602h-238z" />
<glyph unicode="G" d="M76 709q0 177 49.5 318.5t135 231t196 136.5t235.5 47q138 0 235.5 -40.5t186.5 -123.5l-135 -137q-65 59 -132 86.5t-149 27.5q-78 0 -142.5 -29.5t-117.5 -91.5t-82.5 -170.5t-29.5 -254.5q0 -291 83 -421t255 -130q119 0 231 59v389h-240l-24 182h495v-686 q-226 -129 -475 -129q-274 0 -424.5 188t-150.5 548z" />
<glyph unicode="H" d="M145 0v1413h240v-573h459v573h239v-1413h-239v641h-459v-641h-240z" />
<glyph unicode="I" d="M188 0v182h306v1049h-306v182h852v-182h-305v-1049h305v-182h-852z" />
<glyph unicode="J" d="M123 104l96 152q144 -94 297 -94q134 0 210.5 85.5t76.5 241.5v742h-424v182h661v-928q0 -105 -29.5 -195t-89.5 -162.5t-161.5 -113.5t-235.5 -41q-222 0 -401 131z" />
<glyph unicode="K" d="M178 0v1413h240v-1413h-240zM428 756l490 657h262l-494 -643l533 -770h-285z" />
<glyph unicode="L" d="M244 0v1413h239v-1214h633l-26 -199h-846z" />
<glyph unicode="M" d="M51 0l80 1413h287l200 -946l193 946h287l80 -1413h-220l-32 688q-7 146 -7 265.5t7 213.5h-8l-201 -917h-207l-213 917h-8q8 -83 8 -233q0 -107 -4 -248l-27 -686h-215z" />
<glyph unicode="N" d="M145 0v1413h310l442 -1171h8q-11 60 -23 210.5t-12 317.5v643h213v-1413h-311l-440 1167h-8q9 -57 21.5 -216.5t12.5 -309.5v-641h-213z" />
<glyph unicode="O" d="M76 705q0 220 60 384.5t182.5 258.5t295.5 94q260 0 399.5 -197.5t139.5 -537.5q0 -220 -60 -384t-183 -257t-296 -93q-174 0 -296 91t-182 254t-60 387zM324 705q0 -277 70 -412t220 -135q154 0 222.5 135t68.5 414t-68.5 413.5t-222.5 134.5q-153 0 -221.5 -135 t-68.5 -415z" />
<glyph unicode="P" d="M195 0v1413h393q272 0 419.5 -111t147.5 -333q0 -237 -147.5 -351t-403.5 -114h-170v-504h-239zM434 686h172q143 0 221 65.5t78 217.5q0 266 -301 266h-170v-549z" />
<glyph unicode="Q" d="M82 705q0 221 59 385t180.5 258t294.5 94q174 0 295.5 -92t180.5 -255.5t59 -387.5q0 -482 -287 -641q153 -30 240.5 -105t140.5 -233l-219 -82q-35 86 -70.5 143.5t-85.5 102t-117.5 65t-158.5 20.5q-248 0 -380 194.5t-132 533.5zM330 705q0 -278 68 -412.5t218 -134.5 q153 0 220 134t67 415q0 280 -67 414t-220 134t-219.5 -134.5t-66.5 -415.5z" />
<glyph unicode="R" d="M174 0v1413h393q553 0 553 -409q0 -148 -88.5 -247t-232.5 -143l399 -614h-276l-357 582h-153v-582h-238zM412 756h176q139 0 210.5 59t71.5 189q0 122 -70 177.5t-218 55.5h-170v-481z" />
<glyph unicode="S" d="M63 162l132 145q160 -147 389 -147q127 0 210 59t83 168q0 94 -61.5 147.5t-229.5 104.5q-234 69 -344.5 165.5t-110.5 254.5q0 171 136.5 277t348.5 106q288 0 474 -170l-125 -142q-142 125 -334 125q-113 0 -184.5 -46.5t-71.5 -135.5q0 -82 69 -129.5t263 -105.5 q78 -23 135.5 -47.5t113 -61.5t91 -81.5t56.5 -107.5t21 -141q0 -192 -144 -309t-396 -117q-325 0 -521 189z" />
<glyph unicode="T" d="M68 1221v192h1097l-24 -192h-410v-1221h-237v1221h-426z" />
<glyph unicode="U" d="M125 463v950h237v-905q0 -174 60.5 -260t189.5 -86q130 0 191 86t61 260v905h240v-950q0 -219 -131.5 -354.5t-360.5 -135.5q-231 0 -359 133.5t-128 356.5z" />
<glyph unicode="V" d="M31 1413h254l333 -1188l338 1188h242l-446 -1413h-275z" />
<glyph unicode="W" d="M4 1413h229l105 -1163h8l150 999h243l138 -995h8l127 1159h213l-195 -1413h-278l-136 1020h-8l-139 -1020h-285z" />
<glyph unicode="X" d="M41 0l428 752l-391 661h264l272 -508l277 508h254l-391 -649l434 -764h-266l-312 600l-313 -600h-256z" />
<glyph unicode="Y" d="M23 1413h262l333 -670l338 670h250l-471 -872v-541h-241v539z" />
<glyph unicode="Z" d="M121 0v184l717 1037h-643v192h907v-186l-709 -1030h715l-27 -197h-960z" />
<glyph unicode="[" d="M354 -242v1917h518v-182h-301v-1554h301v-181h-518z" />
<glyph unicode="\" d="M88 1579l182 84l871 -1798l-185 -82z" />
<glyph unicode="]" d="M356 -59h301v1552h-301v182h518v-1917h-518v183z" />
<glyph unicode="^" d="M123 1079l387 643h209l387 -643h-238l-256 457l-252 -457h-237z" />
<glyph unicode="_" d="M12 -184h1205v-191h-1205v191z" />
<glyph unicode="`" d="M358 1464l109 183l403 -261l-71 -120z" />
<glyph unicode="a" d="M115 309q0 170 133.5 262.5t380.5 92.5h153v69q0 103 -60.5 150t-178.5 47q-130 0 -287 -56l-57 162q196 74 379 74q215 0 323.5 -94.5t108.5 -267.5v-482q0 -63 19 -93t63 -44l-54 -156q-169 19 -223 150q-59 -74 -149.5 -112t-196.5 -38q-163 0 -258.5 92t-95.5 244z M356 317q0 -176 183 -176q72 0 138 38t105 104v237h-127q-299 0 -299 -203z" />
<glyph unicode="b" d="M182 0v1516l230 26v-590q57 75 133 116.5t164 41.5q206 0 304.5 -149t98.5 -418q0 -167 -48.5 -294.5t-147 -201.5t-234.5 -74q-182 0 -285 133l-12 -106h-203zM412 272q82 -125 213 -125q118 0 180.5 97.5t62.5 296.5q0 204 -56.5 298.5t-166.5 94.5q-70 0 -129.5 -43.5 t-103.5 -112.5v-506z" />
<glyph unicode="c" d="M170 535q0 253 142.5 414t387.5 161q215 0 375 -129l-106 -150q-131 95 -264 95q-135 0 -213 -97.5t-78 -293.5q0 -192 78.5 -282.5t212.5 -90.5q133 0 266 98l106 -154q-73 -61 -174.5 -97t-206.5 -36q-247 0 -386.5 152.5t-139.5 409.5z" />
<glyph unicode="d" d="M117 541q0 165 50.5 293.5t148.5 202t229 73.5q164 0 272 -117v549l230 -26v-1516h-203l-17 133q-113 -160 -303 -160q-203 0 -305 152t-102 416zM360 541q0 -391 226 -391q133 0 231 153v510q-84 121 -213 121q-118 0 -181 -97.5t-63 -295.5z" />
<glyph unicode="e" d="M135 541q0 162 58.5 290.5t170.5 203.5t259 75q220 0 346.5 -144.5t126.5 -396.5q0 -62 -6 -102h-717q10 -158 90.5 -236.5t204.5 -78.5q163 0 282 100l101 -143q-76 -64 -179 -100t-215 -36q-249 0 -385.5 154.5t-136.5 413.5zM373 625h499q-3 153 -65 234t-180 81 q-108 0 -176 -79.5t-78 -235.5z" />
<glyph unicode="f" d="M178 834v170h246v194q0 154 114.5 249t301.5 95q178 0 323 -63l-69 -160q-102 45 -232 45q-106 0 -157.5 -41.5t-51.5 -128.5v-190h363l-25 -170h-338v-834h-229v834h-246z" />
<glyph unicode="g" d="M106 -106h207q0 -61 22 -95.5t83.5 -53.5t173.5 -19q163 0 235 39.5t72 117.5q0 65 -56 101t-153 36h-186q-146 0 -220.5 58.5t-74.5 148.5q0 119 119 197q-97 51 -142 124t-45 179q0 170 126.5 276.5t326.5 106.5h13q168 0 267 25q102 26 220 84l61 -191 q-104 -35 -315 -35q98 -45 147 -112t49 -164q0 -161 -116 -263t-312 -102q-89 0 -147 19q-47 -32 -47 -90q0 -37 29 -58.5t106 -21.5h188q171 0 282 -85.5t111 -215.5q0 -164 -139.5 -253t-400.5 -89q-183 0 -291 39.5t-150.5 111t-42.5 185.5zM377 727q0 -104 57.5 -164.5 t165.5 -60.5q101 0 154 59t53 170q0 219 -211 219q-106 0 -162.5 -60.5t-56.5 -162.5z" />
<glyph unicode="h" d="M182 0v1513l230 25v-588q65 78 152.5 119t183.5 41q150 0 225.5 -83.5t75.5 -238.5v-788h-230v752q0 98 -36.5 140t-118.5 42q-71 0 -136.5 -45.5t-115.5 -114.5v-774h-230z" />
<glyph unicode="i" d="M219 0v168h324v745h-314v168h545v-913h293v-168h-848zM463 1468q0 61 42 102.5t107 41.5q67 0 109.5 -41.5t42.5 -102.5q0 -64 -42.5 -105.5t-109.5 -41.5q-66 0 -107.5 41.5t-41.5 105.5z" />
<glyph unicode="j" d="M176 -264q101 19 178.5 44t145 63.5t110.5 89t67.5 121t24.5 159.5v700h-426v168h658v-854q0 -149 -46.5 -262t-141 -192.5t-224.5 -131t-309 -83.5zM604 1468q0 61 42.5 102.5t107.5 41.5q66 0 108.5 -41.5t42.5 -102.5q0 -64 -42 -105.5t-109 -41.5q-66 0 -108 42 t-42 105z" />
<glyph unicode="k" d="M188 0v1516l232 26v-1542h-232zM436 592l430 489h269l-437 -483l482 -598h-281z" />
<glyph unicode="l" d="M102 1348v168h555v-1221q0 -135 164 -135q76 0 172 35l58 -160q-112 -62 -279 -62q-162 0 -253 91t-91 251v1033h-326z" />
<glyph unicode="m" d="M84 0v1081h174l16 -116q50 71 104.5 108t127.5 37q142 0 184 -137q102 137 238 137q102 0 159.5 -69.5t57.5 -237.5v-803h-205v772q0 90 -13.5 124t-58.5 34q-86 0 -159 -107v-823h-187v772q0 91 -13 124.5t-58 33.5q-87 0 -160 -107v-823h-207z" />
<glyph unicode="n" d="M182 0v1081h199l16 -139q66 81 159.5 124.5t191.5 43.5q150 0 225.5 -83.5t75.5 -238.5v-788h-230v676q0 146 -30 202t-123 56q-74 0 -139 -45t-115 -115v-774h-230z" />
<glyph unicode="o" d="M125 541q0 258 129.5 413.5t361.5 155.5q233 0 360.5 -152.5t127.5 -414.5t-129 -416t-361 -154q-234 0 -361.5 151.5t-127.5 416.5zM367 541q0 -200 61 -295.5t186 -95.5t186.5 96t61.5 297q0 198 -61 293.5t-185 95.5q-125 0 -187 -95.5t-62 -295.5z" />
<glyph unicode="p" d="M182 -442v1523h201l14 -139q124 168 314 168q393 0 393 -567q0 -167 -46.5 -294t-142 -201.5t-229.5 -74.5q-170 0 -274 119v-508zM412 272q82 -120 213 -120q119 0 178 94.5t59 294.5q0 206 -53 299.5t-162 93.5q-72 0 -131.5 -43.5t-103.5 -112.5v-506z" />
<glyph unicode="q" d="M125 541q0 254 111.5 411.5t310.5 157.5q180 0 287 -135l14 106h199v-1523l-230 26v535q-113 -146 -295 -146q-397 0 -397 568zM367 541q0 -203 54.5 -296t162.5 -93q140 0 233 151v510q-81 121 -213 121q-237 0 -237 -393z" />
<glyph unicode="r" d="M178 0v168h240v745h-240v168h443l24 -204q42 111 123.5 171t181.5 60q75 0 140 -16l-41 -226q-68 19 -125 19q-100 0 -173.5 -80t-101.5 -199v-438h293v-168h-764z" />
<glyph unicode="s" d="M131 125l123 139q141 -114 321 -114q108 0 171 38t63 105q0 47 -18 75.5t-73.5 55.5t-166.5 55q-86 22 -147 47.5t-110.5 62.5t-74 89t-24.5 121q0 140 117 225.5t315 85.5q244 0 411 -125l-96 -145q-150 96 -309 96q-203 0 -203 -119q0 -60 54.5 -93.5t220.5 -78.5 q86 -23 144.5 -48t107.5 -63.5t72.5 -94t23.5 -130.5q0 -86 -39 -152t-106.5 -105t-151.5 -59t-181 -20q-271 0 -444 152z" />
<glyph unicode="t" d="M145 913v168h240v242l231 27v-269h365l-27 -168h-338v-583q0 -87 44 -128.5t143 -41.5q108 0 201 49l81 -152q-59 -39 -142.5 -61.5t-172.5 -22.5q-185 0 -285 96t-100 259v585h-240z" />
<glyph unicode="u" d="M182 297v784h230v-755q0 -94 37.5 -136.5t115.5 -42.5q73 0 142 43.5t110 108.5v782h230v-1081h-199l-14 139q-58 -80 -150 -123t-190 -43q-155 0 -233.5 84.5t-78.5 239.5z" />
<glyph unicode="v" d="M98 1081h248l272 -891l277 891h235l-380 -1081h-271z" />
<glyph unicode="w" d="M25 1081h221l110 -909h9l145 772h229l131 -768h9l112 905h213l-176 -1081h-287l-118 741h-9l-125 -741h-282z" />
<glyph unicode="x" d="M88 0l387 569l-344 512h264l221 -381l222 381h252l-338 -501l389 -580h-271l-264 442l-264 -442h-254z" />
<glyph unicode="y" d="M100 1081h244l272 -921l277 921h235l-372 -1085q-66 -198 -190.5 -309t-340.5 -129l-28 172q107 17 174.5 52.5t103.5 84.5t68 133h-78z" />
<glyph unicode="z" d="M186 0v168l576 729h-531v184h803v-168l-571 -729h577l-24 -184h-830z" />
<glyph unicode="{" d="M291 625v184q103 0 152 51t49 160v352q0 190 108.5 266t335.5 76v-170q-112 0 -169.5 -33t-57.5 -116v-375q0 -142 -60.5 -211t-189.5 -92q133 -22 191.5 -89t58.5 -214v-375q0 -83 57.5 -116.5t169.5 -33.5v-170q-226 0 -335 76.5t-109 265.5v353q0 109 -48.5 160 t-152.5 51z" />
<glyph unicode="|" d="M508 -211v1866h211v-1866h-211z" />
<glyph unicode="}" d="M293 -111q112 0 169.5 33.5t57.5 116.5v375q0 147 58.5 213.5t189.5 87.5q-128 24 -188 93.5t-60 211.5v375q0 83 -57.5 116t-169.5 33v170q227 0 335.5 -76t108.5 -266v-352q0 -109 48.5 -160t152.5 -51v-184q-103 0 -152 -51t-49 -160v-353q0 -189 -109 -265.5 t-335 -76.5v170z" />
<glyph unicode="~" d="M72 559q24 48 45.5 84t54 76t66.5 65.5t80.5 42.5t99.5 17q57 0 107.5 -21t86.5 -51t68.5 -60.5t67.5 -51.5t69 -21q106 0 195 168l145 -70q-24 -49 -46.5 -86t-54.5 -76t-66.5 -64.5t-80.5 -41.5t-98 -16q-54 0 -103.5 21t-86 51t-69.5 60t-69 51t-71 21 q-60 0 -105.5 -43t-89.5 -125z" />
<glyph unicode="&#xa0;" />
<glyph unicode="&#xa1;" d="M459 874q0 65 44.5 111.5t108.5 46.5q66 0 112 -46.5t46 -111.5q0 -63 -46 -108t-112 -45q-64 0 -108.5 45t-44.5 108zM485 -410l33 926h191l32 -926h-256z" />
<glyph unicode="&#xa2;" d="M197 535q0 227 104.5 378t296.5 183v309h180v-305q141 -18 256 -113l-108 -143q-109 82 -226 82q-260 0 -260 -391q0 -373 260 -373q59 0 111.5 19.5t114.5 66.5l108 -154q-109 -90 -256 -112v-301h-182v305q-194 30 -296.5 174.5t-102.5 374.5z" />
<glyph unicode="&#xa3;" d="M127 0v176q47 14 79 35t49.5 42t26.5 55.5t11 63t2 77.5v217h-160v139h160v239q0 175 112.5 286.5t307.5 111.5q251 0 387 -189l-148 -110q-46 62 -100.5 89.5t-124.5 27.5q-100 0 -152.5 -57.5t-52.5 -170.5v-227h404v-139h-404v-215q0 -95 -26.5 -160.5t-100.5 -106.5 h682l-26 -184h-926z" />
<glyph unicode="&#xa4;" d="M68 272l176 177q-70 106 -70 251q0 142 68 250l-174 176l125 125l176 -178q104 66 247 66q139 0 246 -66l174 176l125 -125l-172 -172q72 -109 72 -252q0 -142 -74 -254l174 -172l-125 -122l-176 172q-106 -64 -244 -64q-140 0 -249 64l-174 -177zM377 700 q0 -129 61 -198.5t178 -69.5t177.5 69.5t60.5 198.5q0 128 -60.5 198.5t-177.5 70.5t-178 -70.5t-61 -198.5z" />
<glyph unicode="&#xa5;" d="M55 1413h252l309 -622h9l307 622h242l-386 -700h230v-138h-285v-163h285v-138h-285v-274h-235v274h-281v138h281v163h-281v138h221z" />
<glyph unicode="&#xa6;" d="M508 -211v735h211v-735h-211zM508 922v733h211v-733h-211z" />
<glyph unicode="&#xa7;" d="M195 645q0 80 46 146.5t119 111.5q-118 92 -118 227q0 138 115.5 225t293.5 87q200 0 363 -113l-96 -143q-125 84 -269 84q-81 0 -128.5 -35t-47.5 -92q0 -63 47 -99t199 -86q166 -53 239.5 -123.5t73.5 -191.5q0 -82 -45.5 -148.5t-118.5 -111.5q121 -90 121 -225 q0 -142 -115.5 -227t-304.5 -85q-212 0 -368 113l94 150q131 -89 274 -89q85 0 137 33.5t52 91.5q0 63 -47.5 99t-202.5 86q-165 55 -239 125t-74 190zM410 678q0 -78 56.5 -113.5t270.5 -111.5q82 79 82 159q0 73 -58 110.5t-269 113.5q-82 -76 -82 -158z" />
<glyph unicode="&#xa8;" d="M258 1450q0 55 39 92t96 37q56 0 94.5 -37t38.5 -92q0 -56 -38.5 -93.5t-94.5 -37.5q-57 0 -96 37t-39 94zM702 1450q0 55 39 92t95 37q57 0 95 -37t38 -92q0 -57 -38 -94t-95 -37q-56 0 -95 37.5t-39 93.5z" />
<glyph unicode="&#xa9;" d="M43 883q0 137 39 256.5t111 208t181 139.5t242 51q176 0 307 -88t197 -235.5t66 -331.5q0 -183 -66 -330t-197 -235.5t-307 -88.5q-134 0 -243.5 51t-181 140t-110 208t-38.5 255zM180 883q0 -113 27 -208.5t79 -169t137 -115.5t193 -42t192 42t136.5 115.5t79.5 169.5 t27 208q0 113 -27 209.5t-79.5 170.5t-136.5 116t-192 42t-193 -42t-137 -116t-79 -170.5t-27 -209.5zM291 885q0 184 95.5 288.5t242.5 104.5q75 0 129 -20.5t108 -65.5l-82 -109q-71 56 -143 56q-77 0 -124.5 -62t-47.5 -192q0 -126 46 -188t126 -62q88 0 160 65l76 -110 q-105 -98 -246 -98q-155 0 -247.5 103t-92.5 290z" />
<glyph unicode="&#xaa;" d="M195 903q0 138 116.5 213.5t327.5 75.5h115v47q0 77 -46 110t-143 33q-106 0 -246 -47l-55 144q172 63 330 63q360 0 360 -297v-379q0 -79 66 -100l-47 -137q-74 8 -120.5 36t-72.5 83q-51 -58 -122.5 -89.5t-151.5 -31.5q-140 0 -225.5 76t-85.5 200zM213 0v180h819 v-180h-819zM414 911q0 -67 38 -102t109 -35q55 0 106 29.5t87 79.5v172h-97q-128 0 -185.5 -36t-57.5 -108z" />
<glyph unicode="&#xab;" d="M145 518v156l355 436l135 -86l-260 -428l260 -428l-135 -86zM590 518v156l358 436l135 -86l-262 -428l262 -428l-135 -86z" />
<glyph unicode="&#xac;" d="M211 551v186h807v-485h-201v299h-606z" />
<glyph unicode="&#xad;" d="M289 547v188h651v-188h-651z" />
<glyph unicode="&#xae;" d="M78 1001q0 147 71 270.5t194.5 195t270.5 71.5q148 0 271 -71.5t193.5 -195t70.5 -270.5t-70.5 -269.5t-193.5 -192.5t-271 -70q-110 0 -209.5 41.5t-171 112t-113.5 169.5t-42 209zM205 1001q0 -179 116.5 -300t292.5 -121t292 121t116 300q0 180 -116 303t-292 123 t-292.5 -123t-116.5 -303zM406 723v580h176q258 0 258 -177q0 -119 -129 -161l170 -242h-150l-143 219h-56v-219h-126zM532 1042h60q117 0 117 84q0 78 -121 78h-56v-162z" />
<glyph unicode="&#xaf;" d="M324 1370v168h579v-168h-579z" />
<glyph unicode="&#xb0;" d="M139 1212q0 149 103.5 239.5t240.5 90.5q89 0 166.5 -38t127.5 -115.5t50 -178.5q0 -76 -29 -139.5t-77.5 -104.5t-110 -64t-127.5 -23q-65 0 -126.5 23t-110 64t-78 105.5t-29.5 140.5zM315 1212q0 -87 48.5 -135.5t119.5 -48.5q72 0 120 48t48 134q0 87 -48 136 t-120 49q-71 0 -119.5 -48t-48.5 -135z" />
<glyph unicode="&#xb1;" d="M211 0v186h807v-186h-807zM211 623v184h301v311h205v-311h301v-184h-301v-281h-205v281h-301z" />
<glyph unicode="&#xb2;" d="M309 1174q123 141 309 141q131 0 205 -60t74 -155q0 -94 -69 -159.5t-257 -154.5h349l-21 -141h-575v125q243 141 313 198t70 117q0 40 -28 64.5t-77 24.5q-100 0 -174 -89z" />
<glyph unicode="&#xb3;" d="M293 750l108 92q90 -76 209 -76q67 0 101 22.5t34 61.5q0 43 -31.5 62.5t-97.5 19.5h-100l19 104h75q111 0 111 70q0 76 -109 76q-106 0 -202 -70l-95 96q132 107 314 107q129 0 201.5 -49.5t72.5 -132.5q0 -58 -34 -92.5t-109 -47.5q91 -14 131.5 -49t40.5 -106 q0 -93 -86.5 -149t-237.5 -56q-201 0 -315 117z" />
<glyph unicode="&#xb4;" d="M358 1386l402 261l110 -185l-440 -196z" />
<glyph unicode="&#xb5;" d="M164 -440v1521h229v-610q0 -67 2.5 -110t11.5 -85t26 -65t45.5 -37t70.5 -14q144 0 244 145v776h229v-721q0 -172 45 -360l-213 -27q-33 79 -39 168q-48 -76 -120 -122t-148 -46q-73 0 -116 22t-83 81q39 -131 39 -228v-264z" />
<glyph unicode="&#xb6;" d="M68 991q0 187 136 304.5t384 117.5h571v-1831l-201 -22v1681h-206v-1659l-203 -22v1011q-233 9 -357 123t-124 297z" />
<glyph unicode="&#xb7;" d="M416 700q0 82 56.5 140.5t139.5 58.5q84 0 142.5 -58.5t58.5 -140.5q0 -83 -58 -140.5t-143 -57.5q-83 0 -139.5 57.5t-56.5 140.5z" />
<glyph unicode="&#xb8;" d="M367 -453l61 119q72 -35 135 -35q117 0 117 78q0 47 -43.5 63.5t-136.5 16.5l20 244h144v-144q98 -9 148 -59t50 -123q0 -99 -77.5 -157t-194.5 -58q-129 0 -223 55z" />
<glyph unicode="&#xb9;" d="M434 1135l299 168h148v-658h-179v467l-182 -96z" />
<glyph unicode="&#xba;" d="M182 1085q0 202 118 329.5t314 127.5q198 0 314 -125.5t116 -331.5q0 -205 -117 -331.5t-313 -126.5q-198 0 -315 125t-117 333zM205 0v180h821v-180h-821zM397 1085q0 -152 57 -225.5t160 -73.5q215 0 215 299q0 151 -56 224t-159 73t-160 -73t-57 -224z" />
<glyph unicode="&#xbb;" d="M145 168l261 428l-261 428l136 86l354 -436v-156l-354 -436zM590 168l262 428l-262 428l135 86l358 -436v-156l-358 -436z" />
<glyph unicode="&#xbc;" d="M-16 1245l299 168h147v-657h-178v467l-182 -97zM29 498l1095 524l70 -127l-1094 -524zM600 115v112l264 451l154 -57l-223 -373h174l18 170h154v-170h104v-133h-104v-115h-174v115h-367z" />
<glyph unicode="&#xbd;" d="M-23 1245l299 168h148v-657h-178v467l-183 -97zM20 498l1096 524l70 -127l-1094 -524zM639 528q124 142 309 142q132 0 206.5 -60t74.5 -155q0 -94 -69 -159.5t-257 -154.5h346l-20 -141h-574v125q243 142 313 198.5t70 116.5q0 40 -28 64t-78 24q-99 0 -172 -88z" />
<glyph unicode="&#xbe;" d="M-14 860l108 92q89 -75 209 -75q67 0 101 22.5t34 61.5q0 42 -31 61.5t-98 19.5h-100l18 105h76q111 0 111 70q0 75 -109 75q-108 0 -203 -69l-94 96q131 106 314 106q129 0 201.5 -49.5t72.5 -132.5q0 -58 -34 -92t-109 -47q90 -14 131 -49t41 -107q0 -93 -86.5 -149 t-237.5 -56q-201 0 -315 117zM45 498l1096 524l69 -127l-1093 -524zM598 115v112l266 451l152 -57l-221 -373h174l18 170h154v-170h102v-133h-102v-115h-174v115h-369z" />
<glyph unicode="&#xbf;" d="M180 -115q0 67 20.5 120.5t54 88.5t73.5 65.5t79.5 59t73 59.5t54 76.5t20.5 102.5v59h219v-74q0 -69 -19.5 -125t-50.5 -93.5t-69 -69.5t-76 -58.5t-69 -53.5t-50.5 -62.5t-19.5 -77.5q0 -73 59.5 -115.5t153.5 -42.5q73 0 144.5 35.5t131.5 105.5l154 -116 q-178 -211 -453 -211q-197 0 -313.5 96t-116.5 231zM504 874q0 65 44.5 111.5t108.5 46.5q65 0 110.5 -46.5t45.5 -111.5q0 -63 -45 -108t-111 -45q-64 0 -108.5 45t-44.5 108z" />
<glyph unicode="&#xc0;" d="M16 0l451 1413h295l450 -1413h-251l-99 340h-504l-98 -340h-244zM362 1712l105 184l403 -233l-63 -119zM408 524h405l-203 705z" />
<glyph unicode="&#xc1;" d="M16 0l451 1413h295l450 -1413h-251l-99 340h-504l-98 -340h-244zM360 1663l420 229l94 -184l-456 -164zM408 524h405l-203 705z" />
<glyph unicode="&#xc2;" d="M16 0l451 1413h295l450 -1413h-251l-99 340h-504l-98 -340h-244zM260 1653l281 237h147l281 -237l-90 -105l-265 168l-262 -168zM408 524h405l-203 705z" />
<glyph unicode="&#xc3;" d="M16 0l451 1413h295l450 -1413h-251l-99 340h-504l-98 -340h-244zM262 1638q36 87 97.5 143t146.5 56q42 0 79 -15t58 -33t45.5 -33t44.5 -15q32 0 55 21.5t50 68.5l131 -59q-36 -88 -97.5 -144.5t-146.5 -56.5q-52 0 -95 24t-75 48t-57 24q-32 0 -55 -21.5t-50 -68.5z M408 524h405l-203 705z" />
<glyph unicode="&#xc4;" d="M16 0l451 1413h295l450 -1413h-251l-99 340h-504l-98 -340h-244zM260 1700q0 55 39 92t96 37q56 0 94.5 -37t38.5 -92q0 -56 -38.5 -93.5t-94.5 -37.5q-57 0 -96 37t-39 94zM408 524h405l-203 705zM705 1700q0 55 38.5 92t94.5 37q57 0 95 -37t38 -92q0 -57 -38 -94 t-95 -37q-56 0 -94.5 37.5t-38.5 93.5z" />
<glyph unicode="&#xc5;" d="M16 0l451 1413h295l450 -1413h-251l-99 340h-504l-98 -340h-244zM367 1737q0 97 69.5 164t179.5 67t179 -66.5t69 -164.5t-69 -166t-179 -68t-179.5 68t-69.5 166zM408 524h405l-203 705zM512 1737q0 -53 28.5 -83t75.5 -30q48 0 75.5 30t27.5 83q0 52 -27.5 80t-75.5 28 q-47 0 -75.5 -28.5t-28.5 -79.5z" />
<glyph unicode="&#xc6;" d="M-25 0l394 1413h790l-26 -176h-441l90 -432h359v-176h-326l92 -453h334v-176h-514l-63 342h-369l-84 -342h-236zM338 522h291l-133 719z" />
<glyph unicode="&#xc7;" d="M106 709q0 139 32 258t89 205.5t135.5 148t172.5 91.5t198 30q138 0 236 -35.5t190 -108.5l-123 -147q-128 104 -293 104q-82 0 -150 -30t-123 -92.5t-85.5 -170.5t-30.5 -253q0 -143 29.5 -249.5t83 -169.5t123 -93.5t155.5 -30.5q101 0 174 32t146 89l115 -146 q-161 -157 -412 -168v-84q98 -9 148.5 -59t50.5 -123q0 -99 -77.5 -157t-195.5 -58q-129 0 -223 55l61 119q72 -35 136 -35q116 0 116 78q0 47 -43.5 63.5t-136.5 16.5l17 195q-233 38 -374 226.5t-141 498.5z" />
<glyph unicode="&#xc8;" d="M231 0v1413h850l-26 -180h-586v-424h512v-180h-512v-449h625v-180h-863zM403 1712l105 184l403 -233l-63 -119z" />
<glyph unicode="&#xc9;" d="M231 0v1413h850l-26 -180h-586v-424h512v-180h-512v-449h625v-180h-863zM403 1663l420 229l95 -184l-457 -164z" />
<glyph unicode="&#xca;" d="M231 0v1413h850l-26 -180h-586v-424h512v-180h-512v-449h625v-180h-863zM303 1653l281 237h147l281 -237l-90 -105l-265 168l-262 -168z" />
<glyph unicode="&#xcb;" d="M231 0v1413h850l-26 -180h-586v-424h512v-180h-512v-449h625v-180h-863zM301 1700q0 55 39 92t96 37q56 0 94.5 -37t38.5 -92q0 -56 -38.5 -93.5t-94.5 -37.5q-57 0 -96 37t-39 94zM745 1700q0 55 39 92t95 37q57 0 95 -37t38 -92q0 -57 -38 -94t-95 -37q-56 0 -95 37.5 t-39 93.5z" />
<glyph unicode="&#xcc;" d="M188 0v182h306v1049h-306v182h852v-182h-305v-1049h305v-182h-852zM360 1712l105 184l403 -233l-63 -119z" />
<glyph unicode="&#xcd;" d="M188 0v182h306v1049h-306v182h852v-182h-305v-1049h305v-182h-852zM360 1663l420 229l94 -184l-456 -164z" />
<glyph unicode="&#xce;" d="M188 0v182h306v1049h-306v182h852v-182h-305v-1049h305v-182h-852zM260 1653l281 237h147l281 -237l-90 -105l-265 168l-262 -168z" />
<glyph unicode="&#xcf;" d="M188 0v182h306v1049h-306v182h852v-182h-305v-1049h305v-182h-852zM256 1700q0 55 39 92t96 37q56 0 94.5 -37t38.5 -92q0 -56 -38.5 -93.5t-94.5 -37.5q-57 0 -96 37t-39 94zM700 1700q0 55 39 92t95 37q57 0 95 -37t38 -92q0 -57 -38 -94t-95 -37q-56 0 -95 37.5 t-39 93.5z" />
<glyph unicode="&#xd0;" d="M33 643v160h135v610h324q78 0 145.5 -7.5t138.5 -28.5t127.5 -54t107.5 -87.5t85.5 -126t54.5 -171.5t20 -223q0 -170 -39 -299.5t-101 -207t-150.5 -125.5t-176.5 -65.5t-190 -17.5h-346v643h-135zM406 182h133q383 0 383 533q0 130 -22.5 225.5t-58 150.5t-88.5 87.5 t-103 42.5t-113 10h-131v-428h294v-160h-294v-461z" />
<glyph unicode="&#xd1;" d="M145 0v1413h310l442 -1171h8q-11 60 -23 210.5t-12 317.5v643h213v-1413h-311l-440 1167h-8q9 -57 21.5 -216.5t12.5 -309.5v-641h-213zM268 1638q36 87 97.5 143t146.5 56q42 0 79 -15t58 -33t45.5 -33t44.5 -15q32 0 55 21.5t50 68.5l131 -59q-36 -88 -97.5 -144.5 t-146.5 -56.5q-52 0 -95 24t-75 48t-57 24q-32 0 -55 -21.5t-50 -68.5z" />
<glyph unicode="&#xd2;" d="M76 705q0 220 60 384.5t182.5 258.5t295.5 94q260 0 399.5 -197.5t139.5 -537.5q0 -220 -60 -384t-183 -257t-296 -93q-174 0 -296 91t-182 254t-60 387zM324 705q0 -277 70 -412t220 -135q154 0 222.5 135t68.5 414t-68.5 413.5t-222.5 134.5q-153 0 -221.5 -135 t-68.5 -415zM360 1712l105 184l403 -233l-63 -119z" />
<glyph unicode="&#xd3;" d="M76 705q0 220 60 384.5t182.5 258.5t295.5 94q260 0 399.5 -197.5t139.5 -537.5q0 -220 -60 -384t-183 -257t-296 -93q-174 0 -296 91t-182 254t-60 387zM324 705q0 -277 70 -412t220 -135q154 0 222.5 135t68.5 414t-68.5 413.5t-222.5 134.5q-153 0 -221.5 -135 t-68.5 -415zM360 1663l420 229l94 -184l-456 -164z" />
<glyph unicode="&#xd4;" d="M76 705q0 220 60 384.5t182.5 258.5t295.5 94q260 0 399.5 -197.5t139.5 -537.5q0 -220 -60 -384t-183 -257t-296 -93q-174 0 -296 91t-182 254t-60 387zM260 1653l281 237h147l281 -237l-90 -105l-265 168l-262 -168zM324 705q0 -277 70 -412t220 -135q154 0 222.5 135 t68.5 414t-68.5 413.5t-222.5 134.5q-153 0 -221.5 -135t-68.5 -415z" />
<glyph unicode="&#xd5;" d="M76 705q0 220 60 384.5t182.5 258.5t295.5 94q260 0 399.5 -197.5t139.5 -537.5q0 -220 -60 -384t-183 -257t-296 -93q-174 0 -296 91t-182 254t-60 387zM258 1638q36 87 97.5 143t146.5 56q42 0 79 -15t58 -33t45.5 -33t44.5 -15q32 0 55 21.5t50 68.5l131 -59 q-36 -88 -97.5 -144.5t-146.5 -56.5q-52 0 -95 24t-75 48t-57 24q-32 0 -55 -21.5t-50 -68.5zM324 705q0 -277 70 -412t220 -135q154 0 222.5 135t68.5 414t-68.5 413.5t-222.5 134.5q-153 0 -221.5 -135t-68.5 -415z" />
<glyph unicode="&#xd6;" d="M76 705q0 220 60 384.5t182.5 258.5t295.5 94q260 0 399.5 -197.5t139.5 -537.5q0 -220 -60 -384t-183 -257t-296 -93q-174 0 -296 91t-182 254t-60 387zM256 1700q0 55 39 92t96 37q56 0 94.5 -37t38.5 -92q0 -56 -38.5 -93.5t-94.5 -37.5q-57 0 -96 37t-39 94zM324 705 q0 -277 70 -412t220 -135q154 0 222.5 135t68.5 414t-68.5 413.5t-222.5 134.5q-153 0 -221.5 -135t-68.5 -415zM700 1700q0 55 39 92t95 37q57 0 95 -37t38 -92q0 -57 -38 -94t-95 -37q-56 0 -95 37.5t-39 93.5z" />
<glyph unicode="&#xd7;" d="M233 383l248 246l-248 245l136 136l245 -248l246 248l135 -136l-247 -245l247 -246l-135 -133l-246 246l-245 -246z" />
<glyph unicode="&#xd8;" d="M76 705q0 220 60 384.5t182.5 258.5t295.5 94q64 0 123 -15l64 218l180 -52l-74 -241q120 -89 183 -255.5t63 -389.5q0 -220 -60 -384t-183 -257t-296 -93q-57 0 -120 13l-64 -211l-182 51l74 237q-120 89 -183 254t-63 388zM319 705q0 -333 93 -457l288 999 q-42 10 -86 10q-156 0 -225.5 -135t-69.5 -417zM528 168q45 -10 86 -10q156 0 225.5 134.5t69.5 414.5q0 335 -92 458z" />
<glyph unicode="&#xd9;" d="M125 463v950h237v-905q0 -174 60.5 -260t189.5 -86q130 0 191 86t61 260v905h240v-950q0 -219 -131.5 -354.5t-360.5 -135.5q-231 0 -359 133.5t-128 356.5zM360 1712l105 184l403 -233l-63 -119z" />
<glyph unicode="&#xda;" d="M125 463v950h237v-905q0 -174 60.5 -260t189.5 -86q130 0 191 86t61 260v905h240v-950q0 -219 -131.5 -354.5t-360.5 -135.5q-231 0 -359 133.5t-128 356.5zM360 1663l420 229l94 -184l-456 -164z" />
<glyph unicode="&#xdb;" d="M125 463v950h237v-905q0 -174 60.5 -260t189.5 -86q130 0 191 86t61 260v905h240v-950q0 -219 -131.5 -354.5t-360.5 -135.5q-231 0 -359 133.5t-128 356.5zM260 1653l281 237h147l281 -237l-90 -105l-265 168l-262 -168z" />
<glyph unicode="&#xdc;" d="M125 463v950h237v-905q0 -174 60.5 -260t189.5 -86q130 0 191 86t61 260v905h240v-950q0 -219 -131.5 -354.5t-360.5 -135.5q-231 0 -359 133.5t-128 356.5zM256 1700q0 55 39 92t96 37q56 0 94.5 -37t38.5 -92q0 -56 -38.5 -93.5t-94.5 -37.5q-57 0 -96 37t-39 94z M700 1700q0 55 39 92t95 37q57 0 95 -37t38 -92q0 -57 -38 -94t-95 -37q-56 0 -95 37.5t-39 93.5z" />
<glyph unicode="&#xdd;" d="M23 1413h262l333 -670l338 670h250l-471 -872v-541h-241v539zM365 1663l419 229l95 -184l-457 -164z" />
<glyph unicode="&#xde;" d="M182 0v1413h238v-235h168q273 0 420 -112.5t147 -338.5q0 -240 -146.5 -356.5t-404.5 -116.5h-184v-254h-238zM420 434h190q142 0 218.5 66t76.5 223q0 276 -299 276h-186v-565z" />
<glyph unicode="&#xdf;" d="M168 0v1090q0 219 113 335.5t323 116.5q171 0 274 -85.5t103 -219.5q0 -54 -22 -99t-53.5 -75t-62.5 -57t-53 -58.5t-22 -66.5q0 -34 21.5 -64.5t56 -56t76 -52.5t82.5 -61t75.5 -74.5t56 -100t21.5 -130.5q0 -173 -112 -271t-281 -98q-153 0 -262 68l82 156 q75 -43 155 -43q87 0 135 46t48 136q0 50 -20 91.5t-52.5 71.5t-71.5 57t-78.5 55t-72 59.5t-52.5 76.5t-20 99q0 53 21 97.5t51 75.5t60.5 60t51.5 65.5t21 78.5q0 61 -39.5 104t-120.5 43q-102 0 -151.5 -63.5t-49.5 -202.5v-1104h-231z" />
<glyph unicode="&#xe0;" d="M115 309q0 170 133.5 262.5t380.5 92.5h153v69q0 103 -60.5 150t-178.5 47q-130 0 -287 -56l-57 162q196 74 379 74q215 0 323.5 -94.5t108.5 -267.5v-482q0 -63 19 -93t63 -44l-54 -156q-169 19 -223 150q-59 -74 -149.5 -112t-196.5 -38q-163 0 -258.5 92t-95.5 244z M342 1464l109 183l403 -261l-72 -120zM356 317q0 -176 183 -176q72 0 138 38t105 104v237h-127q-299 0 -299 -203z" />
<glyph unicode="&#xe1;" d="M115 309q0 170 133.5 262.5t380.5 92.5h153v69q0 103 -60.5 150t-178.5 47q-130 0 -287 -56l-57 162q196 74 379 74q215 0 323.5 -94.5t108.5 -267.5v-482q0 -63 19 -93t63 -44l-54 -156q-169 19 -223 150q-59 -74 -149.5 -112t-196.5 -38q-163 0 -258.5 92t-95.5 244z M342 1386l401 261l111 -185l-440 -196zM356 317q0 -176 183 -176q72 0 138 38t105 104v237h-127q-299 0 -299 -203z" />
<glyph unicode="&#xe2;" d="M115 309q0 170 133.5 262.5t380.5 92.5h153v69q0 103 -60.5 150t-178.5 47q-130 0 -287 -56l-57 162q196 74 379 74q215 0 323.5 -94.5t108.5 -267.5v-482q0 -63 19 -93t63 -44l-54 -156q-169 19 -223 150q-59 -74 -149.5 -112t-196.5 -38q-163 0 -258.5 92t-95.5 244z M244 1378l280 258h148l280 -258l-92 -104l-260 188l-262 -188zM356 317q0 -176 183 -176q72 0 138 38t105 104v237h-127q-299 0 -299 -203z" />
<glyph unicode="&#xe3;" d="M115 309q0 170 133.5 262.5t380.5 92.5h153v69q0 103 -60.5 150t-178.5 47q-130 0 -287 -56l-57 162q196 74 379 74q215 0 323.5 -94.5t108.5 -267.5v-482q0 -63 19 -93t63 -44l-54 -156q-169 19 -223 150q-59 -74 -149.5 -112t-196.5 -38q-163 0 -258.5 92t-95.5 244z M244 1389q36 87 97 142.5t146 55.5q42 0 79 -15t58.5 -33t46 -33t44.5 -15q32 0 54.5 21t49.5 69l131 -59q-36 -88 -97 -144.5t-146 -56.5q-41 0 -77.5 15t-58.5 33t-47 33t-45 15q-32 0 -54.5 -21.5t-49.5 -68.5zM356 317q0 -176 183 -176q72 0 138 38t105 104v237h-127 q-299 0 -299 -203z" />
<glyph unicode="&#xe4;" d="M115 309q0 170 133.5 262.5t380.5 92.5h153v69q0 103 -60.5 150t-178.5 47q-130 0 -287 -56l-57 162q196 74 379 74q215 0 323.5 -94.5t108.5 -267.5v-482q0 -63 19 -93t63 -44l-54 -156q-169 19 -223 150q-59 -74 -149.5 -112t-196.5 -38q-163 0 -258.5 92t-95.5 244z M242 1450q0 55 39 92t96 37q56 0 94.5 -37t38.5 -92q0 -56 -38.5 -93.5t-94.5 -37.5q-57 0 -96 37t-39 94zM356 317q0 -176 183 -176q72 0 138 38t105 104v237h-127q-299 0 -299 -203zM686 1450q0 55 38.5 92t94.5 37q57 0 95 -37t38 -92q0 -57 -38 -94t-95 -37 q-56 0 -94.5 37.5t-38.5 93.5z" />
<glyph unicode="&#xe5;" d="M115 309q0 170 133.5 262.5t380.5 92.5h153v69q0 103 -60.5 150t-178.5 47q-130 0 -287 -56l-57 162q196 74 379 74q215 0 323.5 -94.5t108.5 -267.5v-482q0 -63 19 -93t63 -44l-54 -156q-169 19 -223 150q-59 -74 -149.5 -112t-196.5 -38q-163 0 -258.5 92t-95.5 244z M348 1487q0 97 70 164t180 67t179 -66.5t69 -164.5t-69 -166t-179 -68t-180 68t-70 166zM356 317q0 -176 183 -176q72 0 138 38t105 104v237h-127q-299 0 -299 -203zM494 1487q0 -53 28.5 -83t75.5 -30q48 0 75 29.5t27 83.5q0 52 -27 80t-75 28q-47 0 -75.5 -28.5 t-28.5 -79.5z" />
<glyph unicode="&#xe6;" d="M-12 309q0 172 109 262.5t321 90.5h88v71q0 213 -184 213q-50 0 -93.5 -12t-111.5 -43l-58 147q157 72 285 72q113 0 180 -43t103 -123q33 78 99 122t159 44q352 0 352 -541q0 -40 -4 -98h-528q14 -169 66 -248.5t151 -79.5q53 0 97 18.5t97 57.5l96 -135 q-134 -111 -299 -111q-207 0 -313 179q-69 -96 -136 -137.5t-167 -41.5q-142 0 -225.5 92t-83.5 244zM205 322q0 -90 35 -138.5t96 -48.5q56 0 100 41t92 129q-22 104 -22 215h-70q-124 0 -177.5 -50.5t-53.5 -147.5zM705 623h335q-3 168 -38.5 244.5t-124.5 76.5 q-83 0 -122.5 -71.5t-49.5 -249.5z" />
<glyph unicode="&#xe7;" d="M170 535q0 253 142.5 414t387.5 161q215 0 375 -129l-106 -150q-131 95 -264 95q-135 0 -213 -97.5t-78 -293.5q0 -192 78.5 -282.5t212.5 -90.5q133 0 266 98l106 -154q-65 -55 -152.5 -89.5t-181.5 -41.5v-86q98 -9 148.5 -59t50.5 -123q0 -99 -77.5 -157t-194.5 -58 q-130 0 -224 55l62 119q72 -35 135 -35q117 0 117 78q0 47 -43.5 63.5t-136.5 16.5l16 193q-203 31 -314.5 177.5t-111.5 375.5z" />
<glyph unicode="&#xe8;" d="M135 541q0 162 58.5 290.5t170.5 203.5t259 75q220 0 346.5 -144.5t126.5 -396.5q0 -62 -6 -102h-717q10 -158 90.5 -236.5t204.5 -78.5q163 0 282 100l101 -143q-76 -64 -179 -100t-215 -36q-249 0 -385.5 154.5t-136.5 413.5zM373 625h499q-3 153 -65 234t-180 81 q-108 0 -176 -79.5t-78 -235.5zM377 1464l108 183l404 -261l-72 -120z" />
<glyph unicode="&#xe9;" d="M135 541q0 162 58.5 290.5t170.5 203.5t259 75q220 0 346.5 -144.5t126.5 -396.5q0 -62 -6 -102h-717q10 -158 90.5 -236.5t204.5 -78.5q163 0 282 100l101 -143q-76 -64 -179 -100t-215 -36q-249 0 -385.5 154.5t-136.5 413.5zM373 625h499q-3 153 -65 234t-180 81 q-108 0 -176 -79.5t-78 -235.5zM377 1386l401 261l111 -185l-440 -196z" />
<glyph unicode="&#xea;" d="M135 541q0 162 58.5 290.5t170.5 203.5t259 75q220 0 346.5 -144.5t126.5 -396.5q0 -62 -6 -102h-717q10 -158 90.5 -236.5t204.5 -78.5q163 0 282 100l101 -143q-76 -64 -179 -100t-215 -36q-249 0 -385.5 154.5t-136.5 413.5zM279 1378l280 258h148l280 -258l-92 -104 l-260 188l-262 -188zM373 625h499q-3 153 -65 234t-180 81q-108 0 -176 -79.5t-78 -235.5z" />
<glyph unicode="&#xeb;" d="M135 541q0 162 58.5 290.5t170.5 203.5t259 75q220 0 346.5 -144.5t126.5 -396.5q0 -62 -6 -102h-717q10 -158 90.5 -236.5t204.5 -78.5q163 0 282 100l101 -143q-76 -64 -179 -100t-215 -36q-249 0 -385.5 154.5t-136.5 413.5zM276 1450q0 55 39.5 92t96.5 37 q56 0 94.5 -37t38.5 -92q0 -56 -38.5 -93.5t-94.5 -37.5q-58 0 -97 37t-39 94zM373 625h499q-3 153 -65 234t-180 81q-108 0 -176 -79.5t-78 -235.5zM721 1450q0 55 38.5 92t94.5 37q57 0 95 -37t38 -92q0 -57 -38 -94t-95 -37q-56 0 -94.5 37.5t-38.5 93.5z" />
<glyph unicode="&#xec;" d="M219 0v168h324v745h-314v168h545v-913h293v-168h-848zM358 1464l109 183l403 -261l-71 -120z" />
<glyph unicode="&#xed;" d="M219 0v168h324v745h-314v168h545v-913h293v-168h-848zM358 1386l402 261l110 -185l-440 -196z" />
<glyph unicode="&#xee;" d="M219 0v168h324v745h-314v168h545v-913h293v-168h-848zM260 1378l281 258h147l281 -258l-92 -104l-261 188l-262 -188z" />
<glyph unicode="&#xef;" d="M219 0v168h324v745h-314v168h545v-913h293v-168h-848zM258 1450q0 55 39 92t96 37q56 0 94.5 -37t38.5 -92q0 -56 -38.5 -93.5t-94.5 -37.5q-57 0 -96 37t-39 94zM702 1450q0 55 39 92t95 37q57 0 95 -37t38 -92q0 -57 -38 -94t-95 -37q-56 0 -95 37.5t-39 93.5z" />
<glyph unicode="&#xf0;" d="M117 481q0 111 35.5 206t95 160t139 101.5t166.5 36.5q184 0 305 -127q-63 237 -248 373l-143 -148l-154 74l148 156q-89 38 -219 63l47 164q183 -31 303 -90l145 154l129 -113l-121 -123q187 -125 276 -326.5t89 -490.5q0 -259 -137 -418.5t-369 -159.5 q-211 0 -349 135.5t-138 372.5zM350 487q0 -166 69 -253t185 -87q130 0 201.5 100.5t71.5 291.5q0 60 -7 139q-94 135 -270 135q-110 0 -180 -82.5t-70 -243.5z" />
<glyph unicode="&#xf1;" d="M182 0v1081h199l16 -139q66 81 159.5 124.5t191.5 43.5q150 0 225.5 -83.5t75.5 -238.5v-788h-230v676q0 146 -30 202t-123 56q-74 0 -139 -45t-115 -115v-774h-230zM260 1380q36 87 97.5 143t146.5 56q42 0 79 -15t58 -33t45.5 -33t44.5 -15q32 0 55 21.5t50 68.5 l131 -60q-36 -88 -97.5 -144t-146.5 -56q-52 0 -95 24t-75 48t-57 24q-32 0 -55 -21.5t-50 -68.5z" />
<glyph unicode="&#xf2;" d="M125 541q0 258 129.5 413.5t361.5 155.5q233 0 360.5 -152.5t127.5 -414.5t-129 -416t-361 -154q-234 0 -361.5 151.5t-127.5 416.5zM358 1464l109 183l403 -261l-71 -120zM367 541q0 -200 61 -295.5t186 -95.5t186.5 96t61.5 297q0 198 -61 293.5t-185 95.5 q-125 0 -187 -95.5t-62 -295.5z" />
<glyph unicode="&#xf3;" d="M125 541q0 258 129.5 413.5t361.5 155.5q233 0 360.5 -152.5t127.5 -414.5t-129 -416t-361 -154q-234 0 -361.5 151.5t-127.5 416.5zM358 1386l402 261l110 -185l-440 -196zM367 541q0 -200 61 -295.5t186 -95.5t186.5 96t61.5 297q0 198 -61 293.5t-185 95.5 q-125 0 -187 -95.5t-62 -295.5z" />
<glyph unicode="&#xf4;" d="M125 541q0 258 129.5 413.5t361.5 155.5q233 0 360.5 -152.5t127.5 -414.5t-129 -416t-361 -154q-234 0 -361.5 151.5t-127.5 416.5zM260 1378l281 258h147l281 -258l-92 -104l-261 188l-262 -188zM367 541q0 -200 61 -295.5t186 -95.5t186.5 96t61.5 297 q0 198 -61 293.5t-185 95.5q-125 0 -187 -95.5t-62 -295.5z" />
<glyph unicode="&#xf5;" d="M125 541q0 258 129.5 413.5t361.5 155.5q233 0 360.5 -152.5t127.5 -414.5t-129 -416t-361 -154q-234 0 -361.5 151.5t-127.5 416.5zM260 1389q36 87 97.5 142.5t146.5 55.5q42 0 79 -15t58 -33t45.5 -33t44.5 -15q32 0 55 21.5t50 68.5l131 -59q-36 -88 -97.5 -144.5 t-146.5 -56.5q-52 0 -95 24t-75 48t-57 24q-32 0 -55 -21.5t-50 -68.5zM367 541q0 -200 61 -295.5t186 -95.5t186.5 96t61.5 297q0 198 -61 293.5t-185 95.5q-125 0 -187 -95.5t-62 -295.5z" />
<glyph unicode="&#xf6;" d="M125 541q0 258 129.5 413.5t361.5 155.5q233 0 360.5 -152.5t127.5 -414.5t-129 -416t-361 -154q-234 0 -361.5 151.5t-127.5 416.5zM258 1450q0 55 39 92t96 37q56 0 94.5 -37t38.5 -92q0 -56 -38.5 -93.5t-94.5 -37.5q-57 0 -96 37t-39 94zM367 541q0 -200 61 -295.5 t186 -95.5t186.5 96t61.5 297q0 198 -61 293.5t-185 95.5q-125 0 -187 -95.5t-62 -295.5zM702 1450q0 55 39 92t95 37q57 0 95 -37t38 -92q0 -57 -38 -94t-95 -37q-56 0 -95 37.5t-39 93.5z" />
<glyph unicode="&#xf7;" d="M211 551v186h807v-186h-807zM459 229q0 64 45 109t110 45q66 0 111 -45.5t45 -108.5q0 -66 -45 -111.5t-111 -45.5t-110.5 45.5t-44.5 111.5zM459 1061q0 63 44.5 108t110.5 45t111 -45t45 -108q0 -65 -45 -110.5t-111 -45.5t-110.5 45.5t-44.5 110.5z" />
<glyph unicode="&#xf8;" d="M125 541q0 258 129.5 413.5t361.5 155.5q46 0 86 -6l78 242l178 -52l-81 -252q109 -69 168 -198t59 -301q0 -262 -129 -416t-361 -154q-41 0 -88 7l-75 -252l-179 53l84 258q-113 68 -172 196.5t-59 305.5zM367 541q0 -247 79 -332l224 721q-32 4 -54 4 q-127 0 -188 -95.5t-61 -297.5zM561 154q32 -4 53 -4q127 0 188.5 95t61.5 298q0 240 -78 327z" />
<glyph unicode="&#xf9;" d="M182 297v784h230v-755q0 -94 37.5 -136.5t115.5 -42.5q73 0 142 43.5t110 108.5v782h230v-1081h-199l-14 139q-58 -80 -150 -123t-190 -43q-155 0 -233.5 84.5t-78.5 239.5zM358 1464l109 183l403 -261l-71 -120z" />
<glyph unicode="&#xfa;" d="M182 297v784h230v-755q0 -94 37.5 -136.5t115.5 -42.5q73 0 142 43.5t110 108.5v782h230v-1081h-199l-14 139q-58 -80 -150 -123t-190 -43q-155 0 -233.5 84.5t-78.5 239.5zM358 1386l402 261l110 -185l-440 -196z" />
<glyph unicode="&#xfb;" d="M182 297v784h230v-755q0 -94 37.5 -136.5t115.5 -42.5q73 0 142 43.5t110 108.5v782h230v-1081h-199l-14 139q-58 -80 -150 -123t-190 -43q-155 0 -233.5 84.5t-78.5 239.5zM260 1378l281 258h147l281 -258l-92 -104l-261 188l-262 -188z" />
<glyph unicode="&#xfc;" d="M182 297v784h230v-755q0 -94 37.5 -136.5t115.5 -42.5q73 0 142 43.5t110 108.5v782h230v-1081h-199l-14 139q-58 -80 -150 -123t-190 -43q-155 0 -233.5 84.5t-78.5 239.5zM258 1450q0 55 39 92t96 37q56 0 94.5 -37t38.5 -92q0 -56 -38.5 -93.5t-94.5 -37.5 q-57 0 -96 37t-39 94zM702 1450q0 55 39 92t95 37q57 0 95 -37t38 -92q0 -57 -38 -94t-95 -37q-56 0 -95 37.5t-39 93.5z" />
<glyph unicode="&#xfd;" d="M100 1081h244l272 -921l277 921h235l-372 -1085q-66 -198 -190.5 -309t-340.5 -129l-28 172q107 17 174.5 52.5t103.5 84.5t68 133h-78zM358 1386l402 261l110 -185l-440 -196z" />
<glyph unicode="&#xfe;" d="M182 -442v1958l230 26v-584q56 73 133.5 112.5t165.5 39.5q393 0 393 -567q0 -167 -46.5 -294t-142 -201.5t-229.5 -74.5q-170 0 -274 119v-508zM412 272q82 -120 213 -120q119 0 178 94.5t59 294.5q0 206 -53 299.5t-162 93.5q-72 0 -131.5 -43.5t-103.5 -112.5v-506z " />
<glyph unicode="&#xff;" d="M100 1081h244l272 -921l277 921h235l-372 -1085q-66 -198 -190.5 -309t-340.5 -129l-28 172q107 17 174.5 52.5t103.5 84.5t68 133h-78zM258 1450q0 55 39 92t96 37q56 0 94.5 -37t38.5 -92q0 -56 -38.5 -93.5t-94.5 -37.5q-57 0 -96 37t-39 94zM702 1450q0 55 39 92 t95 37q57 0 95 -37t38 -92q0 -57 -38 -94t-95 -37q-56 0 -95 37.5t-39 93.5z" />
<glyph unicode="&#x152;" d="M6 705q0 358 108.5 547.5t329.5 189.5q75 0 164 -29h629l-27 -176h-450q97 -136 112 -432h289v-176h-289q-9 -300 -120 -453h495v-176h-645q-86 -27 -158 -27q-438 0 -438 732zM233 705q0 -296 51 -425.5t160 -129.5q115 0 165 129t50 428q0 302 -49 429.5t-166 127.5 q-113 0 -162 -129.5t-49 -429.5z" />
<glyph unicode="&#x153;" d="M-10 541q0 173 36.5 298t118 198t203.5 73q114 0 179.5 -50t103.5 -147q84 197 280 197q342 0 342 -541q0 -55 -6 -98h-516q14 -170 64.5 -249t148.5 -79q51 0 93 18.5t93 57.5l97 -135q-134 -111 -291 -111q-217 0 -309 191q-39 -94 -104.5 -142.5t-174.5 -48.5 q-180 0 -269 149t-89 419zM207 541q0 -212 36.5 -301.5t123.5 -89.5q88 0 122.5 87t34.5 306q0 207 -36 299t-121 92q-87 0 -123.5 -93t-36.5 -300zM731 623h324q-2 168 -35 244.5t-117 76.5q-81 0 -121.5 -72t-50.5 -249z" />
<glyph unicode="&#x178;" d="M23 1413h262l333 -670l338 670h250l-471 -872v-541h-241v539zM264 1700q0 55 39 92t96 37q56 0 94.5 -37t38.5 -92q0 -56 -38.5 -93.5t-94.5 -37.5q-57 0 -96 37t-39 94zM709 1700q0 55 38.5 92t94.5 37q57 0 95 -37t38 -92q0 -57 -38 -94t-95 -37q-56 0 -94.5 37.5 t-38.5 93.5z" />
<glyph unicode="&#x2c6;" d="M260 1378l281 258h147l281 -258l-92 -104l-261 188l-262 -188z" />
<glyph unicode="&#x2dc;" d="M260 1389q36 87 97.5 142.5t146.5 55.5q42 0 79 -15t58 -33t45.5 -33t44.5 -15q32 0 55 21.5t50 68.5l131 -59q-36 -88 -97.5 -144.5t-146.5 -56.5q-52 0 -95 24t-75 48t-57 24q-32 0 -55 -21.5t-50 -68.5z" />
<glyph unicode="&#x2000;" horiz-adv-x="984" />
<glyph unicode="&#x2001;" horiz-adv-x="1968" />
<glyph unicode="&#x2002;" horiz-adv-x="984" />
<glyph unicode="&#x2003;" horiz-adv-x="1968" />
<glyph unicode="&#x2004;" horiz-adv-x="656" />
<glyph unicode="&#x2005;" horiz-adv-x="492" />
<glyph unicode="&#x2006;" horiz-adv-x="328" />
<glyph unicode="&#x2007;" horiz-adv-x="328" />
<glyph unicode="&#x2008;" horiz-adv-x="246" />
<glyph unicode="&#x2009;" horiz-adv-x="393" />
<glyph unicode="&#x200a;" horiz-adv-x="109" />
<glyph unicode="&#x2010;" d="M244 547v188h743v-188h-743z" />
<glyph unicode="&#x2011;" d="M244 547v188h743v-188h-743z" />
<glyph unicode="&#x2012;" d="M244 547v188h743v-188h-743z" />
<glyph unicode="&#x2013;" d="M63 547v188h1104v-188h-1104z" />
<glyph unicode="&#x2014;" d="M0 547v188h1229v-188h-1229z" />
<glyph unicode="&#x2018;" d="M434 1116q0 64 47 166l160 334h154l-86 -371q63 -47 63 -129q0 -69 -49 -116.5t-121 -47.5q-71 0 -119.5 47.5t-48.5 116.5z" />
<glyph unicode="&#x2019;" d="M432 952l86 373q-63 44 -63 127q0 69 49.5 116.5t120.5 47.5t120.5 -47.5t49.5 -116.5q0 -59 -50 -164l-159 -336h-154z" />
<glyph unicode="&#x201a;" d="M432 -373l86 371q-63 47 -63 129q0 68 50 116t120 48q71 0 120.5 -47.5t49.5 -116.5q0 -58 -50 -166l-159 -334h-154z" />
<glyph unicode="&#x201c;" d="M207 1116q0 64 47 166l158 334h153l-84 -371q64 -48 64 -129q0 -69 -49.5 -116.5t-120.5 -47.5q-72 0 -120 47.5t-48 116.5zM664 1116q0 69 45 166l159 334h154l-86 -371q65 -48 65 -129q0 -68 -50 -116t-120 -48q-72 0 -119.5 47.5t-47.5 116.5z" />
<glyph unicode="&#x201d;" d="M205 958l84 371q-62 49 -62 129q0 69 49.5 115.5t120.5 46.5t120.5 -46.5t49.5 -115.5q0 -56 -51 -166l-158 -334h-153zM662 958l86 371q-66 49 -66 129q0 68 50 115t120 47q72 0 121 -46.5t49 -115.5q0 -65 -49 -166l-160 -334h-151z" />
<glyph unicode="&#x201e;" d="M207 -373l86 371q-66 49 -66 129q0 68 50 116t120 48q72 0 121 -47.5t49 -116.5q0 -64 -47 -166l-160 -334h-153zM662 -373l86 371q-66 49 -66 129q0 68 50 116t120 48q72 0 120 -47.5t48 -116.5t-47 -166l-160 -334h-151z" />
<glyph unicode="&#x2022;" d="M348 700q0 114 76 189.5t190 75.5t190.5 -76.5t76.5 -190.5t-76.5 -189t-190.5 -75t-190 76t-76 190z" />
<glyph unicode="&#x2026;" d="M51 123q0 63 44.5 108t107.5 45q64 0 108.5 -45t44.5 -108t-44.5 -107.5t-108.5 -44.5q-63 0 -107.5 44.5t-44.5 107.5zM461 123q0 63 45 108t108 45t107.5 -45t44.5 -108t-44.5 -107.5t-107.5 -44.5t-108 44.5t-45 107.5zM872 123q0 63 44.5 108t107.5 45q64 0 109 -45 t45 -108t-45 -107.5t-109 -44.5q-63 0 -107.5 44.5t-44.5 107.5z" />
<glyph unicode="&#x202f;" horiz-adv-x="393" />
<glyph unicode="&#x2039;" d="M360 518v156l369 436l139 -90l-270 -424l270 -422l-139 -92z" />
<glyph unicode="&#x203a;" d="M360 174l271 422l-271 424l140 90l368 -436v-156l-368 -436z" />
<glyph unicode="&#x205f;" horiz-adv-x="492" />
<glyph unicode="&#x20ac;" d="M70 485l34 142h140l2 172h-176l34 139h160q47 239 190 371.5t347 132.5q108 0 185.5 -24.5t152.5 -74.5l-101 -153q-109 70 -225 70q-127 0 -206 -77.5t-107 -244.5h471l-35 -139h-453v-172h418l-35 -142h-372q25 -172 98.5 -250.5t210.5 -78.5q163 0 287 100v-209 q-138 -74 -302 -74q-221 0 -355 131.5t-173 380.5h-190z" />
<glyph unicode="&#x2122;" d="M6 1278v137h758l100 -547l88 547h217l29 -807h-154l-14 398q-3 147 6 243h-8l-92 -538h-145l-107 538h-8q11 -107 8 -241l-14 -400h-150l27 670h-191v-670h-161v670h-189z" />
<glyph unicode="&#x25fc;" horiz-adv-x="1085" d="M0 0v1085h1085v-1085h-1085z" />
<glyph unicode="&#xfb01;" d="M33 911v170h176v117q0 154 113.5 249t300.5 95q181 0 323 -63l-67 -160q-105 45 -234 45q-108 0 -159.5 -41.5t-51.5 -128.5v-113h602v-913h170v-168h-563v168h166v743h-375v-911h-225v911h-176z" />
<glyph unicode="&#xfb02;" d="M23 911v170h170v117q0 154 114 249t299 95q106 0 207 -37l178 33v-1264q0 -63 24 -88.5t70 -25.5q45 0 97 20l55 -166q-87 -41 -195 -41q-129 0 -202.5 72t-73.5 215v1088q-63 16 -143 16q-104 0 -153.5 -41t-49.5 -129v-113h225l-27 -170h-198v-911h-227v911h-170z" />
</font>
</defs>
</svg>
