<?xml version="1.0" standalone="no"?>
<!DOCTYPE svg PUBLIC "-//W3C//DTD SVG 1.1//EN" "http://www.w3.org/Graphics/SVG/1.1/DTD/svg11.dtd" >
<svg xmlns="http://www.w3.org/2000/svg">
<metadata></metadata>
<defs>
<font id="fira_monoregular" horiz-adv-x="1228" >
<font-face units-per-em="2048" ascent="1608" descent="-440" />
<missing-glyph horiz-adv-x="500" />
<glyph />
<glyph />
<glyph horiz-adv-x="682" />
<glyph unicode="&#xd;" />
<glyph unicode=" " />
<glyph unicode="!" d="M477 115q0 56 38.5 95.5t96.5 39.5t98 -39.5t40 -95.5q0 -59 -40 -98.5t-98 -39.5t-96.5 39.5t-38.5 98.5zM514 1409h191l-17 -944h-153z" />
<glyph unicode="&#x22;" d="M336 1513h215l-33 -532h-149zM678 1513h215l-33 -532h-149z" />
<glyph unicode="#" d="M109 348v131h180l61 455h-166v133h185l45 342h145l-49 -342h303l45 342h146l-50 -342h166v-133h-182l-61 -455h167v-131h-186l-43 -348h-145l45 348h-299l-45 -348h-146l47 348h-163zM434 479h299l62 455h-301z" />
<glyph unicode="$" d="M141 172l103 113q145 -149 325 -162v569q-185 62 -279.5 156.5t-94.5 232.5q0 132 97 231.5t277 117.5v307h140v-307q216 -21 374 -164l-104 -109q-116 110 -270 131v-469q66 -21 119.5 -46t105.5 -62t87.5 -82t57 -107t21.5 -135q0 -153 -101.5 -264.5t-289.5 -136.5 v-299h-140v293q-247 15 -428 192zM377 1083q0 -75 41.5 -125t150.5 -94v420q-89 -16 -140.5 -66.5t-51.5 -134.5zM709 131q206 44 206 254q0 91 -46 151.5t-160 108.5v-514z" />
<glyph unicode="%" d="M39 1104q0 139 81.5 234.5t219.5 95.5q139 0 220 -95.5t81 -234.5q0 -137 -81 -233.5t-220 -96.5q-137 0 -219 96.5t-82 233.5zM66 31l970 1417l109 -72l-973 -1417zM197 1104q0 -98 39.5 -154.5t103.5 -56.5q65 0 104 53t39 158q0 107 -38.5 157t-104.5 50 q-63 0 -103 -53t-40 -154zM590 319q0 138 81.5 233t221.5 95q137 0 218 -95t81 -233q0 -137 -81 -234t-218 -97q-139 0 -221 97t-82 234zM748 319q0 -98 40.5 -154t104.5 -56q65 0 103 52t38 158q0 105 -38 155t-103 50t-105 -51t-40 -154z" />
<glyph unicode="&#x26;" d="M111 399q0 158 83 260t238 134v6q-130 30 -189 109.5t-59 185.5q0 140 106.5 239t280.5 99q99 0 180.5 -33.5t161.5 -120.5l-102 -92q-56 61 -112 89t-130 28q-106 0 -161.5 -57t-55.5 -152t74 -165.5t178 -70.5h570v-133h-183v-559q-148 -189 -426 -189 q-114 0 -203.5 36t-143 96.5t-80.5 134t-27 155.5zM276 406q0 -123 74 -207t221 -84q85 0 154.5 28t110.5 80v502h-256q-76 0 -136.5 -29t-96 -76.5t-53.5 -102t-18 -111.5z" />
<glyph unicode="'" d="M508 1513h213l-31 -532h-151z" />
<glyph unicode="(" d="M338 717q0 98 12.5 189t32.5 164t53.5 147t66 130t80.5 122t86 113t93 112l7.5 9t7 8t7.5 9l109 -73q-66 -82 -102.5 -131t-87.5 -125.5t-79 -141t-56 -148.5t-40 -179t-12 -205q0 -94 10.5 -179t26.5 -153t46 -139t56.5 -121.5t71.5 -116.5t78 -109t88 -112l-109 -74 q-157 189 -216 273q-165 237 -210 491q-20 113 -20 240z" />
<glyph unicode=")" d="M336 -213q55 69 88 112t78 109t71.5 116.5t56.5 121.5t46 139t26.5 153t10.5 179q0 110 -12 205t-40 179t-56 148.5t-79 141t-87.5 125.5t-102.5 131l108 73q157 -188 214 -269q164 -234 211 -483q22 -119 22 -251q0 -98 -12.5 -189t-32.5 -164t-54 -147t-66.5 -130 t-80.5 -122t-86 -113t-93 -113q-15 -17 -22 -26z" />
<glyph unicode="*" d="M197 707l53 163l307 -129l-29 336h172l-30 -336l311 129l51 -163l-323 -74l225 -246l-139 -106l-179 288l-165 -293l-146 97l219 260z" />
<glyph unicode="+" d="M238 565v144h294v305h160v-305h299v-144h-299v-303h-160v303h-294z" />
<glyph unicode="," d="M420 -367l98 404q-67 51 -67 135q0 68 47 116t116 48q70 0 118 -48t48 -116q0 -77 -41 -158l-166 -381h-153z" />
<glyph unicode="-" d="M256 567v148h717v-148h-717z" />
<glyph unicode="." d="M434 158q0 74 51 126t127 52q77 0 129 -52t52 -126q0 -77 -51.5 -129t-129.5 -52q-76 0 -127 52t-51 129z" />
<glyph unicode="/" d="M109 -150l876 1807l135 -66l-874 -1802z" />
<glyph unicode="0" d="M154 707q0 352 117 539.5t343 187.5t343.5 -187.5t117.5 -539.5q0 -354 -117.5 -542t-343.5 -188t-343 188t-117 542zM332 707q0 -592 282 -592q283 0 283 592q0 587 -283 587q-282 0 -282 -587zM481 707q0 56 38 94.5t95 38.5q58 0 97 -38.5t39 -94.5q0 -57 -39 -96.5 t-97 -39.5q-57 0 -95 39.5t-38 96.5z" />
<glyph unicode="1" d="M197 1151l417 258h150v-1270h295v-139h-813v139h348v1086l-324 -195z" />
<glyph unicode="2" d="M121 1231q87 104 189 153.5t241 49.5q195 0 309.5 -111.5t114.5 -284.5q0 -189 -136 -377.5t-495 -515.5h664l-21 -145h-837v139q168 161 273 268.5t183.5 199t117 161t56 132t17.5 134.5q0 119 -67 187.5t-185 68.5q-101 0 -168 -34t-137 -115z" />
<glyph unicode="3" d="M106 164l115 94q58 -69 141.5 -105t172.5 -36q148 0 231.5 78t83.5 211q0 268 -293 268h-119l21 135h84q111 0 189.5 64t78.5 184q0 113 -75.5 176t-192.5 63q-88 0 -157 -31.5t-142 -99.5l-92 105q170 164 399 164q193 0 312.5 -103t119.5 -252q0 -124 -80 -214 t-196 -113q134 -10 227.5 -100.5t93.5 -245.5q0 -185 -136.5 -307t-352.5 -122q-126 0 -241.5 46.5t-191.5 140.5z" />
<glyph unicode="4" d="M147 344v123l416 967l142 -62l-377 -893h407l15 402h149v-402h182v-135h-182v-344h-166v344h-586z" />
<glyph unicode="5" d="M160 145l104 103q128 -131 305 -131q141 0 218 85.5t77 248.5q0 161 -69 232t-185 71q-59 0 -106.5 -11t-114.5 -36h-137v702h745l-26 -135h-557v-447q113 62 243 62q176 0 280.5 -117t104.5 -326q0 -213 -129.5 -341t-345.5 -128q-234 0 -407 168z" />
<glyph unicode="6" d="M164 666q0 355 138.5 561.5t383.5 206.5q152 0 279 -84l-66 -115q-100 59 -215 59q-162 0 -253.5 -152.5t-96.5 -414.5q127 191 340 191q173 0 286 -114t113 -329q0 -228 -126.5 -363t-315.5 -135q-126 0 -217 48t-145 140t-79.5 215.5t-25.5 285.5zM336 578 q5 -241 74.5 -352t220.5 -111q131 0 199.5 93.5t68.5 260.5q0 166 -65 237.5t-185 71.5q-192 0 -313 -200z" />
<glyph unicode="7" d="M201 1268v141h833v-129l-563 -1298l-158 47l549 1239h-661z" />
<glyph unicode="8" d="M135 375q0 236 283 368q-115 54 -170 130t-55 192q0 92 39.5 165.5t102.5 116.5t135 65t144 22q63 0 122.5 -13t114.5 -41.5t95.5 -69.5t65 -101.5t24.5 -133.5q0 -101 -60.5 -176.5t-182.5 -142.5q141 -59 221 -155.5t80 -221.5q0 -176 -132.5 -289t-351.5 -113 q-220 0 -347.5 112.5t-127.5 285.5zM313 375q0 -123 75.5 -191.5t221.5 -68.5q143 0 224 73t81 187q0 67 -22 114.5t-85.5 86.5t-106 56.5t-153.5 56.5q-9 3 -13 5q-101 -46 -161.5 -121t-60.5 -198zM360 1063q0 -30 5 -55.5t17.5 -46.5t24.5 -37t37 -31.5t43.5 -26t55 -24 t60 -21.5t69.5 -22q105 59 150.5 117.5t45.5 150.5q0 108 -67 170.5t-187 62.5t-187 -62.5t-67 -174.5z" />
<glyph unicode="9" d="M137 967q0 219 129 342t326 123q229 0 344 -143t115 -402q0 -151 -18.5 -268t-60 -208.5t-98.5 -158.5t-145.5 -121.5t-188.5 -94t-239 -79.5l-39 129q118 32 208.5 69.5t167.5 89t127 115t78 147t29 185.5q-50 -75 -135.5 -124t-195.5 -50q-179 -3 -291.5 119 t-112.5 330zM313 961q0 -158 66.5 -234t191.5 -74q181 3 306 195q2 165 -29 263.5t-93 139.5t-163 41q-138 0 -208.5 -84t-70.5 -247z" />
<glyph unicode=":" d="M449 143q0 67 47 115.5t116 48.5q70 0 118 -48.5t48 -115.5q0 -71 -48 -118.5t-118 -47.5t-116.5 47.5t-46.5 118.5zM449 883q0 68 46.5 116t116.5 48t118 -48t48 -116q0 -70 -48 -119t-118 -49t-116.5 49t-46.5 119z" />
<glyph unicode=";" d="M416 -369l98 406q-65 49 -65 137q0 68 47 116t116 48q70 0 118 -48t48 -116q0 -75 -39 -160l-168 -383h-155zM449 883q0 68 46.5 116t116.5 48t118 -48t48 -116q0 -70 -48 -119t-118 -49t-116.5 49t-46.5 119z" />
<glyph unicode="&#x3c;" d="M180 555v174l787 488l84 -132l-725 -444l725 -448l-93 -125z" />
<glyph unicode="=" d="M217 369v147h795v-147h-795zM217 758v147h795v-147h-795z" />
<glyph unicode="&#x3e;" d="M180 195l725 446l-725 446l84 130l787 -488v-174l-779 -487z" />
<glyph unicode="?" d="M184 1231q174 203 428 203q181 0 292.5 -95t111.5 -223q0 -66 -20.5 -118.5t-53 -87t-71.5 -64.5t-78.5 -59t-72 -61.5t-53 -81t-20.5 -109.5v-70h-172v80q0 67 20 123t52.5 93.5t71 70.5t77.5 61.5t71.5 58t52.5 68.5t20 86q0 87 -68 135.5t-176 48.5q-76 0 -152.5 -37 t-138.5 -112zM432 115q0 56 38.5 95.5t96.5 39.5t98 -39.5t40 -95.5q0 -59 -39.5 -98.5t-98.5 -39.5q-58 0 -96.5 39.5t-38.5 98.5z" />
<glyph unicode="@" d="M18 1208q260 226 564 226q110 0 200 -26t153 -69.5t110.5 -108.5t76.5 -136t46.5 -160t23.5 -171.5t6 -178.5q0 -135 -5 -236.5t-17.5 -191.5t-34.5 -151t-55 -105.5t-79.5 -65t-107.5 -20.5t-110 31t-76.5 78t-42 95t-13.5 88h-8q-81 -200 -280 -200q-81 0 -141 35 t-96 99t-53.5 148t-17.5 189q0 263 104 394.5t298 131.5q75 0 140 -16t147 -60v-604q0 -81 11 -136t32 -83t45 -39.5t57 -11.5q83 0 110 167q19 114 19 439v23q0 89 -4.5 161.5t-17 147t-33 131.5t-54 108t-79 83.5t-109.5 51.5t-143 19q-253 0 -465 -188zM225 377 q0 -79 8 -139t26.5 -107t51 -71.5t78.5 -24.5q30 0 56 8t44 16.5t36.5 29t27 30t22 36t15 31t12.5 29.5v533q-56 30 -131 30q-136 0 -191 -97t-55 -304z" />
<glyph unicode="A" d="M43 0l459 1409h225l459 -1409h-185l-112 360h-559l-115 -360h-172zM375 506h469l-234 756z" />
<glyph unicode="B" d="M199 0v1409h346q78 0 146.5 -10t134.5 -35.5t112.5 -64.5t75 -101.5t28.5 -142.5q0 -128 -75 -205.5t-187 -101.5q324 -56 324 -347q0 -89 -30.5 -159.5t-80.5 -115t-120 -73.5t-143 -41t-155 -12h-376zM373 145h235q45 0 85.5 5.5t83.5 22.5t73.5 43.5t50 72.5t19.5 106 q0 63 -16 110.5t-43.5 77t-67 48.5t-82.5 26t-95 7h-243v-519zM373 809h229q260 0 260 235q0 224 -276 224h-213v-459z" />
<glyph unicode="C" d="M131 707q0 173 48 313t131 229.5t191.5 137t231.5 47.5q132 0 225.5 -34t182.5 -104l-99 -114q-126 104 -297 104q-91 0 -166 -30.5t-136 -96t-95.5 -181t-34.5 -271.5q0 -154 32.5 -268t92 -181t135.5 -99t170 -32q107 0 183 32t145 87l90 -117q-156 -152 -420 -152 q-130 0 -240.5 48t-193 138t-129.5 230t-47 314z" />
<glyph unicode="D" d="M172 0v1409h299q76 0 141 -7.5t133.5 -28t123.5 -53.5t105 -87t83.5 -125.5t53 -171.5t19.5 -223q0 -171 -39 -301t-100 -206.5t-147.5 -124.5t-170 -64.5t-179.5 -16.5h-322zM346 141h170q66 0 123 14t115 53t98.5 100.5t66 165t25.5 239.5q0 142 -27 246t-67.5 161.5 t-101 92t-114 44t-120.5 9.5h-168v-1125z" />
<glyph unicode="E" d="M258 0v1409h799l-21 -143h-602v-478h522v-145h-522v-502h641v-141h-817z" />
<glyph unicode="F" d="M285 0v1409h829l-22 -143h-633v-496h553v-141h-553v-629h-174z" />
<glyph unicode="G" d="M94 707q0 141 32.5 261t88 205t131 144.5t161 88t177.5 28.5q131 0 222 -37.5t179 -118.5l-106 -111q-126 117 -295 117q-81 0 -150 -30t-127.5 -94.5t-92 -180.5t-33.5 -272q0 -303 94 -442.5t282 -139.5q147 0 271 68v432h-279l-20 145h473v-672q-110 -59 -216 -90 t-243 -31q-257 0 -403 186t-146 544z" />
<glyph unicode="H" d="M172 0v1409h174v-596h537v596h174v-1409h-174v672h-537v-672h-174z" />
<glyph unicode="I" d="M211 0v141h315v1129h-315v139h807v-139h-316v-1129h316v-141h-807z" />
<glyph unicode="J" d="M150 104l77 117q155 -98 308 -98q146 0 226.5 94t80.5 260v789h-418v143h592v-942q0 -74 -14 -141t-48.5 -132.5t-87.5 -113t-137.5 -76.5t-191.5 -29q-217 0 -387 129z" />
<glyph unicode="K" d="M217 0v1409h174v-1409h-174zM401 754l557 655h203l-553 -645l592 -764h-219z" />
<glyph unicode="L" d="M279 0v1409h176v-1251h643l-21 -158h-798z" />
<glyph unicode="M" d="M63 0l80 1409h246l229 -965l220 965h247l80 -1409h-168l-45 739q-12 234 -12 469h-4l-234 -954h-178l-241 954h-9q0 -293 -8 -469l-39 -739h-164z" />
<glyph unicode="N" d="M172 0v1409h238l499 -1212h9q-25 312 -25 505v707h164v-1409h-246l-492 1206h-8q25 -338 25 -497v-709h-164z" />
<glyph unicode="O" d="M96 700q0 162 33.5 295.5t97 231.5t162.5 152.5t225 54.5q168 0 286 -92.5t175.5 -255t57.5 -381.5q0 -217 -57.5 -379t-176 -255.5t-285.5 -93.5q-168 0 -285.5 91t-175 252t-57.5 380zM279 700q0 -575 335 -575q175 0 255.5 145.5t80.5 434.5t-80 434t-256 145 t-255.5 -146.5t-79.5 -437.5z" />
<glyph unicode="P" d="M240 0v1409h356q259 0 402 -108t143 -324q0 -121 -40 -209.5t-114.5 -141t-171 -77.5t-219.5 -25h-182v-524h-174zM414 666h198q162 0 251 69.5t89 239.5q0 295 -334 295h-204v-604z" />
<glyph unicode="Q" d="M94 700q0 217 57.5 380.5t176 258.5t286.5 95t286 -92.5t175.5 -255t57.5 -381.5q0 -486 -281 -652q141 -30 224.5 -106t135.5 -228l-186 -73q-69 175 -163.5 255.5t-268.5 80.5q-239 0 -369.5 193.5t-130.5 524.5zM276 700q0 -575 338 -575q175 0 255.5 145.5 t80.5 434.5q0 288 -80.5 434.5t-255.5 146.5q-176 0 -257 -148t-81 -438z" />
<glyph unicode="R" d="M209 0v1409h360q262 0 396.5 -99t134.5 -294q0 -153 -95 -252.5t-251 -136.5l420 -627h-211l-385 606h-193v-606h-176zM385 743h207q158 0 238.5 65t80.5 208q0 134 -77.5 194t-243.5 60h-205v-527z" />
<glyph unicode="S" d="M90 156l105 118q159 -149 393 -149q137 0 232 68t95 194q0 105 -64.5 164.5t-244.5 112.5q-112 33 -190 67.5t-140.5 82t-93 111.5t-30.5 146q0 159 127 261t329 102q260 0 449 -162l-105 -115q-143 129 -340 129q-122 0 -202 -55t-80 -156q0 -90 76.5 -145.5 t279.5 -114.5q73 -21 127.5 -42.5t111 -56.5t92.5 -78t58.5 -106t22.5 -141q0 -187 -136 -300.5t-378 -113.5q-309 0 -494 179z" />
<glyph unicode="T" d="M82 1260v149h1063l-19 -149h-428v-1260h-174v1260h-442z" />
<glyph unicode="U" d="M150 457v952h174v-960q0 -159 74.5 -239.5t213.5 -80.5q140 0 215.5 80.5t75.5 239.5v960h176v-952q0 -216 -127 -348t-340 -132q-214 0 -338 131.5t-124 348.5z" />
<glyph unicode="V" d="M51 1409h189l378 -1208l383 1208h177l-473 -1409h-181z" />
<glyph unicode="W" d="M10 1409h176l146 -1198h8l168 1034h217l156 -1026h8l168 1190h162l-215 -1409h-232l-158 1034h-8l-160 -1034h-237z" />
<glyph unicode="X" d="M63 0l445 752l-406 657h201l311 -543l312 543h190l-401 -647l450 -762h-202l-353 639l-358 -639h-189z" />
<glyph unicode="Y" d="M49 1409h195l374 -707l379 707h183l-478 -864v-545h-176v543z" />
<glyph unicode="Z" d="M147 0v143l746 1117h-672v149h860v-143l-741 -1114h739l-20 -152h-912z" />
<glyph unicode="[" d="M377 -236v1905h471v-145h-309v-1616h309v-144h-471z" />
<glyph unicode="\" d="M109 1591l135 66l876 -1807l-137 -61z" />
<glyph unicode="]" d="M381 -92h309v1616h-309v145h471v-1905h-471v144z" />
<glyph unicode="^" d="M152 1079l387 639h151l387 -639h-186l-279 488l-278 -488h-182z" />
<glyph unicode="_" d="M-14 -223h1257v-148h-1257v148z" />
<glyph unicode="`" d="M379 1464l90 148l379 -240l-55 -94z" />
<glyph unicode="a" d="M141 309q0 166 130.5 256t375.5 90h158v90q0 113 -65.5 163t-190.5 50q-130 0 -281 -53l-45 127q187 70 350 70q197 0 300.5 -92.5t103.5 -255.5v-521q0 -62 21 -92.5t67 -44.5l-41 -121q-154 20 -197 154q-119 -152 -338 -152q-162 0 -255 90t-93 242zM324 311 q0 -205 208 -205q80 0 153 40.5t120 113.5v279h-156q-172 0 -248.5 -59t-76.5 -169z" />
<glyph unicode="b" d="M207 0v1513l170 21v-596q123 164 307 164q209 0 307.5 -148t98.5 -413q0 -253 -112 -408.5t-316 -155.5q-189 0 -293 136l-13 -113h-149zM377 254q43 -65 107.5 -102t138.5 -37q280 0 280 426q0 424 -256 424q-83 0 -151.5 -49.5t-118.5 -124.5v-537z" />
<glyph unicode="c" d="M188 535q0 163 58.5 290.5t174.5 202t273 74.5q207 0 361 -127l-86 -117q-132 100 -277 100t-232 -108t-87 -315q0 -208 86.5 -310t232.5 -102q153 0 283 102l82 -119q-70 -59 -169.5 -94t-195.5 -35q-239 0 -371.5 150.5t-132.5 407.5z" />
<glyph unicode="d" d="M139 537q0 163 50 290.5t147 201t227 73.5q178 0 289 -129v561l170 -21v-1513h-150l-16 141q-116 -164 -305 -164q-138 0 -232 71.5t-137 195t-43 293.5zM326 539q0 -210 66 -317t194 -107q156 0 266 170v540q-43 65 -107.5 102.5t-138.5 37.5q-136 0 -208 -107t-72 -319 z" />
<glyph unicode="e" d="M162 539q0 247 128 405t335 158q208 0 326 -142t118 -389q0 -46 -4 -92h-725q6 -180 94 -270t221 -90q165 0 289 100l80 -117q-75 -59 -172.5 -92t-196.5 -33q-233 0 -363 153t-130 409zM340 610h565q-3 171 -76 261t-202 90q-121 0 -199 -89.5t-88 -261.5z" />
<glyph unicode="f" d="M193 860v135h258v215q0 146 111 235t280 89q156 0 293 -59l-56 -127q-100 47 -231 47q-227 0 -227 -181v-219h366l-18 -135h-348v-860h-170v860h-258z" />
<glyph unicode="g" d="M135 -109h154q0 -67 24 -105.5t90 -59.5t185 -21q177 0 260.5 44t83.5 134q0 74 -68.5 115t-175.5 41h-192q-133 0 -203 58.5t-70 144.5q0 52 30.5 101t88.5 87q-180 92 -180 297q0 165 119.5 270t310.5 105q185 0 282 21t207 69l54 -162q-106 -31 -316 -31 q189 -86 189 -270q0 -164 -109.5 -266.5t-296.5 -102.5q-88 0 -162 23q-55 -42 -55 -107q0 -90 143 -90h195q163 0 272 -83.5t109 -208.5q0 -158 -134 -243t-380 -85q-170 0 -271 36t-142.5 105.5t-41.5 183.5zM336 727q0 -115 65 -183.5t193 -68.5q114 0 174.5 66.5 t60.5 187.5q0 248 -239 248q-126 0 -190 -68t-64 -182z" />
<glyph unicode="h" d="M207 0v1509l170 21v-600q61 83 153.5 127.5t190.5 44.5q303 0 303 -320v-782h-170v780q0 96 -45 141.5t-141 45.5q-86 0 -165 -54.5t-126 -126.5v-786h-170z" />
<glyph unicode="i" d="M248 0v135h334v809h-324v133h494v-942h303v-135h-807zM492 1462q0 52 33.5 86.5t88.5 34.5q56 0 90.5 -34.5t34.5 -86.5q0 -53 -34.5 -87t-90.5 -34q-55 0 -88.5 34t-33.5 87z" />
<glyph unicode="j" d="M197 -303q100 17 179.5 41t149 62t116 87.5t73 118.5t26.5 154v784h-450v133h620v-907q0 -259 -174 -402.5t-512 -201.5zM629 1462q0 52 34 86.5t89 34.5q56 0 90.5 -34.5t34.5 -86.5q0 -53 -34.5 -87t-90.5 -34q-55 0 -89 34t-34 87z" />
<glyph unicode="k" d="M217 0v1513l170 21v-1534h-170zM408 590l479 487h221l-487 -485l544 -592h-225z" />
<glyph unicode="l" d="M123 1378v135h502v-1249q0 -145 178 -145q87 0 182 37l45 -123q-103 -56 -256 -56q-143 0 -231 79.5t-88 217.5v1104h-332z" />
<glyph unicode="m" d="M104 0v1077h134l10 -125q51 72 105.5 111t129.5 39q152 0 195 -144q49 70 104 107t133 37q209 0 209 -299v-803h-157v774q0 113 -14.5 154t-69.5 41q-105 0 -189 -131v-838h-159v774q0 113 -14.5 154t-69.5 41q-105 0 -189 -131v-838h-158z" />
<glyph unicode="n" d="M207 0v1077h145l13 -149q65 82 162 128t194 46q303 0 303 -320v-782h-170v655q0 73 -3.5 118.5t-14 86t-31 62t-53.5 33.5t-82 12q-89 0 -167 -54t-126 -127v-786h-170z" />
<glyph unicode="o" d="M152 539q0 256 121 409.5t343 153.5q223 0 342 -150.5t119 -410.5q0 -254 -121.5 -409t-341.5 -155q-223 0 -342.5 151t-119.5 411zM334 539q0 -422 280 -422q281 0 281 424q0 422 -279 422q-282 0 -282 -424z" />
<glyph unicode="p" d="M207 -434v1511h143l15 -149q125 174 323 174q105 0 181.5 -39.5t121 -115t65.5 -175.5t21 -231q0 -167 -44.5 -292t-139 -198.5t-231.5 -73.5q-177 0 -285 123v-514zM377 254q42 -63 107 -99t141 -36q136 0 203 103.5t67 318.5q0 214 -60.5 319t-187.5 105 q-83 0 -151.5 -49.5t-118.5 -124.5v-537z" />
<glyph unicode="q" d="M152 537q0 252 107.5 408.5t301.5 156.5q188 0 301 -141l15 116h145v-1511l-170 20v551q-115 -160 -303 -160q-397 0 -397 560zM334 539q0 -420 250 -420q160 0 268 166v540q-42 65 -107 102.5t-141 37.5q-270 0 -270 -426z" />
<glyph unicode="r" d="M193 0v135h251v809h-251v133h399l20 -207q46 113 129 172.5t183 59.5q69 0 141 -17l-31 -167q-70 18 -125 18q-104 0 -184.5 -85.5t-110.5 -205.5v-510h304v-135h-725z" />
<glyph unicode="s" d="M152 123l96 110q139 -116 325 -116q124 0 196.5 47t72.5 125q0 54 -17 86.5t-74.5 63.5t-168.5 59q-73 18 -125.5 35.5t-101 43t-78 56.5t-47 75t-17.5 99q0 134 112.5 214.5t295.5 80.5q231 0 391 -121l-76 -115q-141 97 -311 97q-123 0 -179.5 -38t-56.5 -104 q0 -71 58 -107.5t229 -82.5q86 -23 145 -48t108 -63.5t73 -93.5t24 -129q0 -83 -38 -146t-103.5 -100t-144.5 -55.5t-169 -18.5q-251 0 -419 146z" />
<glyph unicode="t" d="M164 946v131h248v246l170 20v-266h372l-20 -131h-352v-643q0 -93 48 -138.5t158 -45.5t207 51l66 -117q-55 -35 -134 -55.5t-155 -20.5q-169 0 -264.5 89.5t-95.5 234.5v645h-248z" />
<glyph unicode="u" d="M207 293v784h170v-764q0 -105 44 -152.5t138 -47.5q86 0 167 50t126 122v792h170v-1077h-145l-15 145q-61 -80 -154.5 -124t-189.5 -44q-154 0 -232.5 82t-78.5 234z" />
<glyph unicode="v" d="M125 1077h180l313 -921l310 921h176l-393 -1077h-197z" />
<glyph unicode="w" d="M37 1077h174l139 -946h8l164 809h203l154 -805h8l139 942h166l-188 -1077h-242l-139 774h-9l-145 -774h-236z" />
<glyph unicode="x" d="M115 0l399 569l-350 508h201l251 -401l254 401h195l-348 -499l397 -578h-209l-297 463l-299 -463h-194z" />
<glyph unicode="y" d="M127 1077h182l312 -948l305 948h176l-379 -1083q-24 -71 -51.5 -126.5t-68 -109.5t-89.5 -91.5t-118 -64.5t-152 -36l-27 137q82 14 139 38t95.5 63t62.5 83.5t47 112.5h-57z" />
<glyph unicode="z" d="M211 0v129l598 801h-551v147h756v-131l-596 -801h602l-23 -145h-786z" />
<glyph unicode="{" d="M303 649v135q207 0 207 215v394q0 91 32 155t91 98.5t129.5 49t161.5 14.5v-133q-121 0 -187.5 -37.5t-66.5 -126.5v-422q0 -124 -55 -188.5t-164 -85.5q111 -21 165 -83.5t54 -191.5v-422q0 -90 66 -126.5t188 -36.5v-133q-72 0 -130.5 8.5t-113 30t-91 57t-58 91.5 t-21.5 130v391q0 217 -207 217z" />
<glyph unicode="|" d="M537 -209v1862h153v-1862h-153z" />
<glyph unicode="}" d="M305 -143q122 0 188 36.5t66 126.5v422q0 130 53.5 191.5t167.5 81.5q-111 23 -166 87.5t-55 188.5v422q0 89 -66.5 126.5t-187.5 37.5v133q91 0 161.5 -14.5t129.5 -49t91 -98.5t32 -155v-394q0 -215 207 -215v-135q-207 0 -207 -217v-391q0 -74 -21.5 -130t-58 -91.5 t-91 -57t-113 -30t-130.5 -8.5v133z" />
<glyph unicode="~" d="M90 559q26 53 52 92t65.5 81t93.5 64.5t119 22.5q57 0 107.5 -21t85.5 -51t66.5 -60.5t66 -51.5t69.5 -21q107 0 203 174l121 -63q-21 -41 -40 -72t-49.5 -68t-63.5 -61t-79 -40.5t-98 -16.5q-53 0 -101.5 21t-84 51.5t-68.5 60.5t-69 51t-72 21q-61 0 -109.5 -46 t-93.5 -128z" />
<glyph unicode="&#xa0;" />
<glyph unicode="&#xa1;" d="M477 883q0 59 38.5 98t96.5 39q57 0 97.5 -39.5t40.5 -97.5q0 -56 -40.5 -95.5t-97.5 -39.5q-58 0 -96.5 39.5t-38.5 95.5zM514 -403l25 938h147l25 -938h-197z" />
<glyph unicode="&#xa2;" d="M217 535q0 228 102 378t293 177v309h152v-307q138 -16 248 -105l-86 -113q-65 47 -119.5 65.5t-118.5 18.5q-136 0 -211.5 -106.5t-75.5 -316.5t75 -311t212 -101q64 0 120 20.5t120 71.5l84 -121q-106 -89 -248 -106v-301h-154v301q-191 24 -292 168t-101 379z" />
<glyph unicode="&#xa3;" d="M154 0v137q47 15 79.5 37.5t50 44.5t26 57t10.5 61.5t2 72.5v264h-168v119h168v264q0 165 104.5 271t282.5 106q239 0 366 -177l-114 -88q-101 121 -246 121q-109 0 -166 -63.5t-57 -186.5v-247h423v-119h-423v-256q0 -96 -27 -164t-100 -109h694l-21 -145h-884z" />
<glyph unicode="&#xa4;" d="M70 260l182 182q-72 112 -72 258q0 143 70 254l-180 185l110 110l182 -184q111 68 254 68q147 0 250 -68l183 182l110 -110l-178 -181q74 -112 74 -256q0 -142 -76 -260l180 -178l-110 -110l-187 180q-104 -66 -246 -66q-147 0 -254 66l-182 -182zM352 700 q0 -139 68 -216.5t196 -77.5t195.5 77t67.5 217q0 139 -68 217t-195 78t-195.5 -78.5t-68.5 -216.5z" />
<glyph unicode="&#xa5;" d="M82 1409h192l342 -647h9l342 647h180l-397 -702h245v-119h-290v-176h290v-119h-290v-293h-181v293h-286v119h286v176h-286v119h239z" />
<glyph unicode="&#xa6;" d="M537 -209v727h153v-727h-153zM537 926v727h153v-727h-153z" />
<glyph unicode="&#xa7;" d="M217 657q0 77 46.5 143t119.5 111q-121 91 -121 224q0 135 111.5 217t275.5 82q191 0 342 -111l-82 -117q-67 45 -128.5 66.5t-143.5 21.5q-88 0 -142.5 -39.5t-54.5 -105.5q0 -70 49 -109.5t205 -93.5q171 -57 242.5 -125.5t71.5 -185.5q0 -80 -45.5 -146.5 t-118.5 -111.5q123 -91 123 -221q0 -137 -110.5 -217t-285.5 -80q-205 0 -350 112l82 115q127 -88 279 -88q89 0 146.5 39.5t57.5 105.5q0 70 -49 109t-202 90q-173 59 -245.5 127.5t-72.5 187.5zM389 678q0 -82 54.5 -118.5t262.5 -112.5q23 -9 35 -13q99 86 99 178 q0 42 -13 69t-51.5 52t-96 48.5t-159.5 61.5q-21 7 -31 11q-48 -39 -74 -85.5t-26 -90.5z" />
<glyph unicode="&#xa8;" d="M291 1436q0 47 31.5 78.5t78.5 31.5q46 0 78.5 -31.5t32.5 -78.5q0 -46 -32.5 -77.5t-78.5 -31.5q-47 0 -78.5 31.5t-31.5 77.5zM715 1436q0 47 31 78.5t77 31.5q49 0 81 -31.5t32 -78.5q0 -46 -32 -77.5t-81 -31.5q-46 0 -77 31.5t-31 77.5z" />
<glyph unicode="&#xa9;" d="M61 891q0 133 37.5 249t106.5 203t175 137t236 50q128 0 233 -50t174 -137t106.5 -203t37.5 -249q0 -177 -63.5 -319.5t-190.5 -229t-297 -86.5q-129 0 -235 50t-175 136.5t-107 201.5t-38 247zM174 891q0 -151 47.5 -269t149 -190t245.5 -72q108 0 193 41t138.5 114 t81.5 168.5t28 207.5q0 113 -28 209.5t-81.5 170t-138.5 115t-193 41.5q-144 0 -245.5 -73t-149 -192t-47.5 -271zM291 893q0 182 96 284.5t236 102.5q77 0 130 -18.5t109 -61.5l-71 -96q-75 61 -162 61q-86 0 -139.5 -67t-53.5 -205q0 -131 52.5 -197.5t140.5 -66.5 q101 0 178 71l65 -98q-108 -96 -247 -96q-149 0 -241.5 102t-92.5 285z" />
<glyph unicode="&#xaa;" d="M209 901q0 134 117.5 206.5t326.5 72.5h121v63q0 160 -203 160q-109 0 -249 -49l-46 119q161 61 318 61q168 0 254 -75.5t86 -211.5v-405q0 -45 16 -68.5t51 -34.5l-36 -110q-130 15 -170 121q-50 -58 -123 -89.5t-152 -31.5q-140 0 -225.5 74.5t-85.5 197.5zM217 0v154 h803v-154h-803zM381 907q0 -77 46 -117t132 -40q61 0 118 30.5t97 83.5v203h-119q-274 0 -274 -160z" />
<glyph unicode="&#xab;" d="M170 539v123l358 428l103 -66l-277 -422l277 -422l-103 -65zM592 539v123l362 428l103 -66l-277 -422l277 -422l-103 -65z" />
<glyph unicode="&#xac;" d="M238 565v146h753v-435h-155v289h-598z" />
<glyph unicode="&#xad;" d="M295 567v148h639v-148h-639z" />
<glyph unicode="&#xae;" d="M96 1008q0 106 41 202.5t110 166.5t165 111.5t202 41.5t201.5 -41.5t164.5 -111.5t109.5 -166.5t40.5 -202.5q0 -141 -68.5 -260.5t-187.5 -189t-260 -69.5t-260.5 69.5t-188.5 189t-69 260.5zM203 1008q0 -178 117.5 -300t293.5 -122t293 122t117 300 q0 179 -117.5 302.5t-292.5 123.5q-116 0 -210.5 -57t-147.5 -154.5t-53 -214.5zM412 725v578h174q250 0 250 -173q0 -123 -138 -163l176 -242h-135l-153 223h-60v-223h-114zM526 1036h66q62 0 93.5 21.5t31.5 70.5q0 84 -129 84h-62v-176z" />
<glyph unicode="&#xaf;" d="M338 1384v132h551v-132h-551z" />
<glyph unicode="&#xb0;" d="M133 1214q0 145 99 232.5t233 87.5q136 0 234 -87.5t98 -234.5t-97.5 -233t-234.5 -86q-86 0 -160.5 36t-123 111t-48.5 174zM283 1214q0 -97 53.5 -148.5t128.5 -51.5q78 0 131 51t53 147q0 97 -53 149t-131 52q-75 0 -128.5 -51t-53.5 -148z" />
<glyph unicode="&#xb1;" d="M238 0v147h753v-147h-753zM238 651v144h294v305h164v-305h295v-144h-295v-317h-164v317h-294z" />
<glyph unicode="&#xb2;" d="M315 1169q125 146 303 146q128 0 200.5 -59.5t72.5 -157.5q0 -95 -73 -162.5t-273 -167.5h366l-18 -123h-567v107q263 161 323 208q74 58 84 109q2 11 2 23q0 46 -32 73t-89 27q-114 0 -194 -100z" />
<glyph unicode="&#xb3;" d="M301 752l94 77q93 -81 221 -81q77 0 116.5 26t39.5 70q0 51 -36 73.5t-111 22.5h-95l17 88h69q132 0 132 84q0 90 -127 90q-109 0 -215 -78l-78 84q129 107 303 107q124 0 195 -49t71 -133q0 -58 -33 -91.5t-112 -46.5q92 -14 133 -48.5t41 -106.5q0 -94 -84 -150.5 t-232 -56.5q-190 0 -309 119z" />
<glyph unicode="&#xb4;" d="M379 1372l379 236l90 -146l-412 -184z" />
<glyph unicode="&#xb5;" d="M182 -434v1511h170v-604q0 -73 3 -120t13.5 -94t30 -73t53.5 -42.5t83 -16.5q168 0 284 164v786h170v-735q0 -166 58 -342l-160 -25q-16 26 -31 79.5t-20 95.5q-47 -78 -127 -126.5t-162 -48.5q-81 0 -126.5 23t-86.5 82q18 -133 18 -178v-316z" />
<glyph unicode="&#xb6;" d="M88 997q0 181 136 296.5t384 115.5h531v-1821l-156 -22v1702h-231v-1680l-156 -22v1026q-243 0 -375.5 114.5t-132.5 290.5z" />
<glyph unicode="&#xb7;" d="M434 700q0 75 51 127t127 52q78 0 129.5 -51.5t51.5 -127.5q0 -77 -51.5 -128.5t-129.5 -51.5q-76 0 -127 51.5t-51 128.5z" />
<glyph unicode="&#xb8;" d="M381 -438l55 98q64 -33 139 -33q123 0 123 86q0 52 -43.5 70t-134.5 18l19 232h116v-150q94 -8 141.5 -56.5t47.5 -113.5q0 -96 -71.5 -148t-176.5 -52q-131 0 -215 49z" />
<glyph unicode="&#xb9;" d="M479 1128l295 175h115v-658h-141v490l-197 -107z" />
<glyph unicode="&#xba;" d="M197 1083q0 201 114.5 326t302.5 125q190 0 303 -122.5t113 -328.5q0 -202 -114 -328t-302 -126q-190 0 -303.5 124t-113.5 330zM213 0v154h805v-154h-805zM367 1083q0 -162 65 -242.5t182 -80.5t180.5 80.5t63.5 242.5q0 160 -63.5 240t-180.5 80t-182 -80.5t-65 -239.5 z" />
<glyph unicode="&#xbb;" d="M170 180l276 422l-276 422l102 66l359 -428v-123l-359 -424zM592 180l278 422l-278 422l102 66l363 -428v-123l-363 -424z" />
<glyph unicode="&#xbc;" d="M-2 1237l295 174h115v-657h-142v489l-196 -106zM29 485l1095 525l62 -109l-1094 -524zM604 115v98l279 465l123 -51l-236 -391h199l12 176h137v-176h113v-121h-113v-115h-149v115h-365z" />
<glyph unicode="&#xbd;" d="M-8 1237l295 174h114v-657h-141v489l-197 -106zM20 485l1096 525l62 -109l-1094 -524zM641 524q125 146 303 146q130 0 201.5 -59t71.5 -158q0 -95 -73.5 -162.5t-273.5 -167.5h367l-16 -123h-568v106q270 166 340 221.5t70 118.5q0 46 -32.5 73.5t-90.5 27.5 q-112 0 -195 -101z" />
<glyph unicode="&#xbe;" d="M-6 860l94 78q94 -82 221 -82q77 0 116.5 26t39.5 70q0 51 -36.5 74t-111.5 23h-94l17 88h69q131 0 131 84q0 90 -127 90q-109 0 -215 -78l-78 84q128 106 304 106q124 0 195 -49t71 -133q0 -58 -33.5 -91t-112.5 -46q91 -14 132.5 -48.5t41.5 -107.5q0 -94 -83.5 -150.5 t-231.5 -56.5q-190 0 -309 119zM49 485l1096 525l59 -109l-1093 -524zM606 115v98l279 465l125 -51l-236 -391h199l12 176h135v-176h115v-121h-115v-115h-147v115h-367z" />
<glyph unicode="&#xbf;" d="M215 -117q0 66 20.5 118.5t53 87t72 64.5t79.5 59t72.5 61.5t53 81t20.5 108.5v72h170v-80q0 -67 -20 -123t-52 -93.5t-70.5 -70.5t-77.5 -61.5t-71 -58t-52 -68.5t-20 -86q0 -87 68 -136t176 -49q76 0 152.5 37.5t138.5 112.5l121 -90q-177 -203 -431 -203 q-180 0 -291.5 94.5t-111.5 222.5zM528 883q0 59 39 98t97 39q57 0 97 -39.5t40 -97.5q0 -56 -40 -95.5t-97 -39.5q-58 0 -97 39.5t-39 95.5z" />
<glyph unicode="&#xc0;" d="M43 0l459 1409h225l459 -1409h-185l-112 360h-559l-115 -360h-172zM375 506h469l-234 756zM379 1714l94 148l379 -224l-53 -90z" />
<glyph unicode="&#xc1;" d="M43 0l459 1409h225l459 -1409h-185l-112 360h-559l-115 -360h-172zM375 506h469l-234 756zM379 1638l405 215l76 -145l-436 -160z" />
<glyph unicode="&#xc2;" d="M43 0l459 1409h225l459 -1409h-185l-112 360h-559l-115 -360h-172zM281 1645l278 219h115l274 -219l-76 -89l-258 166l-256 -166zM375 506h469l-234 756z" />
<glyph unicode="&#xc3;" d="M43 0l459 1409h225l459 -1409h-185l-112 360h-559l-115 -360h-172zM281 1638q77 172 227 172q52 0 94 -24.5t73 -49t56 -24.5q32 0 55 21.5t50 68.5l110 -49q-79 -174 -227 -174q-40 0 -75.5 15.5t-56.5 34.5t-46 34.5t-45 15.5q-32 0 -55 -21.5t-50 -68.5zM375 506h469 l-234 756z" />
<glyph unicode="&#xc4;" d="M43 0l459 1409h225l459 -1409h-185l-112 360h-559l-115 -360h-172zM291 1679q0 47 31.5 79t78.5 32q46 0 78.5 -32t32.5 -79q0 -45 -32.5 -76.5t-78.5 -31.5q-47 0 -78.5 31t-31.5 77zM375 506h469l-234 756zM715 1679q0 47 31 79t77 32q49 0 81 -31.5t32 -79.5 q0 -46 -32 -77t-81 -31q-46 0 -77 31t-31 77z" />
<glyph unicode="&#xc5;" d="M43 0l459 1409h225l459 -1409h-185l-112 360h-559l-115 -360h-172zM375 506h469l-234 756zM387 1718q0 90 64.5 150.5t162.5 60.5t163 -60.5t65 -150.5q0 -87 -65 -147t-163 -60q-97 0 -162 60t-65 147zM504 1718q0 -54 29.5 -84t80.5 -30q53 0 82 30t29 84q0 55 -29 86 t-82 31q-51 0 -80.5 -31t-29.5 -86z" />
<glyph unicode="&#xc6;" d="M-25 0l414 1409h770l-20 -143h-486l107 -480h381v-143h-355l107 -500h352v-143h-495l-74 360h-420l-100 -360h-181zM303 508h340l-151 764z" />
<glyph unicode="&#xc7;" d="M131 707q0 173 48 313t131 229.5t191.5 137t231.5 47.5q132 0 225.5 -34t182.5 -104l-99 -114q-126 104 -297 104q-91 0 -166 -30.5t-136 -96t-95.5 -181t-34.5 -271.5q0 -154 32.5 -268t92 -181t135.5 -99t170 -32q107 0 183 32t145 87l90 -117q-150 -147 -403 -152v-94 q94 -8 141 -56.5t47 -113.5q0 -96 -71.5 -148t-176.5 -52q-131 0 -215 49l56 98q64 -33 139 -33q123 0 123 86q0 52 -43.5 70t-134.5 18l14 185q-228 37 -367 224t-139 497z" />
<glyph unicode="&#xc8;" d="M258 0v1409h799l-21 -143h-602v-478h522v-145h-522v-502h641v-141h-817zM422 1714l94 148l379 -224l-53 -90z" />
<glyph unicode="&#xc9;" d="M258 0v1409h799l-21 -143h-602v-478h522v-145h-522v-502h641v-141h-817zM422 1638l405 215l76 -145l-436 -160z" />
<glyph unicode="&#xca;" d="M258 0v1409h799l-21 -143h-602v-478h522v-145h-522v-502h641v-141h-817zM324 1645l278 219h115l274 -219l-76 -89l-258 166l-256 -166z" />
<glyph unicode="&#xcb;" d="M258 0v1409h799l-21 -143h-602v-478h522v-145h-522v-502h641v-141h-817zM334 1679q0 47 31.5 79t78.5 32q46 0 78.5 -32t32.5 -79q0 -45 -32.5 -76.5t-78.5 -31.5q-47 0 -78.5 31t-31.5 77zM758 1679q0 47 31 79t77 32q49 0 81 -31.5t32 -79.5q0 -46 -32 -77t-81 -31 q-46 0 -77 31t-31 77z" />
<glyph unicode="&#xcc;" d="M211 0v141h315v1129h-315v139h807v-139h-316v-1129h316v-141h-807zM379 1714l94 148l379 -224l-53 -90z" />
<glyph unicode="&#xcd;" d="M211 0v141h315v1129h-315v139h807v-139h-316v-1129h316v-141h-807zM379 1638l405 215l76 -145l-436 -160z" />
<glyph unicode="&#xce;" d="M211 0v141h315v1129h-315v139h807v-139h-316v-1129h316v-141h-807zM281 1645l278 219h115l274 -219l-76 -89l-258 166l-256 -166z" />
<glyph unicode="&#xcf;" d="M211 0v141h315v1129h-315v139h807v-139h-316v-1129h316v-141h-807zM291 1679q0 47 31.5 79t78.5 32q46 0 78.5 -32t32.5 -79q0 -45 -32.5 -76.5t-78.5 -31.5q-47 0 -78.5 31t-31.5 77zM715 1679q0 47 31 79t77 32q49 0 81 -31.5t32 -79.5q0 -46 -32 -77t-81 -31 q-46 0 -77 31t-31 77z" />
<glyph unicode="&#xd0;" d="M41 655v136h149v618h302q76 0 141 -7.5t133.5 -28t123.5 -53.5t105 -87t83.5 -125.5t53 -171.5t19.5 -223t-20.5 -225.5t-55 -175t-84 -128.5t-104 -90t-120 -56t-126 -30t-127.5 -8h-324v655h-149zM367 141h170q66 0 123 14t114.5 53t97.5 100.5t65.5 165t25.5 239.5 q0 102 -14 185t-36.5 140t-57 99t-70 66.5t-81 39t-84 19t-85.5 4.5h-168v-475h325v-136h-325v-514z" />
<glyph unicode="&#xd1;" d="M172 0v1409h238l499 -1212h9q-25 312 -25 505v707h164v-1409h-246l-492 1206h-8q25 -338 25 -497v-709h-164zM276 1638q77 172 228 172q52 0 94 -24.5t73 -49t56 -24.5q32 0 54.5 21.5t49.5 68.5l111 -49q-79 -174 -227 -174q-40 0 -75.5 15.5t-56.5 34.5t-46 34.5 t-45 15.5q-32 0 -55 -21.5t-50 -68.5z" />
<glyph unicode="&#xd2;" d="M96 700q0 162 33.5 295.5t97 231.5t162.5 152.5t225 54.5q168 0 286 -92.5t175.5 -255t57.5 -381.5q0 -217 -57.5 -379t-176 -255.5t-285.5 -93.5q-168 0 -285.5 91t-175 252t-57.5 380zM279 700q0 -575 335 -575q175 0 255.5 145.5t80.5 434.5t-80 434t-256 145 t-255.5 -146.5t-79.5 -437.5zM379 1714l94 148l379 -224l-53 -90z" />
<glyph unicode="&#xd3;" d="M96 700q0 162 33.5 295.5t97 231.5t162.5 152.5t225 54.5q168 0 286 -92.5t175.5 -255t57.5 -381.5q0 -217 -57.5 -379t-176 -255.5t-285.5 -93.5q-168 0 -285.5 91t-175 252t-57.5 380zM279 700q0 -575 335 -575q175 0 255.5 145.5t80.5 434.5t-80 434t-256 145 t-255.5 -146.5t-79.5 -437.5zM379 1638l405 215l76 -145l-436 -160z" />
<glyph unicode="&#xd4;" d="M96 700q0 162 33.5 295.5t97 231.5t162.5 152.5t225 54.5q168 0 286 -92.5t175.5 -255t57.5 -381.5q0 -217 -57.5 -379t-176 -255.5t-285.5 -93.5q-168 0 -285.5 91t-175 252t-57.5 380zM279 700q0 -575 335 -575q175 0 255.5 145.5t80.5 434.5t-80 434t-256 145 t-255.5 -146.5t-79.5 -437.5zM281 1645l278 219h115l274 -219l-76 -89l-258 166l-256 -166z" />
<glyph unicode="&#xd5;" d="M96 700q0 162 33.5 295.5t97 231.5t162.5 152.5t225 54.5q168 0 286 -92.5t175.5 -255t57.5 -381.5q0 -217 -57.5 -379t-176 -255.5t-285.5 -93.5q-168 0 -285.5 91t-175 252t-57.5 380zM279 700q0 -575 335 -575q175 0 255.5 145.5t80.5 434.5t-80 434t-256 145 t-255.5 -146.5t-79.5 -437.5zM281 1638q77 172 227 172q52 0 94 -24.5t73 -49t56 -24.5q32 0 55 21.5t50 68.5l110 -49q-79 -174 -227 -174q-40 0 -75.5 15.5t-56.5 34.5t-46 34.5t-45 15.5q-32 0 -55 -21.5t-50 -68.5z" />
<glyph unicode="&#xd6;" d="M96 700q0 162 33.5 295.5t97 231.5t162.5 152.5t225 54.5q168 0 286 -92.5t175.5 -255t57.5 -381.5q0 -217 -57.5 -379t-176 -255.5t-285.5 -93.5q-168 0 -285.5 91t-175 252t-57.5 380zM279 700q0 -575 335 -575q175 0 255.5 145.5t80.5 434.5t-80 434t-256 145 t-255.5 -146.5t-79.5 -437.5zM291 1679q0 47 31.5 79t78.5 32q46 0 78.5 -32t32.5 -79q0 -45 -32.5 -76.5t-78.5 -31.5q-47 0 -78.5 31t-31.5 77zM715 1679q0 47 31 79t77 32q49 0 81 -31.5t32 -79.5q0 -46 -32 -77t-81 -31q-46 0 -77 31t-31 77z" />
<glyph unicode="&#xd7;" d="M256 377l252 252l-252 252l106 108l252 -254l252 254l107 -108l-252 -252l252 -252l-107 -107l-252 252l-252 -252z" />
<glyph unicode="&#xd8;" d="M96 700q0 162 33.5 295.5t97 231.5t162.5 152.5t225 54.5q64 0 134 -17l65 228l154 -39l-80 -254q120 -87 183 -254.5t63 -392.5q0 -217 -57.5 -379t-176 -255.5t-285.5 -93.5q-61 0 -131 17l-65 -219l-152 39l76 245q-121 86 -183.5 251t-62.5 390zM281 700 q0 -379 122 -501l310 1073q-43 12 -99 12q-174 0 -253.5 -146.5t-79.5 -437.5zM514 137q46 -12 100 -12q175 0 254.5 145t79.5 435q0 199 -30 322t-95 185z" />
<glyph unicode="&#xd9;" d="M150 457v952h174v-960q0 -159 74.5 -239.5t213.5 -80.5q140 0 215.5 80.5t75.5 239.5v960h176v-952q0 -216 -127 -348t-340 -132q-214 0 -338 131.5t-124 348.5zM379 1714l94 148l379 -224l-53 -90z" />
<glyph unicode="&#xda;" d="M150 457v952h174v-960q0 -159 74.5 -239.5t213.5 -80.5q140 0 215.5 80.5t75.5 239.5v960h176v-952q0 -216 -127 -348t-340 -132q-214 0 -338 131.5t-124 348.5zM379 1638l405 215l76 -145l-436 -160z" />
<glyph unicode="&#xdb;" d="M150 457v952h174v-960q0 -159 74.5 -239.5t213.5 -80.5q140 0 215.5 80.5t75.5 239.5v960h176v-952q0 -216 -127 -348t-340 -132q-214 0 -338 131.5t-124 348.5zM281 1645l278 219h115l274 -219l-76 -89l-258 166l-256 -166z" />
<glyph unicode="&#xdc;" d="M150 457v952h174v-960q0 -159 74.5 -239.5t213.5 -80.5q140 0 215.5 80.5t75.5 239.5v960h176v-952q0 -216 -127 -348t-340 -132q-214 0 -338 131.5t-124 348.5zM291 1679q0 47 31.5 79t78.5 32q46 0 78.5 -32t32.5 -79q0 -45 -32.5 -76.5t-78.5 -31.5q-47 0 -78.5 31 t-31.5 77zM715 1679q0 47 31 79t77 32q49 0 81 -31.5t32 -79.5q0 -46 -32 -77t-81 -31q-46 0 -77 31t-31 77z" />
<glyph unicode="&#xdd;" d="M49 1409h195l374 -707l379 707h183l-478 -864v-545h-176v543zM385 1638l406 215l75 -145l-436 -160z" />
<glyph unicode="&#xde;" d="M221 0v1409h174v-238h205q259 0 398 -110t139 -334q0 -121 -39.5 -211.5t-112.5 -145.5t-169.5 -81.5t-217.5 -26.5h-203v-262h-174zM395 403h228q76 0 133.5 15.5t103 51t69 99t23.5 154.5q0 159 -88 234t-243 75h-226v-629z" />
<glyph unicode="&#xdf;" d="M197 0v1092q0 215 108 328.5t303 113.5q157 0 256 -82.5t99 -212.5q0 -56 -24 -101.5t-58.5 -76t-69 -58t-58.5 -58.5t-24 -66q0 -36 23 -68t59.5 -57.5t80.5 -52.5t88 -60.5t80.5 -73t59.5 -97.5t23 -128q0 -87 -30.5 -157t-83.5 -115t-122 -69t-147 -24q-152 0 -264 70 l69 117q86 -49 180 -49q105 0 164.5 55t59.5 162q0 53 -22.5 97.5t-58.5 76t-79.5 59.5t-87 57t-79.5 60.5t-58.5 76.5t-22.5 99q0 46 18 84.5t44.5 63t57.5 51t57.5 48t44.5 52.5t18 66q0 31 -10 59.5t-31 55.5t-61 43t-93 16q-119 0 -179 -69t-60 -224v-1104h-170z" />
<glyph unicode="&#xe0;" d="M141 309q0 166 130.5 256t375.5 90h158v90q0 113 -65.5 163t-190.5 50q-130 0 -281 -53l-45 127q187 70 350 70q197 0 300.5 -92.5t103.5 -255.5v-521q0 -62 21 -92.5t67 -44.5l-41 -121q-154 20 -197 154q-119 -152 -338 -152q-162 0 -255 90t-93 242zM324 311 q0 -205 208 -205q80 0 153 40.5t120 113.5v279h-156q-172 0 -248.5 -59t-76.5 -169zM362 1464l91 148l378 -240l-55 -94z" />
<glyph unicode="&#xe1;" d="M141 309q0 166 130.5 256t375.5 90h158v90q0 113 -65.5 163t-190.5 50q-130 0 -281 -53l-45 127q187 70 350 70q197 0 300.5 -92.5t103.5 -255.5v-521q0 -62 21 -92.5t67 -44.5l-41 -121q-154 20 -197 154q-119 -152 -338 -152q-162 0 -255 90t-93 242zM324 311 q0 -205 208 -205q80 0 153 40.5t120 113.5v279h-156q-172 0 -248.5 -59t-76.5 -169zM362 1372l379 236l90 -146l-411 -184z" />
<glyph unicode="&#xe2;" d="M141 309q0 166 130.5 256t375.5 90h158v90q0 113 -65.5 163t-190.5 50q-130 0 -281 -53l-45 127q187 70 350 70q197 0 300.5 -92.5t103.5 -255.5v-521q0 -62 21 -92.5t67 -44.5l-41 -121q-154 20 -197 154q-119 -152 -338 -152q-162 0 -255 90t-93 242zM264 1372l279 244 h114l275 -244l-78 -84l-254 187l-254 -187zM324 311q0 -205 208 -205q80 0 153 40.5t120 113.5v279h-156q-172 0 -248.5 -59t-76.5 -169z" />
<glyph unicode="&#xe3;" d="M141 309q0 166 130.5 256t375.5 90h158v90q0 113 -65.5 163t-190.5 50q-130 0 -281 -53l-45 127q187 70 350 70q197 0 300.5 -92.5t103.5 -255.5v-521q0 -62 21 -92.5t67 -44.5l-41 -121q-154 20 -197 154q-119 -152 -338 -152q-162 0 -255 90t-93 242zM264 1395 q77 172 228 172q41 0 77 -15.5t56.5 -34t45 -34t44.5 -15.5q31 0 53.5 21.5t50.5 69.5l111 -50q-79 -174 -228 -174q-50 0 -92.5 25.5t-74 50.5t-56.5 25q-32 0 -54.5 -21.5t-49.5 -68.5zM324 311q0 -205 208 -205q80 0 153 40.5t120 113.5v279h-156q-172 0 -248.5 -59 t-76.5 -169z" />
<glyph unicode="&#xe4;" d="M141 309q0 166 130.5 256t375.5 90h158v90q0 113 -65.5 163t-190.5 50q-130 0 -281 -53l-45 127q187 70 350 70q197 0 300.5 -92.5t103.5 -255.5v-521q0 -62 21 -92.5t67 -44.5l-41 -121q-154 20 -197 154q-119 -152 -338 -152q-162 0 -255 90t-93 242zM274 1436 q0 47 32 78.5t79 31.5q46 0 78.5 -31.5t32.5 -78.5q0 -46 -32.5 -77.5t-78.5 -31.5q-47 0 -79 31.5t-32 77.5zM324 311q0 -205 208 -205q80 0 153 40.5t120 113.5v279h-156q-172 0 -248.5 -59t-76.5 -169zM698 1436q0 47 31.5 78.5t77.5 31.5q49 0 81 -31.5t32 -78.5 q0 -46 -32 -77.5t-81 -31.5q-46 0 -77.5 31.5t-31.5 77.5z" />
<glyph unicode="&#xe5;" d="M141 309q0 166 130.5 256t375.5 90h158v90q0 113 -65.5 163t-190.5 50q-130 0 -281 -53l-45 127q187 70 350 70q197 0 300.5 -92.5t103.5 -255.5v-521q0 -62 21 -92.5t67 -44.5l-41 -121q-154 20 -197 154q-119 -152 -338 -152q-162 0 -255 90t-93 242zM324 311 q0 -205 208 -205q80 0 153 40.5t120 113.5v279h-156q-172 0 -248.5 -59t-76.5 -169zM371 1475q0 90 64.5 150.5t162.5 60.5t162.5 -60.5t64.5 -150.5q0 -87 -65 -147t-162 -60t-162 60t-65 147zM487 1475q0 -54 30 -84.5t81 -30.5q52 0 81.5 30.5t29.5 84.5q0 55 -29 85.5 t-82 30.5q-52 0 -81.5 -30.5t-29.5 -85.5z" />
<glyph unicode="&#xe6;" d="M-12 309q0 168 112 257t326 89h94v90q0 213 -186 213q-53 0 -98.5 -12t-116.5 -43l-45 129q147 70 276 70q117 0 182.5 -46t100.5 -134q28 85 94.5 132.5t163.5 47.5q178 0 265 -138t87 -393q0 -44 -4 -94h-553q14 -185 69.5 -270.5t162.5 -85.5q56 0 101 19t103 61 l78 -117q-133 -107 -285 -107q-197 0 -303 183q-73 -98 -143 -140.5t-170 -42.5q-142 0 -226.5 90.5t-84.5 241.5zM172 319q0 -102 41.5 -156t110.5 -54q66 0 116 46.5t109 151.5q-29 99 -29 232h-88q-140 0 -200 -57.5t-60 -162.5zM686 610h389q-3 178 -45.5 263t-144.5 85 q-94 0 -140 -78.5t-59 -269.5z" />
<glyph unicode="&#xe7;" d="M188 535q0 163 58.5 290.5t174.5 202t273 74.5q207 0 361 -127l-86 -117q-132 100 -277 100t-232 -108t-87 -315q0 -208 86.5 -310t232.5 -102q153 0 283 102l82 -119q-61 -53 -147 -85.5t-175 -40.5v-97q94 -8 141.5 -56.5t47.5 -113.5q0 -96 -71.5 -148t-176.5 -52 q-131 0 -215 49l55 98q64 -33 139 -33q123 0 123 86q0 52 -43.5 70t-134.5 18l14 181q-202 25 -314 172t-112 381z" />
<glyph unicode="&#xe8;" d="M162 539q0 247 128 405t335 158q208 0 326 -142t118 -389q0 -46 -4 -92h-725q6 -180 94 -270t221 -90q165 0 289 100l80 -117q-75 -59 -172.5 -92t-196.5 -33q-233 0 -363 153t-130 409zM340 610h565q-3 171 -76 261t-202 90q-121 0 -199 -89.5t-88 -261.5zM399 1464 l90 148l379 -240l-55 -94z" />
<glyph unicode="&#xe9;" d="M162 539q0 247 128 405t335 158q208 0 326 -142t118 -389q0 -46 -4 -92h-725q6 -180 94 -270t221 -90q165 0 289 100l80 -117q-75 -59 -172.5 -92t-196.5 -33q-233 0 -363 153t-130 409zM340 610h565q-3 171 -76 261t-202 90q-121 0 -199 -89.5t-88 -261.5zM399 1372 l379 236l90 -146l-411 -184z" />
<glyph unicode="&#xea;" d="M162 539q0 247 128 405t335 158q208 0 326 -142t118 -389q0 -46 -4 -92h-725q6 -180 94 -270t221 -90q165 0 289 100l80 -117q-75 -59 -172.5 -92t-196.5 -33q-233 0 -363 153t-130 409zM301 1372l279 244h114l275 -244l-78 -84l-254 187l-254 -187zM340 610h565 q-3 171 -76 261t-202 90q-121 0 -199 -89.5t-88 -261.5z" />
<glyph unicode="&#xeb;" d="M162 539q0 247 128 405t335 158q208 0 326 -142t118 -389q0 -46 -4 -92h-725q6 -180 94 -270t221 -90q165 0 289 100l80 -117q-75 -59 -172.5 -92t-196.5 -33q-233 0 -363 153t-130 409zM311 1436q0 47 32 78.5t79 31.5q46 0 78 -31.5t32 -78.5q0 -46 -32 -77.5 t-78 -31.5q-47 0 -79 31.5t-32 77.5zM340 610h565q-3 171 -76 261t-202 90q-121 0 -199 -89.5t-88 -261.5zM735 1436q0 47 31.5 78.5t77.5 31.5q49 0 80.5 -31t31.5 -79q0 -46 -31.5 -77.5t-80.5 -31.5q-46 0 -77.5 31.5t-31.5 77.5z" />
<glyph unicode="&#xec;" d="M248 0v135h334v809h-324v133h494v-942h303v-135h-807zM381 1464l90 148l379 -240l-55 -94z" />
<glyph unicode="&#xed;" d="M248 0v135h334v809h-324v133h494v-942h303v-135h-807zM381 1372l379 236l90 -146l-412 -184z" />
<glyph unicode="&#xee;" d="M248 0v135h334v809h-324v133h494v-942h303v-135h-807zM283 1372l278 244h115l274 -244l-78 -84l-254 187l-253 -187z" />
<glyph unicode="&#xef;" d="M248 0v135h334v809h-324v133h494v-942h303v-135h-807zM293 1436q0 47 31.5 78.5t78.5 31.5q46 0 78.5 -31.5t32.5 -78.5q0 -46 -32.5 -77.5t-78.5 -31.5q-47 0 -78.5 31.5t-31.5 77.5zM717 1436q0 47 31 78.5t77 31.5q49 0 81 -31.5t32 -78.5q0 -46 -32 -77.5t-81 -31.5 q-46 0 -77 31.5t-31 77.5z" />
<glyph unicode="&#xf0;" d="M137 481q0 111 35.5 206t95 160t139 101.5t166.5 36.5q202 0 324 -141q-27 128 -96 232.5t-170 178.5l-162 -165l-121 61l166 174q-97 47 -240 74l37 135q200 -45 307 -102l142 151l104 -90l-127 -131q181 -126 267 -327t86 -496q0 -257 -132.5 -409.5t-353.5 -152.5 q-201 0 -334 134.5t-133 369.5zM311 489q0 -178 80 -276t211 -98q148 0 232 111t84 321q0 60 -7 135q-52 81 -134 123.5t-183 42.5q-122 0 -202.5 -91t-80.5 -268z" />
<glyph unicode="&#xf1;" d="M207 0v1077h145l13 -149q65 82 162 128t194 46q303 0 303 -320v-782h-170v655q0 73 -3.5 118.5t-14 86t-31 62t-53.5 33.5t-82 12q-89 0 -167 -54t-126 -127v-786h-170zM281 1399q77 172 227 172q52 0 94 -24.5t73 -49t56 -24.5q32 0 55 21.5t50 68.5l110 -50 q-79 -174 -227 -174q-50 0 -92.5 25.5t-74 50.5t-56.5 25q-32 0 -55 -21.5t-50 -68.5z" />
<glyph unicode="&#xf2;" d="M152 539q0 256 121 409.5t343 153.5q223 0 342 -150.5t119 -410.5q0 -254 -121.5 -409t-341.5 -155q-223 0 -342.5 151t-119.5 411zM334 539q0 -422 280 -422q281 0 281 424q0 422 -279 422q-282 0 -282 -424zM379 1464l90 148l379 -240l-55 -94z" />
<glyph unicode="&#xf3;" d="M152 539q0 256 121 409.5t343 153.5q223 0 342 -150.5t119 -410.5q0 -254 -121.5 -409t-341.5 -155q-223 0 -342.5 151t-119.5 411zM334 539q0 -422 280 -422q281 0 281 424q0 422 -279 422q-282 0 -282 -424zM379 1372l379 236l90 -146l-412 -184z" />
<glyph unicode="&#xf4;" d="M152 539q0 256 121 409.5t343 153.5q223 0 342 -150.5t119 -410.5q0 -254 -121.5 -409t-341.5 -155q-223 0 -342.5 151t-119.5 411zM281 1372l278 244h115l274 -244l-78 -84l-254 187l-254 -187zM334 539q0 -422 280 -422q281 0 281 424q0 422 -279 422q-282 0 -282 -424 z" />
<glyph unicode="&#xf5;" d="M152 539q0 256 121 409.5t343 153.5q223 0 342 -150.5t119 -410.5q0 -254 -121.5 -409t-341.5 -155q-223 0 -342.5 151t-119.5 411zM281 1395q77 172 227 172q41 0 77 -15.5t56.5 -34t45 -34t44.5 -15.5q32 0 55 22t50 69l110 -50q-79 -174 -227 -174q-50 0 -92.5 25.5 t-74 50.5t-56.5 25q-32 0 -55 -21.5t-50 -68.5zM334 539q0 -422 280 -422q281 0 281 424q0 422 -279 422q-282 0 -282 -424z" />
<glyph unicode="&#xf6;" d="M152 539q0 256 121 409.5t343 153.5q223 0 342 -150.5t119 -410.5q0 -254 -121.5 -409t-341.5 -155q-223 0 -342.5 151t-119.5 411zM291 1436q0 47 31.5 78.5t78.5 31.5q46 0 78.5 -31.5t32.5 -78.5q0 -46 -32.5 -77.5t-78.5 -31.5q-47 0 -78.5 31.5t-31.5 77.5zM334 539 q0 -422 280 -422q281 0 281 424q0 422 -279 422q-282 0 -282 -424zM715 1436q0 47 31 78.5t77 31.5q49 0 81 -31.5t32 -78.5q0 -46 -32 -77.5t-81 -31.5q-46 0 -77 31.5t-31 77.5z" />
<glyph unicode="&#xf7;" d="M238 565v146h753v-146h-753zM477 238q0 57 40 97t97 40t97.5 -40t40.5 -97t-40.5 -97.5t-97.5 -40.5t-97 40.5t-40 97.5zM477 1040q0 56 40 96t97 40t97.5 -40t40.5 -96q0 -58 -40 -96.5t-98 -38.5t-97.5 38.5t-39.5 96.5z" />
<glyph unicode="&#xf8;" d="M152 539q0 256 121 409.5t343 153.5q46 0 101 -10l78 247l143 -41l-84 -258q107 -66 165 -195t58 -304q0 -254 -121.5 -409t-341.5 -155q-42 0 -102 11l-76 -254l-143 41l86 264q-109 66 -168 195t-59 305zM334 539q0 -275 108 -367l242 782q-35 7 -68 7 q-282 0 -282 -422zM547 123q30 -6 67 -6q281 0 281 424q0 269 -107 362z" />
<glyph unicode="&#xf9;" d="M207 293v784h170v-764q0 -105 44 -152.5t138 -47.5q86 0 167 50t126 122v792h170v-1077h-145l-15 145q-61 -80 -154.5 -124t-189.5 -44q-154 0 -232.5 82t-78.5 234zM379 1464l90 148l379 -240l-55 -94z" />
<glyph unicode="&#xfa;" d="M207 293v784h170v-764q0 -105 44 -152.5t138 -47.5q86 0 167 50t126 122v792h170v-1077h-145l-15 145q-61 -80 -154.5 -124t-189.5 -44q-154 0 -232.5 82t-78.5 234zM379 1372l379 236l90 -146l-412 -184z" />
<glyph unicode="&#xfb;" d="M207 293v784h170v-764q0 -105 44 -152.5t138 -47.5q86 0 167 50t126 122v792h170v-1077h-145l-15 145q-61 -80 -154.5 -124t-189.5 -44q-154 0 -232.5 82t-78.5 234zM281 1372l278 244h115l274 -244l-78 -84l-254 187l-254 -187z" />
<glyph unicode="&#xfc;" d="M207 293v784h170v-764q0 -105 44 -152.5t138 -47.5q86 0 167 50t126 122v792h170v-1077h-145l-15 145q-61 -80 -154.5 -124t-189.5 -44q-154 0 -232.5 82t-78.5 234zM291 1436q0 47 31.5 78.5t78.5 31.5q46 0 78.5 -31.5t32.5 -78.5q0 -46 -32.5 -77.5t-78.5 -31.5 q-47 0 -78.5 31.5t-31.5 77.5zM715 1436q0 47 31 78.5t77 31.5q49 0 81 -31.5t32 -78.5q0 -46 -32 -77.5t-81 -31.5q-46 0 -77 31.5t-31 77.5z" />
<glyph unicode="&#xfd;" d="M127 1077h182l312 -948l305 948h176l-379 -1083q-24 -71 -51.5 -126.5t-68 -109.5t-89.5 -91.5t-118 -64.5t-152 -36l-27 137q82 14 139 38t95.5 63t62.5 83.5t47 112.5h-57zM379 1372l379 236l90 -146l-412 -184z" />
<glyph unicode="&#xfe;" d="M207 -434v1947l170 21v-590q121 158 311 158q105 0 181.5 -39.5t121 -115t65.5 -175.5t21 -231q0 -167 -44.5 -292t-139 -198.5t-231.5 -73.5q-177 0 -285 123v-514zM377 254q42 -63 107 -99t141 -36q136 0 203 103.5t67 318.5q0 214 -60.5 319t-187.5 105 q-83 0 -151.5 -49.5t-118.5 -124.5v-537z" />
<glyph unicode="&#xff;" d="M127 1077h182l312 -948l305 948h176l-379 -1083q-24 -71 -51.5 -126.5t-68 -109.5t-89.5 -91.5t-118 -64.5t-152 -36l-27 137q82 14 139 38t95.5 63t62.5 83.5t47 112.5h-57zM291 1436q0 47 31.5 78.5t78.5 31.5q46 0 78.5 -31.5t32.5 -78.5q0 -46 -32.5 -77.5 t-78.5 -31.5q-47 0 -78.5 31.5t-31.5 77.5zM715 1436q0 47 31 78.5t77 31.5q49 0 81 -31.5t32 -78.5q0 -46 -32 -77.5t-81 -31.5q-46 0 -77 31.5t-31 77.5z" />
<glyph unicode="&#x152;" d="M-2 700q0 358 109.5 546t324.5 188q73 0 146 -25h667l-20 -143h-500q119 -140 133 -480h316v-143h-316q-9 -349 -141 -500h549v-143h-693q-77 -23 -141 -23q-434 0 -434 723zM186 700q0 -307 60.5 -443t185.5 -136q131 0 191.5 136.5t60.5 447.5t-59.5 447t-192.5 136 q-126 0 -186 -138.5t-60 -449.5z" />
<glyph unicode="&#x153;" d="M-4 539q0 127 20 228.5t61 177t108 116.5t157 41q120 0 187.5 -54.5t105.5 -158.5q83 213 285 213q340 0 340 -531q0 -31 -5 -94h-538q14 -186 66.5 -271t158.5 -85q55 0 98 19t99 61l80 -117q-133 -107 -279 -107q-223 0 -307 207q-42 -101 -109.5 -154t-181.5 -53 q-117 0 -195.5 70.5t-114.5 194t-36 297.5zM178 539q0 -224 42.5 -323t141.5 -99q101 0 142 96t41 328q0 219 -42.5 321.5t-140.5 102.5t-141 -103.5t-43 -322.5zM717 610h377q-5 180 -44 264t-135 84q-95 0 -140.5 -78.5t-57.5 -269.5z" />
<glyph unicode="&#x178;" d="M49 1409h195l374 -707l379 707h183l-478 -864v-545h-176v543zM297 1679q0 47 32 79t79 32q46 0 78 -32t32 -79q0 -46 -32 -77t-78 -31q-47 0 -79 31t-32 77zM721 1679q0 47 31 79t77 32q49 0 81 -31.5t32 -79.5q0 -46 -32 -77t-81 -31q-46 0 -77 31t-31 77z" />
<glyph unicode="&#x2c6;" d="M281 1372l278 244h115l274 -244l-78 -84l-254 187l-254 -187z" />
<glyph unicode="&#x2dc;" d="M281 1395q77 172 227 172q41 0 77 -15.5t56.5 -34t45 -34t44.5 -15.5q32 0 55 22t50 69l110 -50q-79 -174 -227 -174q-50 0 -92.5 25.5t-74 50.5t-56.5 25q-32 0 -55 -21.5t-50 -68.5z" />
<glyph unicode="&#x2000;" horiz-adv-x="964" />
<glyph unicode="&#x2001;" horiz-adv-x="1929" />
<glyph unicode="&#x2002;" horiz-adv-x="964" />
<glyph unicode="&#x2003;" horiz-adv-x="1929" />
<glyph unicode="&#x2004;" horiz-adv-x="643" />
<glyph unicode="&#x2005;" horiz-adv-x="482" />
<glyph unicode="&#x2006;" horiz-adv-x="321" />
<glyph unicode="&#x2007;" horiz-adv-x="321" />
<glyph unicode="&#x2008;" horiz-adv-x="241" />
<glyph unicode="&#x2009;" horiz-adv-x="385" />
<glyph unicode="&#x200a;" horiz-adv-x="107" />
<glyph unicode="&#x2010;" d="M256 567v148h717v-148h-717z" />
<glyph unicode="&#x2011;" d="M256 567v148h717v-148h-717z" />
<glyph unicode="&#x2012;" d="M256 567v148h717v-148h-717z" />
<glyph unicode="&#x2013;" d="M68 567v148h1093v-148h-1093z" />
<glyph unicode="&#x2014;" d="M0 567v148h1229v-148h-1229z" />
<glyph unicode="&#x2018;" d="M446 1128q0 59 35 134l168 354h133l-82 -377q54 -38 54 -111q0 -63 -45.5 -106t-110.5 -43q-63 0 -107.5 43t-44.5 106z" />
<glyph unicode="&#x2019;" d="M444 979l82 377q-53 37 -53 110q0 62 46 106t110 44q63 0 108 -43.5t45 -106.5q0 -54 -37 -133l-167 -354h-134z" />
<glyph unicode="&#x201a;" d="M444 -373l82 377q-53 37 -53 111q0 62 46 105.5t108 43.5q65 0 110 -43t45 -106q0 -54 -37 -133l-167 -355h-134z" />
<glyph unicode="&#x201c;" d="M225 1128q0 59 35 134l166 354h135l-82 -377q53 -37 53 -111q0 -63 -45 -106t-108 -43q-66 0 -110 43t-44 106zM668 1128q0 62 34 134l168 354h134l-82 -377q53 -37 53 -111q0 -62 -46 -105.5t-110 -43.5q-63 0 -107 43t-44 106z" />
<glyph unicode="&#x201d;" d="M223 977l80 375q-51 41 -51 112q0 62 46 106t108 44q65 0 110 -43.5t45 -106.5q0 -50 -39 -133l-166 -354h-133zM666 977l82 375q-54 41 -54 112q0 62 46 106t108 44q65 0 110.5 -43.5t45.5 -106.5q0 -54 -37 -133l-168 -354h-133z" />
<glyph unicode="&#x201e;" d="M225 -373l82 377q-53 37 -53 111q0 62 46 105.5t110 43.5q63 0 108 -43t45 -106q0 -54 -37 -133l-168 -355h-133zM666 -373l82 377q-54 38 -54 111q0 62 46 105.5t108 43.5q65 0 109 -43t44 -106q0 -61 -34 -133l-168 -355h-133z" />
<glyph unicode="&#x2022;" d="M367 700q0 107 70 176.5t177 69.5t177.5 -70.5t70.5 -177.5t-70 -176t-178 -69q-107 0 -177 70t-70 177z" />
<glyph unicode="&#x2026;" d="M66 117q0 57 39.5 97t97.5 40q59 0 99 -40t40 -97q0 -59 -39.5 -99.5t-99.5 -40.5q-58 0 -97.5 40.5t-39.5 99.5zM475 117q0 57 40.5 97t98.5 40t98 -40t40 -97q0 -59 -40 -99.5t-98 -40.5t-98.5 40.5t-40.5 99.5zM887 117q0 57 39.5 97t97.5 40q60 0 99.5 -40t39.5 -97 q0 -59 -39.5 -99.5t-99.5 -40.5q-58 0 -97.5 40.5t-39.5 99.5z" />
<glyph unicode="&#x202f;" horiz-adv-x="385" />
<glyph unicode="&#x2039;" d="M387 539v123l354 428l101 -64l-275 -424l275 -424l-101 -63z" />
<glyph unicode="&#x203a;" d="M387 178l275 424l-275 424l100 64l355 -428v-123l-355 -424z" />
<glyph unicode="&#x205f;" horiz-adv-x="482" />
<glyph unicode="&#x20ac;" d="M72 498l30 120h148l2 189h-180l28 119h168q43 242 181 375t331 133q183 0 326 -95l-86 -122q-107 69 -234 69q-139 0 -225.5 -86t-114.5 -274h504l-28 -119h-488v-189h447l-29 -120h-412q25 -195 105 -285t231 -90q169 0 289 104v-176q-123 -74 -295 -74q-213 0 -342 134 t-164 387h-192z" />
<glyph unicode="&#x2122;" d="M27 1296v113h739l106 -575l89 575h194l31 -799h-123l-21 477q-5 153 -2 201h-6l-96 -602h-133l-117 602h-6q3 -97 0 -198l-18 -480h-117l28 686h-219v-686h-127v686h-202z" />
<glyph unicode="&#x25fc;" horiz-adv-x="1075" d="M0 0v1075h1075v-1075h-1075z" />
<glyph unicode="&#xfb01;" d="M41 944v133h186v133q0 146 114 235t284 89q156 0 293 -59l-58 -127q-97 47 -229 47q-232 0 -232 -181v-137h609v-942h192v-135h-557v135h193v809h-437v-944h-172v944h-186z" />
<glyph unicode="&#xfb02;" d="M29 944v133h186v133q0 146 114 235t285 89q103 0 201 -37l152 33v-1284q0 -70 26.5 -98.5t79.5 -28.5q50 0 111 22l47 -121q-84 -43 -182 -43q-114 0 -183 65.5t-69 197.5v1132q-86 21 -174 21q-236 0 -236 -179v-137h262l-22 -133h-240v-944h-172v944h-186z" />
</font>
</defs>
</svg>
