<?xml version="1.0" standalone="no"?>
<!DOCTYPE svg PUBLIC "-//W3C//DTD SVG 1.1//EN" "http://www.w3.org/Graphics/SVG/1.1/DTD/svg11.dtd" >
<svg xmlns="http://www.w3.org/2000/svg">
<metadata></metadata>
<defs>
<font id="fira_monobold" horiz-adv-x="1228" >
<font-face units-per-em="2048" ascent="1608" descent="-440" />
<missing-glyph horiz-adv-x="500" />
<glyph />
<glyph />
<glyph horiz-adv-x="682" />
<glyph unicode="&#xd;" />
<glyph unicode=" " />
<glyph unicode="!" d="M430 150q0 77 54 131.5t130 54.5q78 0 131.5 -54.5t53.5 -131.5q0 -76 -54 -130.5t-131 -54.5q-76 0 -130 55t-54 130zM442 1419h344l-41 -897h-260z" />
<glyph unicode="&#x22;" d="M264 1520h307l-39 -572h-229zM655 1520h310l-39 -572h-232z" />
<glyph unicode="#" d="M74 297v213h149l53 403h-126v215h155l37 291h268l-39 -291h197l39 291h266l-39 -291h123v-215h-151l-52 -403h127v-213h-155l-39 -297h-266l38 297h-196l-39 -297h-266l37 297h-121zM489 510h197l53 403h-196z" />
<glyph unicode="$" d="M86 162l156 180q145 -126 307 -137v426q-219 73 -315.5 172t-96.5 246q0 165 110.5 272t301.5 127v305h166v-303q233 -19 403 -162l-157 -164q-111 89 -246 99v-359q109 -36 183.5 -74t132 -90t85 -121.5t27.5 -160.5q0 -176 -112.5 -297.5t-315.5 -147.5v-305h-166v299 q-144 10 -263 63.5t-200 131.5zM426 1085q0 -55 24 -88.5t99 -68.5v293q-59 -10 -91 -47.5t-32 -88.5zM715 211q127 27 127 168q0 64 -27 107t-100 79v-354z" />
<glyph unicode="%" d="M6 1135q0 141 80 231t215 90t213 -87.5t78 -233.5q0 -147 -78 -234.5t-213 -87.5q-137 0 -216 87.5t-79 234.5zM172 12l698 1454l174 -71l-702 -1454zM219 1135q0 -80 17.5 -121t64.5 -41q48 0 65 39.5t17 122.5q0 87 -16.5 124t-65.5 37t-65.5 -39t-16.5 -122zM635 307 q0 142 79 232t214 90q137 0 215 -87t78 -235q0 -147 -78 -233t-215 -86t-215 86t-78 233zM848 307q0 -79 18 -120.5t62 -41.5q49 0 65.5 39.5t16.5 122.5q0 90 -16 127t-66 37q-48 0 -64 -39.5t-16 -124.5z" />
<glyph unicode="&#x26;" d="M78 406q0 316 311 391v8q-242 64 -242 307q0 147 120 244.5t304 97.5q128 0 222.5 -37.5t175.5 -124.5l-174 -149q-48 49 -88.5 69.5t-98.5 20.5q-71 0 -111 -43t-40 -119q0 -80 53 -132t137 -52h537v-207h-135v-537q-170 -178 -474 -178q-236 0 -366.5 123.5 t-130.5 317.5zM391 430q0 -105 53 -167t150 -62q102 0 156 57v422h-121q-115 0 -176.5 -73.5t-61.5 -176.5z" />
<glyph unicode="'" d="M461 1520h305l-39 -572h-227z" />
<glyph unicode="(" d="M289 717q0 142 24.5 270.5t61.5 225.5t100 199.5t119.5 174.5t140.5 168l207 -139q-113 -148 -181 -274.5t-106.5 -283t-38.5 -341.5t38.5 -341.5t106.5 -283t181 -274.5l-207 -140q-84 96 -140.5 168.5t-119.5 174.5t-100 199.5t-61.5 226t-24.5 270.5z" />
<glyph unicode=")" d="M287 -182q170 222 247.5 425t77.5 474t-77.5 474t-247.5 425l207 139q84 -96 140.5 -168t119.5 -174.5t100 -199.5t61.5 -225.5t24.5 -270.5t-24.5 -270.5t-61.5 -226t-100 -199.5t-119.5 -174.5t-140.5 -168.5z" />
<glyph unicode="*" d="M160 655l80 254l280 -131l-45 309h277l-45 -311l280 133l82 -254l-303 -55l217 -225l-221 -162l-150 274l-141 -276l-223 162l213 227z" />
<glyph unicode="+" d="M170 516v248h309v319h269v-319h311v-248h-311v-319h-269v319h-309z" />
<glyph unicode="," d="M387 -416l102 434q-46 29 -71 77.5t-25 107.5q0 92 63.5 155.5t157.5 63.5q96 0 160 -63.5t64 -157.5q0 -39 -12.5 -85.5t-25 -78t-50.5 -119.5l-148 -334h-215z" />
<glyph unicode="-" d="M223 516v250h785v-250h-785z" />
<glyph unicode="." d="M387 193q0 94 66 161.5t161 67.5t161.5 -67.5t66.5 -161.5q0 -93 -66.5 -160.5t-161.5 -67.5q-94 0 -160.5 67.5t-66.5 160.5z" />
<glyph unicode="/" d="M59 -115l861 1788l249 -114l-858 -1788z" />
<glyph unicode="0" d="M102 713q0 355 130 549t382 194q251 0 381.5 -194t130.5 -549q0 -356 -131 -552t-381 -196q-252 0 -382 195.5t-130 552.5zM416 713q0 -191 22.5 -305t64.5 -161.5t111 -47.5t111.5 49t64 162.5t21.5 302.5q0 186 -22.5 299t-65 161t-109.5 48q-103 0 -150.5 -118 t-47.5 -390zM479 707q0 56 38 94.5t95 38.5q58 0 97 -38.5t39 -94.5q0 -57 -39 -96.5t-97 -39.5q-57 0 -95 39.5t-38 96.5z" />
<glyph unicode="1" d="M119 1141l459 278h286v-1175h264v-244h-921v244h342v858l-293 -182z" />
<glyph unicode="2" d="M82 1212q176 244 483 244q232 0 361 -117.5t129 -289.5q0 -116 -56 -228t-175.5 -242.5t-342.5 -330.5h606l-34 -248h-942v229q150 146 244.5 241.5t172 182.5t117 147.5t60 114t20.5 105.5q0 87 -49.5 136.5t-140.5 49.5q-79 0 -139 -33.5t-117 -109.5z" />
<glyph unicode="3" d="M37 178l182 170q118 -135 295 -135q108 0 174 55t66 154q0 213 -240 213h-129l37 221h90q98 0 156.5 48t58.5 138q0 79 -57 125.5t-150 46.5q-154 0 -282 -122l-166 172q198 192 485 192q222 0 352.5 -104.5t130.5 -259.5q0 -131 -76.5 -215.5t-213.5 -124.5 q335 -46 335 -353q0 -185 -149.5 -309.5t-398.5 -124.5q-312 0 -500 213z" />
<glyph unicode="4" d="M92 299v213l393 944l275 -102l-334 -813h256l35 342h274v-342h142v-242h-142v-299h-309l-2 299h-588z" />
<glyph unicode="5" d="M80 178l186 170q104 -135 260 -135q112 0 180 68.5t68 179.5q0 244 -192 244q-88 0 -172 -48h-220v762h865l-37 -231h-518v-307q95 45 209 45q170 0 284.5 -125t114.5 -334q0 -219 -154.5 -360.5t-402.5 -141.5q-149 0 -269.5 56.5t-201.5 156.5z" />
<glyph unicode="6" d="M102 641q0 239 73 423t214 288t330 104q173 0 307 -92l-123 -197q-82 58 -180 58q-119 0 -197 -106.5t-88 -297.5q63 64 141.5 97.5t157.5 33.5q172 0 285 -126t113 -345t-139 -367.5t-365 -148.5q-110 0 -199 35.5t-149.5 97t-102 148t-60 185t-18.5 210.5zM438 616 q5 -218 49 -318.5t148 -100.5q88 0 132 74t44 192q0 141 -40 203.5t-118 62.5q-57 0 -114 -29.5t-101 -83.5z" />
<glyph unicode="7" d="M139 1176v243h951v-219l-549 -1233l-308 96l529 1113h-623z" />
<glyph unicode="8" d="M88 377q0 119 68.5 209.5t191.5 144.5q-112 71 -158.5 143.5t-46.5 188.5q0 178 133.5 285.5t339.5 107.5q209 0 339 -102.5t130 -274.5q0 -99 -52 -170.5t-167 -136.5q275 -139 275 -387q0 -83 -34.5 -158t-99.5 -134t-168 -93.5t-231 -34.5q-126 0 -226.5 33.5 t-164 90.5t-96.5 131t-33 157zM412 397q0 -92 52 -146t152 -54t150.5 53.5t50.5 136.5q0 53 -14.5 90t-50.5 67t-81.5 51.5t-123.5 49.5q-135 -85 -135 -248zM451 1063q0 -74 48.5 -123.5t157.5 -89.5q68 49 94.5 98.5t26.5 112.5q0 79 -41.5 126.5t-120.5 47.5 q-80 0 -122.5 -43.5t-42.5 -128.5z" />
<glyph unicode="9" d="M90 944q0 228 146 370t370 142q253 0 387.5 -154t134.5 -413q0 -406 -207 -631t-657 -319l-67 227q254 64 395 168.5t188 271.5q-133 -117 -288 -117q-171 0 -286.5 126.5t-115.5 328.5zM416 954q0 -123 48 -180t128 -57q106 0 203 82q1 91 -3.5 155t-16.5 118.5 t-33.5 86t-55.5 49t-82 17.5q-90 0 -139 -67.5t-49 -203.5z" />
<glyph unicode=":" d="M399 180q0 88 62.5 150.5t152.5 62.5t151.5 -62.5t61.5 -150.5q0 -89 -61.5 -152t-151.5 -63t-152.5 63.5t-62.5 151.5zM399 889q0 88 62.5 151.5t152.5 63.5t151.5 -63t61.5 -152q0 -88 -61.5 -150.5t-151.5 -62.5t-152.5 62.5t-62.5 150.5z" />
<glyph unicode=";" d="M391 -403l101 417q-93 64 -93 179q0 89 61.5 149.5t153.5 60.5t152.5 -61t60.5 -152q0 -52 -18 -107t-66 -165l-141 -321h-211zM399 889q0 88 62.5 151.5t152.5 63.5t151.5 -63t61.5 -152q0 -88 -61.5 -150.5t-151.5 -62.5t-152.5 62.5t-62.5 150.5z" />
<glyph unicode="&#x3c;" d="M143 526v232l801 495l141 -221l-663 -389l663 -381l-145 -229z" />
<glyph unicode="=" d="M150 297v252h929v-252h-929zM150 725v254h929v-254h-929z" />
<glyph unicode="&#x3e;" d="M143 252l664 391l-664 379l144 231l798 -493v-234l-796 -493z" />
<glyph unicode="?" d="M115 1235q189 221 491 221q113 0 204 -28t148.5 -76t88 -109.5t30.5 -130.5q0 -67 -21 -121.5t-54.5 -91t-74.5 -67t-81.5 -57.5t-74 -55t-54.5 -67.5t-21 -87.5v-43h-295v53q0 71 18.5 129t48.5 95.5t66 68.5t72 54.5t66 46t48.5 51.5t18.5 63q0 56 -45 86.5t-119 30.5 q-146 0 -256 -125zM369 150q0 77 54 131.5t130 54.5q77 0 131.5 -55t54.5 -131q0 -75 -55 -130t-131 -55t-130 55t-54 130z" />
<glyph unicode="@" d="M-4 1219q139 123 282.5 180t309.5 57q143 0 253 -40t182.5 -111.5t118.5 -179.5t65.5 -234.5t19.5 -284.5q0 -163 -8.5 -282.5t-30 -221t-58 -164t-93 -97t-134.5 -34.5q-110 0 -170.5 78.5t-75.5 204.5h-8q-36 -84 -110 -137t-177 -53q-72 0 -128 23.5t-94 64.5 t-62.5 100.5t-35.5 128t-11 150.5q0 259 109.5 405t326.5 146q175 0 344 -91v-614q0 -111 20 -158t62 -47q57 0 71.5 118t14.5 462q0 135 -11 234.5t-38.5 184.5t-73.5 137.5t-117 81.5t-168 29q-115 0 -223.5 -43.5t-222.5 -144.5zM322 367q0 -144 21.5 -204.5t78.5 -60.5 q32 0 54.5 13t35 37t18 45.5t9.5 50.5v448q-40 19 -78 19q-81 0 -110 -74.5t-29 -273.5z" />
<glyph unicode="A" d="M-23 0l435 1419h407l434 -1419h-358l-76 307h-416l-75 -307h-351zM457 549h307l-154 629z" />
<glyph unicode="B" d="M115 0v1419h450q115 0 208.5 -18.5t171 -58.5t120.5 -112.5t43 -172.5q0 -120 -73.5 -198.5t-186.5 -106.5q62 -10 115 -32t101.5 -59.5t76.5 -100.5t28 -144q0 -416 -583 -416h-471zM451 246h124q54 0 94.5 7t77.5 26t56.5 57t19.5 94q0 199 -235 199h-137v-383z M451 852h114q107 0 156 40.5t49 129.5q0 84 -52 122t-165 38h-102v-330z" />
<glyph unicode="C" d="M70 713q0 174 51 315.5t140 234.5t210 143t262 50q147 0 253.5 -39t201.5 -117l-164 -198q-129 104 -283 104q-145 0 -235 -122.5t-90 -370.5q0 -247 89.5 -367.5t242.5 -120.5q66 0 126 20t95.5 42.5t85.5 62.5l151 -192q-189 -193 -477 -193q-145 0 -265.5 49 t-208.5 142t-136.5 235.5t-48.5 321.5z" />
<glyph unicode="D" d="M106 0v1419h359q83 0 154.5 -8t145.5 -29t133.5 -54.5t112.5 -88t88.5 -126.5t56 -172.5t20.5 -223.5q0 -717 -687 -717h-383zM442 244h72q74 0 128.5 22t98 74t66 146.5t22.5 230.5q0 112 -16 194.5t-43 132.5t-68.5 80.5t-86 41t-101.5 10.5h-72v-932z" />
<glyph unicode="E" d="M190 0v1419h928l-35 -239h-557v-342h492v-234h-492v-362h592v-242h-928z" />
<glyph unicode="F" d="M221 0v1419h932l-33 -239h-561v-375h496v-242h-496v-563h-338z" />
<glyph unicode="G" d="M47 713q0 177 51 319t140.5 234t209.5 141t259 49q145 0 252 -45.5t198 -130.5l-176 -182q-67 59 -126.5 85.5t-133.5 26.5q-151 0 -240.5 -122t-89.5 -377q0 -273 67 -386.5t212 -113.5q98 0 176 43v326h-178l-33 233h528v-704q-234 -144 -495 -144q-302 0 -461.5 191.5 t-159.5 556.5z" />
<glyph unicode="H" d="M106 0v1419h336v-540h344v540h336v-1419h-336v594h-344v-594h-336z" />
<glyph unicode="I" d="M154 0v246h292v928h-292v245h921v-245h-293v-928h293v-246h-921z" />
<glyph unicode="J" d="M80 102l127 207q74 -50 137 -70t145 -20q113 0 183.5 73t70.5 216v666h-434v245h770v-909q0 -250 -150 -395.5t-421 -145.5q-130 0 -230 33t-198 100z" />
<glyph unicode="K" d="M121 0v1419h336v-1419h-336zM467 758l389 661h350l-401 -637l440 -782h-387z" />
<glyph unicode="L" d="M190 0v1419h336v-1155h615l-33 -264h-918z" />
<glyph unicode="M" d="M35 0l80 1419h346l157 -917l150 917h346l80 -1419h-295l-16 608q-3 48 -3 103q0 43 2 91q4 106 7 152.5t12 149.5h-8l-154 -862h-252l-165 862h-9q22 -201 22 -418q0 -42 -1 -84l-10 -602h-289z" />
<glyph unicode="N" d="M106 0v1419h418l355 -1108h8q-49 245 -49 563v545h284v-1419h-407l-365 1106h-8q17 -91 33 -248t16 -321v-537h-285z" />
<glyph unicode="O" d="M47 711q0 346 146.5 545.5t420.5 199.5q276 0 422 -197t146 -548q0 -345 -147 -545.5t-421 -200.5q-276 0 -421.5 197.5t-145.5 548.5zM389 711q0 -263 53.5 -381.5t171.5 -118.5q122 0 174 118.5t52 381.5q0 262 -53 380.5t-173 118.5q-119 0 -172 -118.5t-53 -380.5z " />
<glyph unicode="P" d="M129 0v1419h444q294 0 450.5 -116.5t156.5 -346.5q0 -240 -151 -361.5t-411 -121.5h-155v-473h-334zM463 715h133q240 0 240 241q0 224 -256 224h-117v-465z" />
<glyph unicode="Q" d="M66 711q0 228 60 393.5t186 258.5t309 93q273 0 414 -196t141 -549q0 -475 -291 -629q168 -29 262 -103t151 -239l-274 -94q-29 68 -55.5 116t-63 90t-79.5 66.5t-100.5 38.5t-131.5 14q-262 0 -395 193.5t-133 546.5zM414 711q0 -268 45.5 -384t161.5 -116 q119 0 162.5 115t43.5 385q0 269 -44 383t-162 114q-117 0 -162 -115.5t-45 -381.5z" />
<glyph unicode="R" d="M119 0v1419h446q292 0 438 -106t146 -326q0 -144 -77.5 -241t-207.5 -148l373 -598h-379l-309 543h-94v-543h-336zM455 774h125q225 0 225 213q0 101 -60 149t-180 48h-110v-410z" />
<glyph unicode="S" d="M25 170l170 188q162 -143 383 -143q108 0 172.5 46t64.5 128q0 77 -55 122t-203 89q-248 76 -353.5 178t-105.5 264q0 127 72.5 222.5t193 143.5t269.5 48q315 0 508 -184l-158 -182q-142 118 -326 118q-98 0 -155.5 -36t-57.5 -103q0 -66 59 -104.5t232 -92.5 q107 -33 181.5 -70.5t132.5 -91t86 -126t28 -168.5q0 -202 -155 -326.5t-422 -124.5q-352 0 -561 205z" />
<glyph unicode="T" d="M47 1161v258h1147l-33 -258h-381v-1161h-336v1161h-397z" />
<glyph unicode="U" d="M86 475v944h338v-819q0 -82 4 -139t16 -106.5t33 -78.5t55 -45t82 -16q115 0 153 89t38 296v819h338v-944q0 -227 -137 -368.5t-392 -141.5q-258 0 -393 137.5t-135 372.5z" />
<glyph unicode="V" d="M0 1419h354l267 -1157l268 1157h342l-410 -1419h-413z" />
<glyph unicode="W" d="M-6 1419h313l43 -1112h8l117 948h287l108 -946h9l65 1110h291l-166 -1419h-348l-103 997h-8l-108 -997h-355z" />
<glyph unicode="X" d="M8 0l402 754l-371 665h362l213 -454l220 454h354l-377 -651l412 -768h-361l-252 541l-248 -541h-354z" />
<glyph unicode="Y" d="M-16 1419h366l271 -612l272 612h352l-463 -887v-532h-336v530z" />
<glyph unicode="Z" d="M80 0v250l674 909h-600v260h981v-254l-660 -899h676l-35 -266h-1036z" />
<glyph unicode="[" d="M319 -252v1938h590v-242h-284v-1456h284v-240h-590z" />
<glyph unicode="\" d="M59 1559l252 114l858 -1788l-251 -114z" />
<glyph unicode="]" d="M319 -10h285v1454h-285v242h590v-1938h-590v242z" />
<glyph unicode="^" d="M80 1079l387 650h295l387 -650h-315l-222 408l-213 -408h-319z" />
<glyph unicode="_" d="M55 -127h1119v-254h-1119v254z" />
<glyph unicode="`" d="M324 1462l141 242l440 -295l-96 -164z" />
<glyph unicode="a" d="M72 307q0 177 139 274t391 97h146v39q0 168 -216 168q-125 0 -296 -58l-76 215q218 82 424 82q475 0 475 -385v-426q0 -60 16 -88.5t55 -42.5l-67 -213q-195 18 -266 144q-59 -72 -155 -110t-202 -38q-167 0 -267.5 95t-100.5 247zM406 330q0 -63 38 -98t107 -35 q56 0 112.5 32t84.5 86v179h-80q-262 0 -262 -164z" />
<glyph unicode="b" d="M143 0v1520l324 34v-579q52 70 124 109.5t154 39.5q203 0 302.5 -151.5t99.5 -425.5q0 -170 -49 -300t-149 -206t-238 -76q-82 0 -152 34.5t-117 98.5l-12 -98h-287zM467 299q64 -98 160 -98q186 0 186 342q0 130 -22 208t-58 106t-90 28q-101 0 -176 -127v-459z" />
<glyph unicode="c" d="M141 537q0 170 68.5 302.5t198 208.5t301.5 76q231 0 397 -137l-139 -194q-118 81 -244 81q-246 0 -246 -337q0 -316 244 -316q107 0 242 92l143 -204q-169 -144 -404 -144q-261 0 -411 157t-150 415z" />
<glyph unicode="d" d="M82 547q0 256 118 416.5t316 160.5q147 0 246 -102v532l323 -34v-1520h-286l-17 119q-48 -69 -124 -111.5t-177 -42.5q-197 0 -298 155.5t-101 426.5zM416 545q0 -129 22.5 -207t58 -106.5t87.5 -28.5q103 0 178 125v469q-71 90 -160 90q-186 0 -186 -342z" />
<glyph unicode="e" d="M94 543q0 121 35.5 226.5t101 184.5t166 124.5t224.5 45.5q237 0 375.5 -149t138.5 -410q0 -58 -7 -116h-704q32 -248 262 -248q148 0 272 98l136 -184q-174 -150 -435 -150q-272 0 -418.5 158t-146.5 420zM420 645h399q-3 262 -194 262q-185 0 -205 -262z" />
<glyph unicode="f" d="M158 795v225h227v158q0 166 118.5 271t332.5 105q210 0 372 -69l-90 -211q-105 41 -233 41q-95 0 -136.5 -35t-41.5 -115v-145h354l-37 -225h-317v-795h-322v795h-227z" />
<glyph unicode="g" d="M63 -104h287q0 -51 18.5 -79t73 -43.5t156.5 -15.5q75 0 125.5 9t77.5 27t38 39t11 50q0 51 -39.5 80t-118.5 29h-172q-169 0 -252.5 61t-83.5 156q0 59 32.5 114t90.5 91q-103 55 -148.5 129.5t-45.5 181.5q0 182 134 289.5t351 107.5h28q98 0 185 18q99 21 160 48.5 t139 73.5l74 -238q-105 -43 -314 -43q107 -46 159 -112t52 -169q0 -160 -126 -262t-334 -102q-72 0 -127 14q-35 -21 -35 -63q0 -30 24 -48t95 -18h180q187 0 300 -88.5t113 -226.5q0 -170 -148.5 -265.5t-432.5 -95.5q-123 0 -215 16t-151 45t-95.5 74t-51 96.5 t-14.5 119.5zM438 729q0 -88 46 -137t122 -49q166 0 166 190q0 92 -41 135t-125 43q-77 0 -122.5 -49t-45.5 -133z" />
<glyph unicode="h" d="M143 0v1520l324 32v-573q136 145 319 145q144 0 221.5 -84.5t77.5 -240.5v-799h-323v709q0 99 -22.5 137.5t-82.5 38.5q-93 0 -190 -131v-754h-324z" />
<glyph unicode="i" d="M176 0v221h307v645h-297v221h621v-866h278v-221h-909zM420 1475q0 77 54 129.5t138 52.5q83 0 137 -52.5t54 -129.5q0 -78 -54 -130.5t-137 -52.5q-84 0 -138 52t-54 131z" />
<glyph unicode="j" d="M143 -207q131 29 218.5 65.5t154 94t97 141.5t30.5 201v571h-389v221h713v-772q0 -175 -48.5 -304.5t-149 -220t-240 -148.5t-336.5 -97zM565 1475q0 77 54.5 129.5t138.5 52.5q82 0 136 -52.5t54 -129.5q0 -79 -53.5 -131t-136.5 -52q-84 0 -138.5 52t-54.5 131z" />
<glyph unicode="k" d="M143 0v1520l324 34v-1554h-324zM479 596l359 491h338l-359 -481l387 -606h-366z" />
<glyph unicode="l" d="M68 1298v222h643v-1178q0 -121 139 -121q74 0 156 33l75 -217q-137 -72 -313 -72q-191 0 -286 109.5t-95 306.5v917h-319z" />
<glyph unicode="m" d="M55 0v1087h236l22 -104q54 72 106.5 106.5t121.5 34.5q129 0 168 -131q106 131 239 131q116 0 171 -76.5t55 -242.5v-805h-277v768q0 59 -11 81.5t-42 22.5q-56 0 -115 -69v-803h-227v768q0 60 -10 82t-43 22q-57 0 -113 -69v-803h-281z" />
<glyph unicode="n" d="M143 0v1087h283l23 -124q142 161 337 161q144 0 221.5 -84.5t77.5 -240.5v-799h-323v705q0 102 -22.5 141t-82.5 39q-93 0 -190 -131v-754h-324z" />
<glyph unicode="o" d="M86 545q0 263 140.5 421t387.5 158q249 0 389 -156.5t140 -420.5q0 -274 -139.5 -428t-389.5 -154q-251 0 -389.5 152.5t-138.5 427.5zM420 545q0 -180 46.5 -261t147.5 -81t148 81.5t47 262.5q0 176 -47.5 257t-147.5 81t-147 -81t-47 -259z" />
<glyph unicode="p" d="M143 -455v1542h287l14 -122q124 159 301 159q398 0 398 -577q0 -169 -49 -300t-144.5 -206.5t-224.5 -75.5q-157 0 -258 113v-498zM467 299q34 -51 71 -73.5t89 -22.5q90 0 136 80.5t46 259.5q0 131 -20.5 208t-55 105.5t-88.5 28.5q-103 0 -178 -127v-459z" />
<glyph unicode="q" d="M86 547q0 169 50 298.5t149.5 204t236.5 74.5q165 0 266 -125l15 88h282v-1542l-323 35v512q-105 -127 -279 -127q-202 0 -299.5 153.5t-97.5 428.5zM420 545q0 -129 21.5 -206.5t56.5 -105.5t88 -28q105 0 176 123v469q-68 90 -156 90q-92 0 -139 -81t-47 -261z" />
<glyph unicode="r" d="M154 0v221h225v645h-225v221h512l26 -202q37 108 118 171.5t181 63.5q65 0 135 -18l-53 -314q-66 17 -125 17q-96 0 -157 -69.5t-89 -186.5v-328h277v-221h-825z" />
<glyph unicode="s" d="M98 129l162 182q145 -114 320 -114q85 0 132.5 25.5t47.5 76.5q0 37 -20 59.5t-73.5 44.5t-164.5 52q-164 44 -250 119.5t-86 211.5q0 151 124 244.5t347 93.5q259 0 440 -133l-129 -190q-151 92 -301 92q-155 0 -155 -84q0 -42 48.5 -69t207.5 -72q87 -24 144.5 -49 t107 -64t73 -95.5t23.5 -133.5q0 -116 -72 -199.5t-186 -122.5t-256 -39q-295 0 -484 164z" />
<glyph unicode="t" d="M119 864v223h227v236l324 39v-275h350l-33 -223h-317v-493q0 -81 36 -115.5t117 -34.5q107 0 193 49l106 -207q-153 -98 -356 -98q-209 0 -314.5 107t-105.5 299v493h-227z" />
<glyph unicode="u" d="M143 303v784h324v-743q0 -76 28 -107.5t83 -31.5q51 0 100.5 31.5t83.5 85.5v765h323v-1087h-282l-15 127q-54 -78 -143 -120t-190 -42q-155 0 -233.5 89.5t-78.5 248.5z" />
<glyph unicode="v" d="M59 1087h349l213 -839l221 839h327l-362 -1087h-381z" />
<glyph unicode="w" d="M6 1087h297l66 -851h8l112 714h271l98 -710h8l70 847h287l-156 -1087h-356l-90 694h-9l-94 -694h-350z" />
<glyph unicode="x" d="M45 0l373 571l-338 516h362l174 -348l168 348h344l-319 -503l375 -584h-367l-215 408l-207 -408h-350z" />
<glyph unicode="y" d="M57 1087h342l211 -880l230 880h331l-362 -1087q-73 -220 -218.5 -332t-389.5 -125l-37 230q106 13 173 40.5t106.5 71t70.5 115.5h-111z" />
<glyph unicode="z" d="M147 0v229l541 615h-495v243h870v-227l-535 -614h545l-31 -246h-895z" />
<glyph unicode="{" d="M272 586v262q102 0 148.5 44.5t46.5 156.5v292q0 143 44 223.5t149.5 118t295.5 37.5v-225q-99 0 -142.5 -27.5t-43.5 -101.5v-303q0 -168 -69 -245t-228 -101q166 -25 231.5 -100t65.5 -246v-303q0 -74 44 -101.5t142 -27.5v-226q-189 0 -295 38t-150 118t-44 221v295 q0 112 -46 156.5t-149 44.5z" />
<glyph unicode="|" d="M463 -215v1874h301v-1874h-301z" />
<glyph unicode="}" d="M272 -61q98 0 142.5 27.5t44.5 101.5v303q0 173 66.5 247.5t226.5 96.5q-156 25 -224.5 102.5t-68.5 245.5v303q0 74 -43.5 101.5t-143.5 27.5v225q190 0 295.5 -37.5t150 -118t44.5 -223.5v-292q0 -112 45.5 -156.5t148.5 -44.5v-262q-102 0 -148 -44.5t-46 -156.5v-295 q0 -141 -44 -221t-150.5 -118t-295.5 -38v226z" />
<glyph unicode="~" d="M45 557q34 71 67.5 123.5t78.5 101t102 74t123 25.5q56 0 106.5 -21t88 -51t71.5 -60.5t70 -51.5t69 -21q56 0 97.5 38.5t85.5 121.5l180 -80q-35 -76 -69.5 -131.5t-79 -101t-100.5 -68.5t-122 -23q-55 0 -105.5 21t-88 51t-71.5 60.5t-70.5 51.5t-69.5 21 q-56 0 -97.5 -40t-85.5 -122z" />
<glyph unicode="&#xa0;" />
<glyph unicode="&#xa1;" d="M430 860q0 77 54 133t130 56q77 0 131 -56t54 -133q0 -74 -54 -128t-131 -54q-76 0 -130 54t-54 128zM442 -420l43 912h258l45 -912h-346z" />
<glyph unicode="&#xa2;" d="M162 537q0 224 109 378t302 193v309h230v-305q147 -24 264 -123l-139 -194q-99 79 -207 79q-110 0 -165.5 -79t-55.5 -258q0 -174 56 -245t163 -71q53 0 98 18t105 62l145 -207q-122 -96 -264 -119v-305h-232v312q-195 38 -302 185.5t-107 369.5z" />
<glyph unicode="&#xa3;" d="M86 0v233q47 15 78 33.5t49.5 39.5t28 53.5t12 64.5t2.5 84v145h-150v170h150v205q0 190 123 309t344 119q272 0 420 -209l-199 -143q-40 59 -85.5 83.5t-108.5 24.5q-175 0 -175 -192v-197h375v-170h-375v-155q0 -87 -28.5 -149t-102.5 -103h666l-37 -246h-987z" />
<glyph unicode="&#xa4;" d="M63 291l164 166q-63 101 -63 243q0 143 61 244l-162 164l146 145l166 -166q100 60 241 60q138 0 240 -60l164 164l145 -145l-159 -162q65 -108 65 -244q0 -137 -67 -245l161 -162l-145 -143l-164 159q-99 -57 -240 -57t-243 57l-164 -164zM414 700q0 -110 51 -169.5 t151 -59.5q98 0 148.5 59.5t50.5 169.5q0 109 -50.5 168.5t-148.5 59.5q-100 0 -151 -59.5t-51 -168.5z" />
<glyph unicode="&#xa5;" d="M16 1419h344l258 -583h9l252 583h333l-362 -698h203v-166h-275v-141h275v-168h-275v-246h-323v246h-271v168h271v141h-271v166h197z" />
<glyph unicode="&#xa6;" d="M463 -215v745h301v-745h-301zM463 913v746h301v-746h-301z" />
<glyph unicode="&#xa7;" d="M160 629q0 156 168 260q-119 93 -119 233q0 147 122 240.5t322 93.5q220 0 394 -115l-113 -188q-127 78 -266 78q-72 0 -110 -26t-38 -70q0 -35 16.5 -57t67 -45.5t154.5 -55.5q157 -49 234 -122t77 -198q0 -161 -162 -264q115 -89 115 -233q0 -147 -125 -239.5 t-330 -92.5q-231 0 -395 115l109 198q141 -88 270 -88q75 0 118.5 27t43.5 70q0 34 -15.5 55.5t-68 46.5t-160.5 59q-156 49 -232.5 121.5t-76.5 196.5zM442 676q0 -64 52.5 -99t236.5 -98q55 67 55 135q0 61 -53.5 95.5t-236.5 97.5q-54 -63 -54 -131z" />
<glyph unicode="&#xa8;" d="M209 1470q0 67 49.5 114.5t118.5 47.5q72 0 121 -47t49 -115q0 -70 -49 -117.5t-121 -47.5q-70 0 -119 47.5t-49 117.5zM682 1470q0 67 50.5 114.5t119.5 47.5q70 0 119 -47t49 -115q0 -70 -48.5 -117.5t-119.5 -47.5q-70 0 -120 47.5t-50 117.5z" />
<glyph unicode="&#xa9;" d="M18 868q0 193 69.5 347.5t207 246.5t321.5 92q139 0 252 -53t187.5 -146t114.5 -218t40 -269q0 -143 -40 -266.5t-114 -215.5t-187.5 -145t-252.5 -53q-189 0 -326.5 92t-204.5 244t-67 344zM188 868q0 -114 25.5 -210t76.5 -170t134.5 -116t191.5 -42t190.5 42 t133.5 116t76.5 170t25.5 210q0 115 -25.5 211.5t-76 171.5t-133.5 117.5t-191 42.5t-191.5 -42.5t-134.5 -117.5t-76.5 -171.5t-25.5 -211.5zM289 870q0 186 95.5 295t250.5 109q142 0 237 -98l-100 -123q-57 45 -115 45q-137 0 -137 -228q0 -223 137 -223q72 0 134 55 l92 -133q-109 -102 -246 -102q-163 0 -255.5 105t-92.5 298z" />
<glyph unicode="&#xaa;" d="M172 907q0 141 116 221t328 80h109v25q0 70 -38 95.5t-132 25.5q-103 0 -240 -47l-67 184q183 63 348 63q207 0 299 -78t92 -235v-336q0 -43 14.5 -65t47.5 -33l-62 -180q-91 9 -144.5 36.5t-82.5 81.5q-50 -59 -122 -90.5t-153 -31.5q-140 0 -226.5 79t-86.5 205zM205 0 v221h848v-221h-848zM463 918q0 -105 102 -105q44 0 87.5 26t72.5 70v129h-66q-106 0 -151 -28.5t-45 -91.5z" />
<glyph unicode="&#xab;" d="M106 485v205l349 449l186 -117l-238 -434l238 -436l-186 -117zM586 485v205l350 449l186 -117l-237 -434l237 -436l-186 -117z" />
<glyph unicode="&#xac;" d="M170 528v248h889v-563h-266v315h-623z" />
<glyph unicode="&#xad;" d="M276 516v250h676v-250h-676z" />
<glyph unicode="&#xae;" d="M51 991q0 157 73.5 286t203 203t288.5 74q157 0 285.5 -73.5t201.5 -203t73 -286.5q0 -155 -73 -283t-201.5 -201t-285.5 -73q-159 0 -288.5 73t-203 201t-73.5 283zM209 991q0 -181 115.5 -300.5t291.5 -119.5q174 0 288 119.5t114 300.5q0 182 -114 304t-288 122 q-176 0 -291.5 -122t-115.5 -304zM395 719v581h178q275 0 275 -180q0 -56 -32 -97t-87 -62l158 -242h-170l-127 211h-47v-211h-148zM543 1049h47q106 0 106 75q0 66 -108 66h-45v-141z" />
<glyph unicode="&#xaf;" d="M303 1348v223h623v-223h-623z" />
<glyph unicode="&#xb0;" d="M145 1208q0 79 32 146t84 109.5t116.5 66.5t132.5 24q92 0 174.5 -39.5t137.5 -120.5t55 -186t-55 -186.5t-137.5 -121.5t-174.5 -40q-67 0 -132 24t-117 67.5t-84 110.5t-32 146zM369 1208q0 -72 38.5 -115.5t102.5 -43.5q65 0 104 43.5t39 115.5q0 73 -39 116.5 t-104 43.5t-103 -43.5t-38 -116.5z" />
<glyph unicode="&#xb1;" d="M170 0v246h889v-246h-889zM170 578v245h309v320h271v-320h309v-245h-309v-220h-271v220h-309z" />
<glyph unicode="&#xb2;" d="M297 1180q123 135 319 135q137 0 214 -61t77 -152q0 -89 -63 -152t-230 -137h318l-27 -168h-583v150q149 82 222.5 131t96.5 79.5t23 67.5q0 33 -22 53.5t-60 20.5q-41 0 -73.5 -16.5t-66.5 -57.5z" />
<glyph unicode="&#xb3;" d="M276 745l134 113q45 -35 88 -49t100 -14q104 0 104 65q0 58 -102 58h-106l24 133h82q37 0 57.5 13t20.5 34q0 55 -80 55q-52 0 -92 -13t-90 -46l-117 116q131 105 328 105q135 0 210.5 -50t75.5 -132q0 -59 -35 -94t-106 -50q90 -14 131 -49t41 -104q0 -94 -91.5 -148.5 t-246.5 -54.5q-218 0 -330 112z" />
<glyph unicode="&#xb4;" d="M324 1409l438 295l143 -242l-485 -217z" />
<glyph unicode="&#xb5;" d="M137 -453v1540h320v-618q0 -59 1.5 -94.5t8 -71t18.5 -54t32.5 -29.5t51.5 -11q108 0 181 117v761h323v-702q0 -176 25 -385l-291 -29q-19 74 -27 158q-98 -160 -235 -160q-57 0 -95.5 21t-80.5 78q39 -79 56 -144.5t17 -159.5v-184z" />
<glyph unicode="&#xb6;" d="M39 979q0 199 133.5 319.5t382.5 120.5h635v-1849l-270 -23v1653h-170v-1630l-271 -23v996q-217 18 -328.5 132t-111.5 304z" />
<glyph unicode="&#xb7;" d="M387 700q0 94 66 161t161 67t161.5 -67t66.5 -161t-66.5 -160.5t-161.5 -66.5t-161 66.5t-66 160.5z" />
<glyph unicode="&#xb8;" d="M342 -473l74 147q70 -34 131 -34q108 0 108 63q0 38 -45 53t-143 15l29 262h180v-131q105 -12 158 -65t53 -138q0 -105 -84 -170.5t-221 -65.5q-133 0 -240 64z" />
<glyph unicode="&#xb9;" d="M367 1141l303 162h194v-658h-229v432l-162 -82z" />
<glyph unicode="&#xba;" d="M162 1090q0 203 122 333.5t330 130.5t330.5 -130t122.5 -334q0 -210 -121.5 -338.5t-331.5 -128.5q-211 0 -331.5 127.5t-120.5 339.5zM190 0v221h848v-221h-848zM444 1090q0 -140 43.5 -202.5t126.5 -62.5t126.5 62.5t43.5 202.5q0 264 -170 264t-170 -264z" />
<glyph unicode="&#xbb;" d="M106 152l238 436l-238 434l187 117l348 -449v-205l-348 -450zM586 152l237 436l-237 434l186 117l350 -449v-205l-350 -450z" />
<glyph unicode="&#xbc;" d="M-35 1255l303 162h195v-657h-230v432l-161 -82zM29 514l1095 524l84 -155l-1093 -525zM592 115v133l248 428l194 -66l-203 -342h136l30 162h179v-162h90v-153h-90v-115h-213v115h-371z" />
<glyph unicode="&#xbd;" d="M-41 1255l303 162h195v-657h-230v432l-161 -82zM20 514l1096 524l84 -155l-1094 -525zM635 535q123 135 319 135q137 0 214 -61t77 -152q0 -89 -63 -152t-230 -137h318l-27 -168h-584v150q149 82 222 131t96.5 80t23.5 67q0 33 -22 53.5t-61 20.5q-40 0 -72 -16.5 t-66 -57.5z" />
<glyph unicode="&#xbe;" d="M-29 860l133 113q83 -64 189 -64q104 0 104 66q0 57 -102 57h-107l25 133h82q37 0 57.5 13t20.5 34q0 56 -80 56q-51 0 -91 -13t-91 -47l-117 117q131 105 328 105q135 0 210.5 -50.5t75.5 -132.5q0 -59 -34.5 -93.5t-106.5 -49.5q90 -14 131 -49.5t41 -104.5 q0 -94 -91 -148t-247 -54q-218 0 -330 112zM39 514l1096 524l84 -155l-1094 -525zM586 115v133l248 428l194 -66l-203 -342h136l30 162h178v-162h91v-153h-91v-115h-213v115h-370z" />
<glyph unicode="&#xbf;" d="M125 -111q0 67 21 121.5t54.5 91t74.5 67.5t81.5 59t74 57.5t54.5 71t21 92.5v43h293v-68q0 -82 -25 -146.5t-62 -102t-81 -71t-81 -57t-62 -57t-25 -72.5q0 -56 45 -86.5t119 -30.5q145 0 256 123l204 -157q-190 -222 -493 -222q-221 0 -345 99.5t-124 244.5zM465 860 q0 77 54 133t130 56t131.5 -56t55.5 -133q0 -74 -55.5 -128t-131.5 -54t-130 54t-54 128z" />
<glyph unicode="&#xc0;" d="M-23 0l435 1419h407l434 -1419h-358l-76 307h-416l-75 -307h-351zM336 1710l121 242l440 -250l-76 -164zM457 549h307l-154 629z" />
<glyph unicode="&#xc1;" d="M-23 0l435 1419h407l434 -1419h-358l-76 307h-416l-75 -307h-351zM334 1702l442 250l121 -242l-485 -172zM457 549h307l-154 629z" />
<glyph unicode="&#xc2;" d="M-23 0l435 1419h407l434 -1419h-358l-76 307h-416l-75 -307h-351zM227 1665l291 266h197l289 -266l-115 -133l-273 174l-272 -174zM457 549h307l-154 629z" />
<glyph unicode="&#xc3;" d="M-23 0l435 1419h407l434 -1419h-358l-76 307h-416l-75 -307h-351zM233 1632q38 105 107 172.5t160 67.5q45 0 83 -14t59 -31t45 -31t44 -14q34 0 57 20.5t50 67.5l161 -76q-41 -107 -108.5 -174.5t-159.5 -67.5q-44 0 -81.5 14.5t-59 32t-46 32t-44.5 14.5 q-33 0 -55.5 -21t-49.5 -68zM457 549h307l-154 629z" />
<glyph unicode="&#xc4;" d="M-23 0l435 1419h407l434 -1419h-358l-76 307h-416l-75 -307h-351zM211 1726q0 67 49.5 114.5t118.5 47.5q72 0 121 -47t49 -115q0 -70 -49 -117.5t-121 -47.5q-70 0 -119 47.5t-49 117.5zM457 549h307l-154 629zM684 1726q0 67 50.5 114.5t119.5 47.5q70 0 119 -47 t49 -115q0 -70 -48.5 -117.5t-119.5 -47.5q-70 0 -120 47.5t-50 117.5z" />
<glyph unicode="&#xc5;" d="M-23 0l435 1419h407l434 -1419h-358l-76 307h-416l-75 -307h-351zM332 1759q0 111 78 190t204 79q128 0 206.5 -79t78.5 -190q0 -113 -78.5 -191.5t-206.5 -78.5q-127 0 -204.5 78.5t-77.5 191.5zM457 549h307l-154 629zM524 1759q0 -51 24.5 -77.5t65.5 -26.5 q43 0 68 26.5t25 77.5q0 50 -25 75.5t-68 25.5q-41 0 -65.5 -26t-24.5 -75z" />
<glyph unicode="&#xc6;" d="M-25 0l359 1419h823l-35 -227h-372l67 -361h322v-225h-281l72 -379h305v-227h-543l-49 313h-289l-57 -313h-322zM391 543h217l-106 651z" />
<glyph unicode="&#xc7;" d="M70 713q0 174 51 315.5t140 234.5t210 143t262 50q147 0 253.5 -39t201.5 -117l-164 -198q-129 104 -283 104q-145 0 -235 -122.5t-90 -370.5q0 -247 89.5 -367.5t242.5 -120.5q66 0 126 20t95.5 42.5t85.5 62.5l151 -192q-171 -175 -424 -191v-65q105 -12 158 -65 t53 -138q0 -105 -84 -170.5t-221 -65.5q-132 0 -239 64l73 147q70 -34 131 -34q109 0 109 63q0 38 -45.5 53t-143.5 15l23 204q-242 42 -384 233t-142 505z" />
<glyph unicode="&#xc8;" d="M190 0v1419h928l-35 -239h-557v-342h492v-234h-492v-362h592v-242h-928zM375 1710l121 242l440 -250l-76 -164z" />
<glyph unicode="&#xc9;" d="M190 0v1419h928l-35 -239h-557v-342h492v-234h-492v-362h592v-242h-928zM373 1702l442 250l121 -242l-485 -172z" />
<glyph unicode="&#xca;" d="M190 0v1419h928l-35 -239h-557v-342h492v-234h-492v-362h592v-242h-928zM266 1665l291 266h197l288 -266l-114 -133l-273 174l-272 -174z" />
<glyph unicode="&#xcb;" d="M190 0v1419h928l-35 -239h-557v-342h492v-234h-492v-362h592v-242h-928zM250 1726q0 67 49.5 114.5t118.5 47.5q72 0 121 -47t49 -115q0 -70 -49 -117.5t-121 -47.5q-70 0 -119 47.5t-49 117.5zM723 1726q0 67 50.5 114.5t119.5 47.5q70 0 119 -47t49 -115 q0 -70 -48.5 -117.5t-119.5 -47.5q-70 0 -120 47.5t-50 117.5z" />
<glyph unicode="&#xcc;" d="M154 0v246h292v928h-292v245h921v-245h-293v-928h293v-246h-921zM334 1710l121 242l440 -250l-76 -164z" />
<glyph unicode="&#xcd;" d="M154 0v246h292v928h-292v245h921v-245h-293v-928h293v-246h-921zM332 1702l442 250l121 -242l-485 -172z" />
<glyph unicode="&#xce;" d="M154 0v246h292v928h-292v245h921v-245h-293v-928h293v-246h-921zM225 1665l291 266h197l288 -266l-114 -133l-273 174l-272 -174z" />
<glyph unicode="&#xcf;" d="M154 0v246h292v928h-292v245h921v-245h-293v-928h293v-246h-921zM209 1726q0 67 49.5 114.5t118.5 47.5q72 0 121 -47t49 -115q0 -70 -49 -117.5t-121 -47.5q-70 0 -119 47.5t-49 117.5zM682 1726q0 67 50.5 114.5t119.5 47.5q70 0 119 -47t49 -115q0 -70 -48.5 -117.5 t-119.5 -47.5q-70 0 -120 47.5t-50 117.5z" />
<glyph unicode="&#xd0;" d="M18 623v202h115v594h359q83 0 154.5 -8t145.5 -29t133 -54.5t112 -88t88.5 -126.5t56 -172.5t20.5 -223.5q0 -717 -686 -717h-383v623h-115zM469 244h72q74 0 128.5 22t98 74t66 146.5t22.5 230.5q0 112 -16 194.5t-43 132.5t-68.5 80.5t-86 41t-101.5 10.5h-72v-351h246 v-202h-246v-379z" />
<glyph unicode="&#xd1;" d="M106 0v1419h418l355 -1108h8q-49 245 -49 563v545h284v-1419h-407l-365 1106h-8q17 -91 33 -248t16 -321v-537h-285zM252 1632q38 105 106.5 172.5t159.5 67.5q45 0 83 -14t59.5 -31t45.5 -31t44 -14q34 0 56 20t50 68l162 -76q-41 -107 -108.5 -174.5t-159.5 -67.5 q-44 0 -81.5 14.5t-59 32t-46.5 32t-45 14.5q-33 0 -54.5 -20.5t-49.5 -68.5z" />
<glyph unicode="&#xd2;" d="M47 711q0 346 146.5 545.5t420.5 199.5q276 0 422 -197t146 -548q0 -345 -147 -545.5t-421 -200.5q-276 0 -421.5 197.5t-145.5 548.5zM334 1710l121 242l440 -250l-76 -164zM389 711q0 -263 53.5 -381.5t171.5 -118.5q122 0 174 118.5t52 381.5q0 262 -53 380.5 t-173 118.5q-119 0 -172 -118.5t-53 -380.5z" />
<glyph unicode="&#xd3;" d="M47 711q0 346 146.5 545.5t420.5 199.5q276 0 422 -197t146 -548q0 -345 -147 -545.5t-421 -200.5q-276 0 -421.5 197.5t-145.5 548.5zM332 1702l442 250l121 -242l-485 -172zM389 711q0 -263 53.5 -381.5t171.5 -118.5q122 0 174 118.5t52 381.5q0 262 -53 380.5 t-173 118.5q-119 0 -172 -118.5t-53 -380.5z" />
<glyph unicode="&#xd4;" d="M47 711q0 346 146.5 545.5t420.5 199.5q276 0 422 -197t146 -548q0 -345 -147 -545.5t-421 -200.5q-276 0 -421.5 197.5t-145.5 548.5zM225 1665l291 266h197l288 -266l-114 -133l-273 174l-272 -174zM389 711q0 -263 53.5 -381.5t171.5 -118.5q122 0 174 118.5t52 381.5 q0 262 -53 380.5t-173 118.5q-119 0 -172 -118.5t-53 -380.5z" />
<glyph unicode="&#xd5;" d="M47 711q0 346 146.5 545.5t420.5 199.5q276 0 422 -197t146 -548q0 -345 -147 -545.5t-421 -200.5q-276 0 -421.5 197.5t-145.5 548.5zM231 1632q38 105 107 172.5t160 67.5q45 0 83 -14t59 -31t45 -31t44 -14q34 0 57 20.5t50 67.5l161 -76q-41 -107 -108.5 -174.5 t-159.5 -67.5q-44 0 -81.5 14.5t-59 32t-46 32t-44.5 14.5q-33 0 -55.5 -21t-49.5 -68zM389 711q0 -263 53.5 -381.5t171.5 -118.5q122 0 174 118.5t52 381.5q0 262 -53 380.5t-173 118.5q-119 0 -172 -118.5t-53 -380.5z" />
<glyph unicode="&#xd6;" d="M47 711q0 346 146.5 545.5t420.5 199.5q276 0 422 -197t146 -548q0 -345 -147 -545.5t-421 -200.5q-276 0 -421.5 197.5t-145.5 548.5zM209 1726q0 67 49.5 114.5t118.5 47.5q72 0 121 -47t49 -115q0 -70 -49 -117.5t-121 -47.5q-70 0 -119 47.5t-49 117.5zM389 711 q0 -263 53.5 -381.5t171.5 -118.5q122 0 174 118.5t52 381.5q0 262 -53 380.5t-173 118.5q-119 0 -172 -118.5t-53 -380.5zM682 1726q0 67 50.5 114.5t119.5 47.5q70 0 119 -47t49 -115q0 -70 -48.5 -117.5t-119.5 -47.5q-70 0 -120 47.5t-50 117.5z" />
<glyph unicode="&#xd7;" d="M201 393l239 236l-239 235l178 178l235 -239l236 239l178 -178l-240 -235l240 -236l-178 -178l-236 240l-235 -240z" />
<glyph unicode="&#xd8;" d="M47 711q0 346 146.5 545.5t420.5 199.5q49 0 107 -10l59 199l226 -68l-72 -223q120 -93 184 -257.5t64 -385.5q0 -345 -147 -545.5t-421 -200.5q-48 0 -106 10l-57 -198l-228 67l70 226q-119 91 -182.5 255t-63.5 386zM379 711q0 -254 47 -371l254 868q-30 9 -66 9 q-125 0 -180 -119.5t-55 -386.5zM553 213q24 -8 61 -8q127 0 181.5 120t54.5 386q0 247 -45 366z" />
<glyph unicode="&#xd9;" d="M86 475v944h338v-819q0 -82 4 -139t16 -106.5t33 -78.5t55 -45t82 -16q115 0 153 89t38 296v819h338v-944q0 -227 -137 -368.5t-392 -141.5q-258 0 -393 137.5t-135 372.5zM334 1710l121 242l440 -250l-76 -164z" />
<glyph unicode="&#xda;" d="M86 475v944h338v-819q0 -82 4 -139t16 -106.5t33 -78.5t55 -45t82 -16q115 0 153 89t38 296v819h338v-944q0 -227 -137 -368.5t-392 -141.5q-258 0 -393 137.5t-135 372.5zM332 1702l442 250l121 -242l-485 -172z" />
<glyph unicode="&#xdb;" d="M86 475v944h338v-819q0 -82 4 -139t16 -106.5t33 -78.5t55 -45t82 -16q115 0 153 89t38 296v819h338v-944q0 -227 -137 -368.5t-392 -141.5q-258 0 -393 137.5t-135 372.5zM225 1665l291 266h197l288 -266l-114 -133l-273 174l-272 -174z" />
<glyph unicode="&#xdc;" d="M86 475v944h338v-819q0 -82 4 -139t16 -106.5t33 -78.5t55 -45t82 -16q115 0 153 89t38 296v819h338v-944q0 -227 -137 -368.5t-392 -141.5q-258 0 -393 137.5t-135 372.5zM209 1726q0 67 49.5 114.5t118.5 47.5q72 0 121 -47t49 -115q0 -70 -49 -117.5t-121 -47.5 q-70 0 -119 47.5t-49 117.5zM682 1726q0 67 50.5 114.5t119.5 47.5q70 0 119 -47t49 -115q0 -70 -48.5 -117.5t-119.5 -47.5q-70 0 -120 47.5t-50 117.5z" />
<glyph unicode="&#xdd;" d="M-16 1419h366l271 -612l272 612h352l-463 -887v-532h-336v530zM332 1702l442 250l121 -242l-485 -172z" />
<glyph unicode="&#xde;" d="M121 0v1419h338v-229h112q293 0 451 -117t158 -348q0 -245 -147 -366t-417 -121h-157v-238h-338zM459 481h135q116 0 176.5 57t60.5 185q0 118 -62.5 172.5t-186.5 54.5h-123v-469z" />
<glyph unicode="&#xdf;" d="M123 0v1087q0 222 121 344.5t352 122.5q192 0 303 -90.5t111 -228.5q0 -51 -19 -94.5t-46 -73.5t-54.5 -57.5t-46.5 -59t-19 -65.5q0 -42 37 -80.5t89 -76t104.5 -84t89.5 -124t37 -176.5q0 -177 -115 -278t-297 -101q-142 0 -260 64l102 217q64 -31 117 -31 q121 0 121 127q0 45 -17 82.5t-44 64.5t-59.5 52.5t-65.5 52.5t-60 58t-44 76t-17 99q0 51 16 97t38.5 80.5t45.5 67t39 71t16 78.5q0 51 -29.5 78.5t-80.5 27.5q-74 0 -108 -55t-34 -170v-1102h-323z" />
<glyph unicode="&#xe0;" d="M72 307q0 177 139 274t391 97h146v39q0 168 -216 168q-125 0 -296 -58l-76 215q218 82 424 82q475 0 475 -385v-426q0 -60 16 -88.5t55 -42.5l-67 -213q-195 18 -266 144q-59 -72 -155 -110t-202 -38q-167 0 -267.5 95t-100.5 247zM309 1462l142 242l440 -295l-96 -164z M406 330q0 -63 38 -98t107 -35q56 0 112.5 32t84.5 86v179h-80q-262 0 -262 -164z" />
<glyph unicode="&#xe1;" d="M72 307q0 177 139 274t391 97h146v39q0 168 -216 168q-125 0 -296 -58l-76 215q218 82 424 82q475 0 475 -385v-426q0 -60 16 -88.5t55 -42.5l-67 -213q-195 18 -266 144q-59 -72 -155 -110t-202 -38q-167 0 -267.5 95t-100.5 247zM309 1409l439 295l143 -242l-485 -217z M406 330q0 -63 38 -98t107 -35q56 0 112.5 32t84.5 86v179h-80q-262 0 -262 -164z" />
<glyph unicode="&#xe2;" d="M72 307q0 177 139 274t391 97h146v39q0 168 -216 168q-125 0 -296 -58l-76 215q218 82 424 82q475 0 475 -385v-426q0 -60 16 -88.5t55 -42.5l-67 -213q-195 18 -266 144q-59 -72 -155 -110t-202 -38q-167 0 -267.5 95t-100.5 247zM211 1384l291 285h196l289 -285 l-115 -131l-272 191l-272 -191zM406 330q0 -63 38 -98t107 -35q56 0 112.5 32t84.5 86v179h-80q-262 0 -262 -164z" />
<glyph unicode="&#xe3;" d="M72 307q0 177 139 274t391 97h146v39q0 168 -216 168q-125 0 -296 -58l-76 215q218 82 424 82q475 0 475 -385v-426q0 -60 16 -88.5t55 -42.5l-67 -213q-195 18 -266 144q-59 -72 -155 -110t-202 -38q-167 0 -267.5 95t-100.5 247zM217 1376q38 105 106.5 172.5 t159.5 67.5q45 0 83 -14t59.5 -31t45.5 -31t44 -14q34 0 56 20t50 68l162 -76q-41 -107 -108.5 -174.5t-159.5 -67.5q-44 0 -81.5 14.5t-59 32t-46.5 32t-45 14.5q-33 0 -54.5 -20.5t-49.5 -68.5zM406 330q0 -63 38 -98t107 -35q56 0 112.5 32t84.5 86v179h-80 q-262 0 -262 -164z" />
<glyph unicode="&#xe4;" d="M72 307q0 177 139 274t391 97h146v39q0 168 -216 168q-125 0 -296 -58l-76 215q218 82 424 82q475 0 475 -385v-426q0 -60 16 -88.5t55 -42.5l-67 -213q-195 18 -266 144q-59 -72 -155 -110t-202 -38q-167 0 -267.5 95t-100.5 247zM195 1470q0 67 49 114.5t118 47.5 q72 0 121 -47t49 -115q0 -70 -49 -117.5t-121 -47.5q-70 0 -118.5 47.5t-48.5 117.5zM406 330q0 -63 38 -98t107 -35q56 0 112.5 32t84.5 86v179h-80q-262 0 -262 -164zM668 1470q0 67 50.5 114.5t119.5 47.5q70 0 119 -47t49 -115q0 -70 -48.5 -117.5t-119.5 -47.5 q-70 0 -120 47.5t-50 117.5z" />
<glyph unicode="&#xe5;" d="M72 307q0 177 139 274t391 97h146v39q0 168 -216 168q-125 0 -296 -58l-76 215q218 82 424 82q475 0 475 -385v-426q0 -60 16 -88.5t55 -42.5l-67 -213q-195 18 -266 144q-59 -72 -155 -110t-202 -38q-167 0 -267.5 95t-100.5 247zM315 1503q0 111 78.5 190t204.5 79 q128 0 206.5 -79t78.5 -190q0 -113 -78.5 -191.5t-206.5 -78.5q-127 0 -205 78.5t-78 191.5zM406 330q0 -63 38 -98t107 -35q56 0 112.5 32t84.5 86v179h-80q-262 0 -262 -164zM508 1503q0 -51 24.5 -77.5t65.5 -26.5q43 0 67.5 26.5t24.5 77.5q0 50 -24.5 75.5t-67.5 25.5 q-41 0 -65.5 -26t-24.5 -75z" />
<glyph unicode="&#xe6;" d="M-12 311q0 359 413 359h86v47q0 104 -47.5 156.5t-136.5 52.5q-47 0 -86 -11.5t-104 -42.5l-72 179q162 73 295 73q196 0 282 -145q81 145 259 145q187 0 269.5 -140t82.5 -419q0 -53 -6 -102h-494q13 -146 62 -215.5t137 -69.5q87 0 178 66l123 -162 q-138 -117 -320 -117q-217 0 -327 172q-61 -92 -125 -132t-164 -40q-141 0 -223 95.5t-82 250.5zM258 326q0 -71 24.5 -110.5t69.5 -39.5q79 0 144 127q-9 92 -9 193h-45q-98 0 -141 -43.5t-43 -126.5zM729 639h256q-2 153 -27 218t-94 65q-65 0 -96.5 -63.5t-38.5 -219.5z " />
<glyph unicode="&#xe7;" d="M141 537q0 170 68.5 302.5t198 208.5t301.5 76q231 0 397 -137l-139 -194q-118 81 -244 81q-246 0 -246 -337q0 -316 244 -316q107 0 242 92l143 -204q-145 -125 -350 -142v-65q105 -12 158 -65t53 -138q0 -105 -84 -170.5t-221 -65.5q-133 0 -240 64l74 147 q70 -34 131 -34q108 0 108 63q0 38 -45 53t-143 15l22 206q-201 38 -314.5 187.5t-113.5 372.5z" />
<glyph unicode="&#xe8;" d="M94 543q0 121 35.5 226.5t101 184.5t166 124.5t224.5 45.5q237 0 375.5 -149t138.5 -410q0 -58 -7 -116h-704q32 -248 262 -248q148 0 272 98l136 -184q-174 -150 -435 -150q-272 0 -418.5 158t-146.5 420zM338 1462l141 242l441 -295l-97 -164zM420 645h399 q-3 262 -194 262q-185 0 -205 -262z" />
<glyph unicode="&#xe9;" d="M94 543q0 121 35.5 226.5t101 184.5t166 124.5t224.5 45.5q237 0 375.5 -149t138.5 -410q0 -58 -7 -116h-704q32 -248 262 -248q148 0 272 98l136 -184q-174 -150 -435 -150q-272 0 -418.5 158t-146.5 420zM338 1409l438 295l144 -242l-486 -217zM420 645h399 q-3 262 -194 262q-185 0 -205 -262z" />
<glyph unicode="&#xea;" d="M94 543q0 121 35.5 226.5t101 184.5t166 124.5t224.5 45.5q237 0 375.5 -149t138.5 -410q0 -58 -7 -116h-704q32 -248 262 -248q148 0 272 98l136 -184q-174 -150 -435 -150q-272 0 -418.5 158t-146.5 420zM240 1384l290 285h197l289 -285l-115 -131l-272 191l-273 -191z M420 645h399q-3 262 -194 262q-185 0 -205 -262z" />
<glyph unicode="&#xeb;" d="M94 543q0 121 35.5 226.5t101 184.5t166 124.5t224.5 45.5q237 0 375.5 -149t138.5 -410q0 -58 -7 -116h-704q32 -248 262 -248q148 0 272 98l136 -184q-174 -150 -435 -150q-272 0 -418.5 158t-146.5 420zM223 1470q0 67 49.5 114.5t118.5 47.5q72 0 121 -47t49 -115 q0 -70 -49 -117.5t-121 -47.5q-70 0 -119 47.5t-49 117.5zM420 645h399q-3 262 -194 262q-185 0 -205 -262zM696 1470q0 67 50.5 114.5t119.5 47.5q70 0 119 -47t49 -115q0 -70 -48.5 -117.5t-119.5 -47.5q-70 0 -120 47.5t-50 117.5z" />
<glyph unicode="&#xec;" d="M176 0v221h307v645h-297v221h621v-866h278v-221h-909zM322 1462l141 242l440 -295l-96 -164z" />
<glyph unicode="&#xed;" d="M176 0v221h307v645h-297v221h621v-866h278v-221h-909zM322 1409l438 295l143 -242l-485 -217z" />
<glyph unicode="&#xee;" d="M176 0v221h307v645h-297v221h621v-866h278v-221h-909zM223 1384l291 285h197l288 -285l-114 -131l-273 191l-272 -191z" />
<glyph unicode="&#xef;" d="M176 0v221h307v645h-297v221h621v-866h278v-221h-909zM207 1470q0 67 49.5 114.5t118.5 47.5q72 0 121 -47t49 -115q0 -70 -49 -117.5t-121 -47.5q-70 0 -119 47.5t-49 117.5zM680 1470q0 67 50.5 114.5t119.5 47.5q70 0 119 -47t49 -115q0 -70 -48.5 -117.5 t-119.5 -47.5q-70 0 -120 47.5t-50 117.5z" />
<glyph unicode="&#xf0;" d="M82 479q0 147 61 264.5t161 180.5t218 63q89 0 152.5 -25t122.5 -79q-66 197 -219 309l-115 -117l-205 94l119 123q-88 32 -187 49l64 211q176 -25 299 -75l149 155l166 -143l-108 -111q379 -244 379 -811q0 -171 -61 -306t-184.5 -215.5t-291.5 -80.5q-226 0 -373 138 t-147 376zM412 483q0 -282 196 -282q105 0 155 79t50 244q0 101 -2 148q-82 88 -205 88q-92 0 -143 -69.5t-51 -207.5z" />
<glyph unicode="&#xf1;" d="M143 0v1087h283l23 -124q142 161 337 161q144 0 221.5 -84.5t77.5 -240.5v-799h-323v705q0 102 -22.5 141t-82.5 39q-93 0 -190 -131v-754h-324zM233 1350q38 105 107 172t160 67q45 0 83 -14t59 -31t45 -31t44 -14q34 0 57 20.5t50 67.5l161 -76q-41 -107 -108.5 -174 t-159.5 -67q-44 0 -81.5 14.5t-59 31.5t-46 31.5t-44.5 14.5q-33 0 -55.5 -20.5t-49.5 -67.5z" />
<glyph unicode="&#xf2;" d="M86 545q0 263 140.5 421t387.5 158q249 0 389 -156.5t140 -420.5q0 -274 -139.5 -428t-389.5 -154q-251 0 -389.5 152.5t-138.5 427.5zM324 1462l141 242l440 -295l-96 -164zM420 545q0 -180 46.5 -261t147.5 -81t148 81.5t47 262.5q0 176 -47.5 257t-147.5 81t-147 -81 t-47 -259z" />
<glyph unicode="&#xf3;" d="M86 545q0 263 140.5 421t387.5 158q249 0 389 -156.5t140 -420.5q0 -274 -139.5 -428t-389.5 -154q-251 0 -389.5 152.5t-138.5 427.5zM324 1409l438 295l143 -242l-485 -217zM420 545q0 -180 46.5 -261t147.5 -81t148 81.5t47 262.5q0 176 -47.5 257t-147.5 81t-147 -81 t-47 -259z" />
<glyph unicode="&#xf4;" d="M86 545q0 263 140.5 421t387.5 158q249 0 389 -156.5t140 -420.5q0 -274 -139.5 -428t-389.5 -154q-251 0 -389.5 152.5t-138.5 427.5zM225 1384l291 285h197l288 -285l-114 -131l-273 191l-272 -191zM420 545q0 -180 46.5 -261t147.5 -81t148 81.5t47 262.5 q0 176 -47.5 257t-147.5 81t-147 -81t-47 -259z" />
<glyph unicode="&#xf5;" d="M86 545q0 263 140.5 421t387.5 158q249 0 389 -156.5t140 -420.5q0 -274 -139.5 -428t-389.5 -154q-251 0 -389.5 152.5t-138.5 427.5zM231 1376q38 105 107 172.5t160 67.5q45 0 83 -14t59 -31t45 -31t44 -14q34 0 57 20.5t50 67.5l161 -76q-41 -107 -108.5 -174.5 t-159.5 -67.5q-44 0 -81.5 14.5t-59 32t-46 32t-44.5 14.5q-33 0 -55.5 -21t-49.5 -68zM420 545q0 -180 46.5 -261t147.5 -81t148 81.5t47 262.5q0 176 -47.5 257t-147.5 81t-147 -81t-47 -259z" />
<glyph unicode="&#xf6;" d="M86 545q0 263 140.5 421t387.5 158q249 0 389 -156.5t140 -420.5q0 -274 -139.5 -428t-389.5 -154q-251 0 -389.5 152.5t-138.5 427.5zM209 1470q0 67 49.5 114.5t118.5 47.5q72 0 121 -47t49 -115q0 -70 -49 -117.5t-121 -47.5q-70 0 -119 47.5t-49 117.5zM420 545 q0 -180 46.5 -261t147.5 -81t148 81.5t47 262.5q0 176 -47.5 257t-147.5 81t-147 -81t-47 -259zM682 1470q0 67 50.5 114.5t119.5 47.5q70 0 119 -47t49 -115q0 -70 -48.5 -117.5t-119.5 -47.5q-70 0 -120 47.5t-50 117.5z" />
<glyph unicode="&#xf7;" d="M170 528v248h889v-248h-889zM430 213q0 77 53.5 131.5t130.5 54.5q78 0 131.5 -54.5t53.5 -131.5q0 -76 -54 -130t-131 -54t-130.5 54t-53.5 130zM430 1090q0 77 53.5 131.5t130.5 54.5q78 0 131.5 -54.5t53.5 -131.5q0 -74 -54 -128.5t-131 -54.5t-130.5 54.5 t-53.5 128.5z" />
<glyph unicode="&#xf8;" d="M86 545q0 263 140.5 421t387.5 158q12 0 34 -1t32 -1l78 236l233 -70l-80 -244q112 -70 172 -198.5t60 -298.5q0 -274 -139.5 -428t-389.5 -154q-42 0 -65 2l-76 -248l-235 70l81 250q-113 69 -173 198t-60 308zM414 545q0 -194 37 -269l196 613l-33 2q-105 0 -152.5 -82 t-47.5 -264zM588 197h26q105 0 153 82t48 268q0 184 -35 258z" />
<glyph unicode="&#xf9;" d="M143 303v784h324v-743q0 -76 28 -107.5t83 -31.5q51 0 100.5 31.5t83.5 85.5v765h323v-1087h-282l-15 127q-54 -78 -143 -120t-190 -42q-155 0 -233.5 89.5t-78.5 248.5zM324 1462l141 242l440 -295l-96 -164z" />
<glyph unicode="&#xfa;" d="M143 303v784h324v-743q0 -76 28 -107.5t83 -31.5q51 0 100.5 31.5t83.5 85.5v765h323v-1087h-282l-15 127q-54 -78 -143 -120t-190 -42q-155 0 -233.5 89.5t-78.5 248.5zM324 1409l438 295l143 -242l-485 -217z" />
<glyph unicode="&#xfb;" d="M143 303v784h324v-743q0 -76 28 -107.5t83 -31.5q51 0 100.5 31.5t83.5 85.5v765h323v-1087h-282l-15 127q-54 -78 -143 -120t-190 -42q-155 0 -233.5 89.5t-78.5 248.5zM225 1384l291 285h197l288 -285l-114 -131l-273 191l-272 -191z" />
<glyph unicode="&#xfc;" d="M143 303v784h324v-743q0 -76 28 -107.5t83 -31.5q51 0 100.5 31.5t83.5 85.5v765h323v-1087h-282l-15 127q-54 -78 -143 -120t-190 -42q-155 0 -233.5 89.5t-78.5 248.5zM209 1470q0 67 49.5 114.5t118.5 47.5q72 0 121 -47t49 -115q0 -70 -49 -117.5t-121 -47.5 q-70 0 -119 47.5t-49 117.5zM682 1470q0 67 50.5 114.5t119.5 47.5q70 0 119 -47t49 -115q0 -70 -48.5 -117.5t-119.5 -47.5q-70 0 -120 47.5t-50 117.5z" />
<glyph unicode="&#xfd;" d="M57 1087h342l211 -880l230 880h331l-362 -1087q-73 -220 -218.5 -332t-389.5 -125l-37 230q106 13 173 40.5t106.5 71t70.5 115.5h-111zM324 1409l438 295l143 -242l-485 -217z" />
<glyph unicode="&#xfe;" d="M143 -455v1975l324 34v-575q104 145 278 145q398 0 398 -577q0 -169 -49 -300t-144.5 -206.5t-224.5 -75.5q-157 0 -258 113v-498zM467 299q34 -51 71 -73.5t89 -22.5q90 0 136 80.5t46 259.5q0 131 -20.5 208t-55 105.5t-88.5 28.5q-103 0 -178 -127v-459z" />
<glyph unicode="&#xff;" d="M57 1087h342l211 -880l230 880h331l-362 -1087q-73 -220 -218.5 -332t-389.5 -125l-37 230q106 13 173 40.5t106.5 71t70.5 115.5h-111zM209 1470q0 67 49.5 114.5t118.5 47.5q72 0 121 -47t49 -115q0 -70 -49 -117.5t-121 -47.5q-70 0 -119 47.5t-49 117.5zM682 1470 q0 67 50.5 114.5t119.5 47.5q70 0 119 -47t49 -115q0 -70 -48.5 -117.5t-119.5 -47.5q-70 0 -120 47.5t-50 117.5z" />
<glyph unicode="&#x152;" d="M20 711q0 745 441 745q85 0 194 -37h566l-33 -227h-373q66 -133 78 -361h250v-225h-248q-11 -231 -90 -379h418v-227h-576q-115 -35 -186 -35q-229 0 -335 189.5t-106 556.5zM305 711q0 -282 36 -400t122 -118q88 0 124 118t36 400q0 196 -14.5 305.5t-49 160t-96.5 50.5 q-91 0 -124.5 -114.5t-33.5 -401.5z" />
<glyph unicode="&#x153;" d="M-16 545q0 177 38.5 304.5t124 201t213.5 73.5q100 0 163 -44t102 -128q91 172 272 172q183 0 263.5 -139.5t80.5 -419.5q0 -53 -6 -102h-481q12 -147 59.5 -216t132.5 -69q81 0 172 66l123 -162q-138 -117 -311 -117q-208 0 -312 164q-80 -164 -258 -164 q-376 0 -376 580zM252 545q0 -193 26.5 -267.5t94.5 -74.5q67 0 94 74.5t27 269.5q0 186 -27.5 262t-93.5 76q-67 0 -94 -76.5t-27 -263.5zM752 639h245q-2 153 -24.5 218t-87.5 65q-62 0 -93 -63.5t-40 -219.5z" />
<glyph unicode="&#x178;" d="M-16 1419h366l271 -612l272 612h352l-463 -887v-532h-336v530zM209 1726q0 67 49.5 114.5t118.5 47.5q72 0 121 -47t49 -115q0 -70 -49 -117.5t-121 -47.5q-70 0 -119 47.5t-49 117.5zM682 1726q0 67 50.5 114.5t119.5 47.5q70 0 119 -47t49 -115q0 -70 -48.5 -117.5 t-119.5 -47.5q-70 0 -120 47.5t-50 117.5z" />
<glyph unicode="&#x2c6;" d="M225 1384l291 285h197l288 -285l-114 -131l-273 191l-272 -191z" />
<glyph unicode="&#x2dc;" d="M231 1376q38 105 107 172.5t160 67.5q45 0 83 -14t59 -31t45 -31t44 -14q34 0 57 20.5t50 67.5l161 -76q-41 -107 -108.5 -174.5t-159.5 -67.5q-44 0 -81.5 14.5t-59 32t-46 32t-44.5 14.5q-33 0 -55.5 -21t-49.5 -68z" />
<glyph unicode="&#x2000;" horiz-adv-x="1014" />
<glyph unicode="&#x2001;" horiz-adv-x="2028" />
<glyph unicode="&#x2002;" horiz-adv-x="1014" />
<glyph unicode="&#x2003;" horiz-adv-x="2028" />
<glyph unicode="&#x2004;" horiz-adv-x="676" />
<glyph unicode="&#x2005;" horiz-adv-x="507" />
<glyph unicode="&#x2006;" horiz-adv-x="338" />
<glyph unicode="&#x2007;" horiz-adv-x="338" />
<glyph unicode="&#x2008;" horiz-adv-x="253" />
<glyph unicode="&#x2009;" horiz-adv-x="405" />
<glyph unicode="&#x200a;" horiz-adv-x="112" />
<glyph unicode="&#x2010;" d="M223 516v250h785v-250h-785z" />
<glyph unicode="&#x2011;" d="M223 516v250h785v-250h-785z" />
<glyph unicode="&#x2012;" d="M223 516v250h785v-250h-785z" />
<glyph unicode="&#x2013;" d="M55 516v250h1119v-250h-1119z" />
<glyph unicode="&#x2014;" d="M0 516v250h1229v-250h-1229z" />
<glyph unicode="&#x2018;" d="M416 1098q0 86 65 213l146 305h184l-88 -363q78 -58 78 -155q0 -77 -55.5 -131t-137.5 -54t-137 54t-55 131z" />
<glyph unicode="&#x2019;" d="M416 913l88 363q-78 58 -78 156q0 77 55.5 130.5t136.5 53.5q83 0 138 -53.5t55 -130.5q0 -84 -66 -213l-145 -306h-184z" />
<glyph unicode="&#x201a;" d="M416 -373l90 363q-78 58 -78 155q0 77 56 131t137 54q82 0 137 -54t55 -131q0 -80 -65 -213l-148 -305h-184z" />
<glyph unicode="&#x201c;" d="M180 1098q0 81 62 213l147 305h182l-88 -363q80 -57 80 -155q0 -77 -55.5 -131t-138.5 -54q-82 0 -135.5 53.5t-53.5 131.5zM655 1098q0 84 66 213l145 305h183l-91 -363q82 -59 82 -155q0 -77 -56.5 -131t-135.5 -54q-82 0 -137.5 54t-55.5 131z" />
<glyph unicode="&#x201d;" d="M180 932l88 362q-80 57 -80 154q0 77 56.5 130.5t136.5 53.5q83 0 137.5 -53t54.5 -131q0 -77 -65 -215l-146 -301h-182zM655 932l90 362q-81 58 -81 154q0 78 56 131t138 53q83 0 137 -52.5t54 -131.5t-64 -215l-147 -301h-183z" />
<glyph unicode="&#x201e;" d="M180 -373l90 363q-82 59 -82 155q0 76 56.5 130.5t136.5 54.5q82 0 137 -54t55 -131q0 -86 -65 -213l-146 -305h-182zM655 -373l90 363q-81 58 -81 155q0 77 56.5 131t137.5 54q82 0 136.5 -54t54.5 -131q0 -82 -64 -213l-147 -305h-183z" />
<glyph unicode="&#x2022;" d="M324 700q0 126 82 207.5t208 81.5t208.5 -82.5t82.5 -208.5t-82.5 -207t-208.5 -81t-208 82.5t-82 207.5z" />
<glyph unicode="&#x2026;" d="M31 135q0 71 51 122.5t123 51.5t123 -51.5t51 -122.5q0 -72 -51 -124t-123 -52t-123 52t-51 124zM440 135q0 71 51 122.5t123 51.5t123 -51.5t51 -122.5q0 -72 -51 -124t-123 -52t-123 52t-51 124zM850 135q0 71 51 122.5t123 51.5t123 -51.5t51 -122.5q0 -72 -51 -124 t-123 -52t-123 52t-51 124z" />
<glyph unicode="&#x202f;" horiz-adv-x="405" />
<glyph unicode="&#x2039;" d="M322 485v205l387 449l198 -131l-262 -420l262 -422l-198 -131z" />
<glyph unicode="&#x203a;" d="M322 166l260 422l-260 420l198 131l387 -449v-205l-387 -450z" />
<glyph unicode="&#x205f;" horiz-adv-x="507" />
<glyph unicode="&#x20ac;" d="M66 469l43 172h124v143h-165l43 170h147q51 236 202.5 369t375.5 133q115 0 192.5 -26.5t157.5 -79.5l-121 -201q-59 39 -104 54.5t-109 15.5q-215 0 -270 -265h422l-43 -170h-402v-143h371l-43 -172h-312q23 -139 87 -201.5t180 -62.5q146 0 286 94v-258 q-155 -76 -311 -76q-233 0 -375.5 129.5t-187.5 374.5h-188z" />
<glyph unicode="&#x2122;" d="M-27 1249v176h787l90 -499l86 499h254l27 -821h-199l-6 277q-3 186 18 307h-8l-88 -440h-166l-92 440h-8q21 -117 18 -307l-4 -277h-201l23 645h-146v-645h-221v645h-164z" />
<glyph unicode="&#x25fc;" horiz-adv-x="1085" d="M0 0v1085h1085v-1085h-1085z" />
<glyph unicode="&#xfb01;" d="M20 862v225h160v91q0 167 113 271.5t325 104.5q215 0 373 -69l-88 -211q-107 41 -233 41q-97 0 -139 -35t-42 -115v-78h592v-866h131v-221h-567v221h125v641h-281v-862h-309v862h-160z" />
<glyph unicode="&#xfb02;" d="M12 862v225h146v91q0 165 114.5 270.5t319.5 105.5q105 0 217 -34l221 32v-1233q0 -54 19 -76t57 -22q25 0 74 17l63 -232q-98 -41 -211 -41q-151 0 -232 83t-81 243v1018q-43 12 -94 12q-83 0 -119.5 -37.5t-36.5 -118.5v-78h170l-35 -225h-135v-862h-311v862h-146z" />
</font>
</defs>
</svg>
